Eczar-ExtraBold.ufo
<glyph name="quotedbl" format="1">
  <advance width="475"/>
  <unicode hex="0022"/>
  <outline>
    <contour>
      <point x="255" y="424" type="curve"/>
      <point x="363" y="384" type="line"/>
      <point x="430" y="461"/>
      <point x="481" y="604"/>
      <point x="473" y="669" type="curve"/>
      <point x="349" y="693" type="line"/>
      <point x="296" y="636" type="line"/>
      <point x="302" y="593"/>
      <point x="285" y="497"/>
    </contour>
    <contour>
      <point x="6" y="424" type="curve"/>
      <point x="114" y="384" type="line"/>
      <point x="181" y="461"/>
      <point x="232" y="604"/>
      <point x="224" y="669" type="curve"/>
      <point x="100" y="693" type="line"/>
      <point x="47" y="636" type="line"/>
      <point x="53" y="593"/>
      <point x="36" y="497"/>
    </contour>
  </outline>
</glyph>
<glyph name="numbersign" format="1">
  <advance width="621"/>
  <unicode hex="0023"/>
  <outline>
    <contour>
      <point x="321" y="0" type="line"/>
      <point x="420" y="-12" type="line"/>
      <point x="501" y="519" type="line"/>
      <point x="402" y="530" type="line"/>
    </contour>
    <contour>
      <point x="52" y="212" type="line"/>
      <point x="52" y="117" type="line"/>
      <point x="540" y="117" type="line"/>
      <point x="540" y="212" type="line"/>
    </contour>
    <contour>
      <point x="125" y="0" type="line"/>
      <point x="224" y="-12" type="line"/>
      <point x="305" y="519" type="line"/>
      <point x="206" y="530" type="line"/>
    </contour>
    <contour>
      <point x="81" y="407" type="line"/>
      <point x="81" y="313" type="line"/>
      <point x="569" y="313" type="line"/>
      <point x="569" y="407" type="line"/>
    </contour>
  </outline>
</glyph>
<glyph name="dollar" format="1">
  <advance width="622"/>
  <unicode hex="0024"/>
  <outline>
    <contour>
      <point x="248" y="35" type="line"/>
      <point x="248" y="-145" type="line"/>
      <point x="391" y="-145" type="line"/>
      <point x="391" y="35" type="line"/>
    </contour>
    <contour>
      <point x="248" y="785" type="line"/>
      <point x="248" y="633" type="line"/>
      <point x="390" y="633" type="line"/>
      <point x="390" y="785" type="line"/>
    </contour>
    <component base="S"/>
  </outline>
</glyph>
<glyph name="quotesingle" format="1">
  <advance width="192"/>
  <unicode hex="0027"/>
  <outline>
    <contour>
      <point x="-28" y="490" type="curve"/>
      <point x="79" y="450" type="line"/>
      <point x="134" y="520"/>
      <point x="179" y="654"/>
      <point x="173" y="735" type="curve"/>
      <point x="49" y="751" type="line"/>
      <point x="-3" y="694" type="line"/>
      <point x="3" y="651"/>
      <point x="2" y="563"/>
    </contour>
  </outline>
</glyph>
<glyph name="parenleft" format="1">
  <advance width="386"/>
  <unicode hex="0028"/>
  <outline>
    <contour>
      <point x="344" y="-88" type="line"/>
      <point x="278" y="50"/>
      <point x="235" y="177"/>
      <point x="235" y="310" type="curve" smooth="yes"/>
      <point x="235" y="430"/>
      <point x="272" y="544"/>
      <point x="345" y="666" type="curve"/>
      <point x="229" y="732" type="line"/>
      <point x="95" y="601"/>
      <point x="33" y="461"/>
      <point x="33" y="306" type="curve" smooth="yes"/>
      <point x="33" y="137"/>
      <point x="105" y="-16"/>
      <point x="226" y="-155" type="curve"/>
    </contour>
  </outline>
</glyph>
<glyph name="parenright" format="1">
  <advance width="386"/>
  <unicode hex="0029"/>
  <outline>
    <contour>
      <point x="42" y="-88" type="curve"/>
      <point x="160" y="-155" type="line"/>
      <point x="281" y="-16"/>
      <point x="353" y="137"/>
      <point x="353" y="306" type="curve"/>
      <point x="353" y="461"/>
      <point x="291" y="601"/>
      <point x="157" y="732" type="curve"/>
      <point x="41" y="666" type="line"/>
      <point x="114" y="544"/>
      <point x="151" y="430"/>
      <point x="151" y="310" type="curve"/>
      <point x="151" y="177"/>
      <point x="108" y="50"/>
    </contour>
  </outline>
</glyph>
<glyph name="plus" format="1">
  <advance width="569"/>
  <unicode hex="002B"/>
  <outline>
    <contour>
      <point x="226" y="210" type="line"/>
      <point x="226" y="32" type="line"/>
      <point x="343" y="32" type="line"/>
      <point x="343" y="210" type="line"/>
      <point x="517" y="210" type="line"/>
      <point x="517" y="320" type="line"/>
      <point x="343" y="320" type="line"/>
      <point x="343" y="499" type="line"/>
      <point x="226" y="499" type="line"/>
      <point x="226" y="320" type="line"/>
      <point x="52" y="320" type="line"/>
      <point x="52" y="210" type="line"/>
    </contour>
  </outline>
</glyph>
<glyph name="comma" format="1">
  <advance width="329"/>
  <unicode hex="002C"/>
  <outline>
    <contour>
      <point x="51" y="-85" type="curve"/>
      <point x="98" y="-140" type="line"/>
      <point x="186" y="-104"/>
      <point x="270" y="-12"/>
      <point x="270" y="70" type="curve"/>
      <point x="270" y="123"/>
      <point x="237" y="172"/>
      <point x="163" y="201" type="curve"/>
      <point x="114" y="174"/>
      <point x="75" y="133"/>
      <point x="66" y="74" type="curve"/>
      <point x="120" y="27" type="line"/>
      <point x="118" y="-5"/>
      <point x="90" y="-52"/>
    </contour>
  </outline>
</glyph>
<glyph name="period" format="1">
  <advance width="320"/>
  <unicode hex="002E"/>
  <outline>
    <contour>
      <point x="225" y="-45" type="curve"/>
      <point x="263" y="-19"/>
      <point x="303" y="33"/>
      <point x="320" y="77" type="curve"/>
      <point x="296" y="109"/>
      <point x="245" y="155"/>
      <point x="201" y="173" type="curve"/>
      <point x="163" y="151"/>
      <point x="125" y="99"/>
      <point x="101" y="51" type="curve"/>
      <point x="127" y="15"/>
      <point x="186" y="-29"/>
    </contour>
  </outline>
</glyph>
<glyph name="slash" format="1">
  <advance width="428"/>
  <unicode hex="002F"/>
  <outline>
    <contour>
      <point x="7" y="-70" type="line"/>
      <point x="125" y="-119" type="line"/>
      <point x="431" y="688" type="line"/>
      <point x="315" y="739" type="line"/>
    </contour>
  </outline>
</glyph>
<glyph name="four" format="1">
  <advance width="630"/>
  <unicode hex="0034"/>
  <outline>
    <contour>
      <point x="9" y="256" type="line"/>
      <point x="48" y="151" type="line"/>
      <point x="583" y="151" type="line"/>
      <point x="615" y="182" type="line"/>
      <point x="610" y="272" type="line"/>
      <point x="103" y="261" type="line"/>
      <point x="157" y="233" type="line"/>
      <point x="397" y="578" type="line"/>
      <point x="431" y="553" type="line"/>
      <point x="423" y="652" type="line"/>
      <point x="354" y="670" type="line"/>
    </contour>
    <contour>
      <point x="187" y="32" type="curve"/>
      <point x="193" y="0" type="line"/>
      <point x="320" y="0" type="line"/>
      <point x="322" y="94" type="line"/>
      <point x="280" y="79"/>
      <point x="219" y="56"/>
    </contour>
    <contour>
      <point x="434" y="80" type="line"/>
      <point x="431" y="0" type="line"/>
      <point x="570" y="0" type="line"/>
      <point x="572" y="55" type="line"/>
    </contour>
    <contour>
      <point x="309" y="373" type="line"/>
      <point x="309" y="0" type="line"/>
      <point x="502" y="0" type="line"/>
      <point x="502" y="652" type="line"/>
      <point x="352" y="663" type="line"/>
      <point x="318" y="517" type="line"/>
    </contour>
  </outline>
</glyph>
<glyph name="five" format="1">
  <advance width="582"/>
  <unicode hex="0035"/>
  <outline>
    <contour>
      <point x="287" y="-24" type="curve"/>
      <point x="458" y="-24"/>
      <point x="551" y="81"/>
      <point x="551" y="198" type="curve"/>
      <point x="551" y="337"/>
      <point x="420" y="406"/>
      <point x="307" y="408" type="curve"/>
      <point x="284" y="408"/>
      <point x="259" y="408"/>
      <point x="239" y="401" type="curve"/>
      <point x="251" y="554" type="line"/>
      <point x="447" y="542" type="line"/>
      <point x="456" y="650" type="line"/>
      <point x="90" y="650" type="line"/>
      <point x="61" y="319" type="line"/>
      <point x="116" y="259" type="line"/>
      <point x="146" y="268"/>
      <point x="172" y="271"/>
      <point x="194" y="271" type="curve"/>
      <point x="296" y="271"/>
      <point x="370" y="236"/>
      <point x="370" y="162" type="curve"/>
      <point x="370" y="140"/>
      <point x="364" y="114"/>
      <point x="336" y="85" type="curve"/>
      <point x="264" y="103"/>
      <point x="165" y="158"/>
      <point x="87" y="227" type="curve"/>
      <point x="30" y="45" type="line"/>
      <point x="109" y="-2"/>
      <point x="210" y="-24"/>
    </contour>
    <contour>
      <point x="325" y="648" type="line"/>
      <point x="375" y="435" type="line"/>
      <point x="498" y="435" type="line"/>
      <point x="512" y="484"/>
      <point x="524" y="601"/>
      <point x="520" y="650" type="curve"/>
    </contour>
  </outline>
</glyph>
<glyph name="colon" format="1">
  <advance width="309"/>
  <unicode hex="003A"/>
  <outline>
    <contour>
      <point x="216" y="289" type="curve"/>
      <point x="263" y="314"/>
      <point x="294" y="351"/>
      <point x="309" y="400" type="curve"/>
      <point x="294" y="449"/>
      <point x="250" y="488"/>
      <point x="199" y="511" type="curve"/>
      <point x="147" y="483"/>
      <point x="109" y="441"/>
      <point x="101" y="382" type="curve"/>
      <point x="125" y="337"/>
      <point x="163" y="307"/>
    </contour>
    <contour>
      <point x="216" y="-20" type="curve"/>
      <point x="263" y="4"/>
      <point x="294" y="42"/>
      <point x="309" y="90" type="curve"/>
      <point x="294" y="139"/>
      <point x="250" y="179"/>
      <point x="199" y="202" type="curve"/>
      <point x="147" y="173"/>
      <point x="109" y="132"/>
      <point x="101" y="73" type="curve"/>
      <point x="125" y="27"/>
      <point x="163" y="-3"/>
    </contour>
  </outline>
</glyph>
<glyph name="semicolon" format="1">
  <advance width="334"/>
  <unicode hex="003B"/>
  <outline>
    <contour>
      <point x="260" y="449"/>
      <point x="216" y="488"/>
      <point x="165" y="511" type="curve"/>
      <point x="113" y="483"/>
      <point x="75" y="441"/>
      <point x="67" y="382" type="curve"/>
      <point x="91" y="337"/>
      <point x="129" y="307"/>
      <point x="182" y="289" type="curve"/>
      <point x="229" y="314"/>
      <point x="260" y="351"/>
      <point x="275" y="400" type="curve"/>
    </contour>
    <contour>
      <point x="98" y="-140" type="line"/>
      <point x="186" y="-104"/>
      <point x="270" y="-12"/>
      <point x="270" y="70" type="curve" smooth="yes"/>
      <point x="270" y="123"/>
      <point x="237" y="172"/>
      <point x="163" y="201" type="curve"/>
      <point x="114" y="174"/>
      <point x="75" y="133"/>
      <point x="66" y="74" type="curve"/>
      <point x="120" y="27" type="line"/>
      <point x="118" y="-5"/>
      <point x="90" y="-52"/>
      <point x="51" y="-85" type="curve"/>
    </contour>
  </outline>
</glyph>
<glyph name="less" format="1">
  <advance width="578"/>
  <unicode hex="003C"/>
  <outline>
    <contour>
      <point x="56" y="272" type="line"/>
      <point x="58" y="202" type="line"/>
      <point x="467" y="-6" type="line"/>
      <point x="521" y="97" type="line"/>
      <point x="230" y="240" type="line"/>
      <point x="229" y="246" type="line"/>
      <point x="517" y="401" type="line"/>
      <point x="466" y="500" type="line"/>
    </contour>
  </outline>
</glyph>
<glyph name="equal" format="1">
  <advance width="576"/>
  <unicode hex="003D"/>
  <outline>
    <contour>
      <point x="52" y="213" type="line"/>
      <point x="52" y="116" type="line"/>
      <point x="524" y="116" type="line"/>
      <point x="524" y="213" type="line"/>
    </contour>
    <contour>
      <point x="52" y="401" type="line"/>
      <point x="52" y="304" type="line"/>
      <point x="524" y="304" type="line"/>
      <point x="524" y="401" type="line"/>
    </contour>
  </outline>
</glyph>
<glyph name="A" format="1">
  <advance width="741"/>
  <unicode hex="0041"/>
  <outline>
    <contour>
      <point x="30" y="0" type="line"/>
      <point x="168" y="0" type="line"/>
      <point x="400" y="628" type="line"/>
      <point x="291" y="646" type="line"/>
    </contour>
    <contour>
      <point x="254" y="645" type="line"/>
      <point x="492" y="0" type="line"/>
      <point x="713" y="0" type="line"/>
      <point x="436" y="690" type="line"/>
    </contour>
    <contour>
      <point x="184" y="254" type="line"/>
      <point x="184" y="162" type="line"/>
      <point x="517" y="162" type="line"/>
      <point x="517" y="254" type="line"/>
    </contour>
    <contour>
      <point x="41" y="73"/>
      <point x="8" y="54"/>
      <point x="-20" y="32" type="curve"/>
      <point x="-14" y="0" type="line"/>
      <point x="80" y="0" type="line"/>
      <point x="79" y="91" type="line"/>
    </contour>
    <contour>
      <point x="133" y="0" type="line"/>
      <point x="273" y="0" type="line"/>
      <point x="274" y="55" type="line"/>
      <point x="136" y="79" type="line"/>
    </contour>
    <contour>
      <point x="449" y="73"/>
      <point x="416" y="54"/>
      <point x="388" y="32" type="curve"/>
      <point x="394" y="0" type="line"/>
      <point x="498" y="0" type="line"/>
      <point x="487" y="91" type="line"/>
    </contour>
    <contour>
      <point x="616" y="0" type="line"/>
      <point x="756" y="0" type="line"/>
      <point x="757" y="55" type="line"/>
      <point x="619" y="79" type="line"/>
    </contour>
    <contour>
      <point x="718" y="0" type="move" name="ogonek"/>
    </contour>
    <contour>
      <point x="360" y="650" type="move" name="top"/>
    </contour>
  </outline>
</glyph>
<glyph name="B" format="1">
  <advance width="717"/>
  <unicode hex="0042"/>
  <outline>
    <contour>
      <point x="310" y="674"/>
      <point x="136" y="671"/>
      <point x="37" y="666" type="curve"/>
      <point x="313" y="561" type="line"/>
      <point x="399" y="577" type="line"/>
      <point x="434" y="565"/>
      <point x="455" y="516"/>
      <point x="455" y="476" type="curve" smooth="yes"/>
      <point x="455" y="430"/>
      <point x="427" y="384"/>
      <point x="360" y="384" type="curve" smooth="yes"/>
      <point x="290" y="384" type="line"/>
      <point x="290" y="313" type="line"/>
      <point x="372" y="321" type="line"/>
      <point x="503" y="344" type="line"/>
      <point x="611" y="350"/>
      <point x="661" y="436"/>
      <point x="661" y="501" type="curve" smooth="yes"/>
      <point x="661" y="585"/>
      <point x="574" y="674"/>
      <point x="400" y="674" type="curve"/>
    </contour>
    <contour>
      <point x="83" y="73"/>
      <point x="50" y="54"/>
      <point x="22" y="32" type="curve"/>
      <point x="28" y="0" type="line"/>
      <point x="122" y="0" type="line"/>
      <point x="121" y="91" type="line"/>
    </contour>
    <contour>
      <point x="107" y="666" type="line"/>
      <point x="107" y="0" type="line"/>
      <point x="317" y="0" type="line"/>
      <point x="317" y="666" type="line"/>
    </contour>
    <contour>
      <point x="314" y="340" type="line"/>
      <point x="297" y="306" type="line"/>
      <point x="384" y="306" type="line" smooth="yes"/>
      <point x="439" y="306"/>
      <point x="476" y="245"/>
      <point x="476" y="191" type="curve" smooth="yes"/>
      <point x="476" y="140"/>
      <point x="445" y="85"/>
      <point x="378" y="93" type="curve" smooth="yes"/>
      <point x="297" y="103" type="line"/>
      <point x="294" y="0" type="line"/>
      <point x="404" y="0" type="line" smooth="yes"/>
      <point x="618" y="0"/>
      <point x="689" y="94"/>
      <point x="689" y="185" type="curve" smooth="yes"/>
      <point x="689" y="284"/>
      <point x="607" y="368"/>
      <point x="446" y="356" type="curve"/>
    </contour>
    <contour>
      <point x="37" y="666" type="line"/>
      <point x="36" y="611" type="line"/>
      <point x="166" y="589" type="line"/>
      <point x="168" y="666" type="line"/>
    </contour>
  </outline>
</glyph>
<glyph name="C" format="1">
  <advance width="612"/>
  <unicode hex="0043"/>
  <outline>
    <contour>
      <point x="394" y="-17" type="curve"/>
      <point x="608" y="71" type="line"/>
      <point x="577" y="164" type="line"/>
      <point x="402" y="110" type="line"/>
      <point x="277" y="111"/>
      <point x="216" y="216"/>
      <point x="216" y="350" type="curve"/>
      <point x="216" y="436"/>
      <point x="241" y="526"/>
      <point x="293" y="582" type="curve"/>
      <point x="404" y="571"/>
      <point x="483" y="528"/>
      <point x="556" y="467" type="curve"/>
      <point x="589" y="620" type="line"/>
      <point x="542" y="652"/>
      <point x="478" y="686"/>
      <point x="371" y="686" type="curve"/>
      <point x="124" y="686"/>
      <point x="8" y="505"/>
      <point x="8" y="324" type="curve"/>
      <point x="8" y="168"/>
      <point x="94" y="-31"/>
    </contour>
    <contour>
      <point x="387" y="622" type="line"/>
      <point x="439" y="415" type="line"/>
      <point x="563" y="415" type="line"/>
      <point x="578" y="471"/>
      <point x="593" y="574"/>
      <point x="589" y="620" type="curve"/>
    </contour>
    <contour>
      <point x="342" y="0" type="move" name="bottom"/>
    </contour>
    <contour>
      <point x="342" y="650" type="move" name="top"/>
    </contour>
  </outline>
</glyph>
<glyph name="D" format="1">
  <advance width="757"/>
  <unicode hex="0044"/>
  <outline>
    <contour>
      <point x="265" y="674"/>
      <point x="154" y="672"/>
      <point x="37" y="666" type="curve"/>
      <point x="311" y="561" type="line"/>
      <point x="424" y="577" type="line"/>
      <point x="492" y="530"/>
      <point x="532" y="426"/>
      <point x="532" y="327" type="curve" smooth="yes"/>
      <point x="532" y="217"/>
      <point x="483" y="100"/>
      <point x="376" y="100" type="curve" smooth="yes"/>
      <point x="350" y="100"/>
      <point x="321" y="106"/>
      <point x="288" y="121" type="curve"/>
      <point x="300" y="0" type="line"/>
      <point x="390" y="0" type="line" smooth="yes"/>
      <point x="632" y="0"/>
      <point x="749" y="163"/>
      <point x="749" y="339" type="curve" smooth="yes"/>
      <point x="749" y="499"/>
      <point x="629" y="674"/>
      <point x="382" y="674" type="curve" smooth="yes"/>
    </contour>
    <contour>
      <point x="83" y="73"/>
      <point x="50" y="54"/>
      <point x="22" y="32" type="curve"/>
      <point x="28" y="0" type="line"/>
      <point x="122" y="0" type="line"/>
      <point x="121" y="91" type="line"/>
    </contour>
    <contour>
      <point x="107" y="666" type="line"/>
      <point x="107" y="0" type="line"/>
      <point x="317" y="0" type="line"/>
      <point x="317" y="666" type="line"/>
    </contour>
    <contour>
      <point x="37" y="666" type="line"/>
      <point x="36" y="611" type="line"/>
      <point x="166" y="589" type="line"/>
      <point x="168" y="666" type="line"/>
    </contour>
    <contour>
      <point x="388" y="325" type="move" name="center"/>
    </contour>
    <contour>
      <point x="60" y="0" type="move" name="bottom"/>
    </contour>
    <contour>
      <point x="381" y="650" type="move" name="top"/>
    </contour>
  </outline>
</glyph>
<glyph name="E" format="1">
  <advance width="670"/>
  <unicode hex="0045"/>
  <outline>
    <contour>
      <point x="107" y="666" type="line"/>
      <point x="107" y="0" type="line"/>
      <point x="317" y="0" type="line"/>
      <point x="317" y="666" type="line"/>
    </contour>
    <contour>
      <point x="83" y="73"/>
      <point x="50" y="54"/>
      <point x="22" y="32" type="curve"/>
      <point x="28" y="0" type="line"/>
      <point x="122" y="0" type="line"/>
      <point x="121" y="91" type="line"/>
    </contour>
    <contour>
      <point x="282" y="98" type="line"/>
      <point x="207" y="0" type="line"/>
      <point x="607" y="0" type="line"/>
      <point x="606" y="127" type="line"/>
    </contour>
    <contour>
      <point x="280" y="373" type="line"/>
      <point x="280" y="288" type="line"/>
      <point x="520" y="278" type="line"/>
      <point x="520" y="393" type="line"/>
    </contour>
    <contour>
      <point x="200" y="666" type="line"/>
      <point x="275" y="570" type="line"/>
      <point x="604" y="547" type="line"/>
      <point x="617" y="666" type="line"/>
    </contour>
    <contour>
      <point x="32" y="666" type="line"/>
      <point x="31" y="611" type="line"/>
      <point x="161" y="589" type="line"/>
      <point x="163" y="666" type="line"/>
    </contour>
    <contour>
      <point x="429" y="8" type="line"/>
      <point x="608" y="0" type="line"/>
      <point x="616" y="64"/>
      <point x="622" y="159"/>
      <point x="620" y="218" type="curve"/>
      <point x="505" y="227" type="line"/>
    </contour>
    <contour>
      <point x="596" y="451" type="line"/>
      <point x="611" y="520"/>
      <point x="619" y="620"/>
      <point x="617" y="666" type="curve"/>
      <point x="442" y="657" type="line"/>
      <point x="481" y="451" type="line"/>
    </contour>
    <contour>
      <point x="654" y="0" type="move" name="ogonek"/>
    </contour>
    <contour>
      <point x="332" y="0" type="move" name="bottom"/>
    </contour>
    <contour>
      <point x="332" y="650" type="move" name="top"/>
    </contour>
  </outline>
</glyph>
<glyph name="F" format="1">
  <advance width="659"/>
  <unicode hex="0046"/>
  <outline>
    <contour>
      <point x="99" y="666" type="line"/>
      <point x="99" y="0" type="line"/>
      <point x="309" y="0" type="line"/>
      <point x="309" y="666" type="line"/>
    </contour>
    <contour>
      <point x="22" y="32" type="curve"/>
      <point x="28" y="0" type="line"/>
      <point x="122" y="0" type="line"/>
      <point x="121" y="91" type="line"/>
      <point x="83" y="73"/>
      <point x="50" y="54"/>
    </contour>
    <contour>
      <point x="295" y="79" type="line"/>
      <point x="292" y="0" type="line"/>
      <point x="432" y="0" type="line"/>
      <point x="433" y="55" type="line"/>
    </contour>
    <contour>
      <point x="23" y="611" type="line"/>
      <point x="153" y="589" type="line"/>
      <point x="155" y="666" type="line"/>
      <point x="24" y="666" type="line"/>
    </contour>
    <contour>
      <point x="288" y="262" type="line"/>
      <point x="528" y="250" type="line"/>
      <point x="528" y="373" type="line"/>
      <point x="288" y="356" type="line"/>
    </contour>
    <contour>
      <point x="283" y="570" type="line"/>
      <point x="574" y="549" type="line"/>
      <point x="609" y="666" type="line"/>
      <point x="208" y="666" type="line"/>
    </contour>
    <contour>
      <point x="434" y="657" type="line"/>
      <point x="473" y="443" type="line"/>
      <point x="588" y="443" type="line"/>
      <point x="603" y="512"/>
      <point x="611" y="620"/>
      <point x="609" y="666" type="curve"/>
    </contour>
    <contour>
      <point x="56" y="0" type="move" name="bottom"/>
    </contour>
    <contour>
      <point x="56" y="130" type="move" name="top"/>
    </contour>
  </outline>
</glyph>
<glyph name="G" format="1">
  <advance width="721"/>
  <unicode hex="0047"/>
  <outline>
    <contour>
      <point x="400" y="-20" type="curve"/>
      <point x="631" y="67" type="line"/>
      <point x="586" y="130" type="line"/>
      <point x="542" y="117"/>
      <point x="458" y="98"/>
      <point x="398" y="101" type="curve"/>
      <point x="273" y="108"/>
      <point x="215" y="228"/>
      <point x="215" y="353" type="curve"/>
      <point x="215" y="440"/>
      <point x="241" y="529"/>
      <point x="295" y="582" type="curve"/>
      <point x="443" y="579"/>
      <point x="530" y="522"/>
      <point x="588" y="474" type="curve"/>
      <point x="619" y="625" type="line"/>
      <point x="582" y="649"/>
      <point x="505" y="686"/>
      <point x="394" y="686" type="curve"/>
      <point x="146" y="686"/>
      <point x="8" y="511"/>
      <point x="8" y="321" type="curve"/>
      <point x="8" y="169"/>
      <point x="97" y="-36"/>
    </contour>
    <contour>
      <point x="461" y="211" type="curve"/>
      <point x="459" y="305" type="line"/>
      <point x="361" y="305" type="line"/>
      <point x="355" y="272" type="line"/>
      <point x="385" y="249"/>
      <point x="422" y="229"/>
    </contour>
    <contour>
      <point x="445" y="305" type="line"/>
      <point x="445" y="65" type="line"/>
      <point x="631" y="67" type="line"/>
      <point x="631" y="305" type="line"/>
    </contour>
    <contour>
      <point x="558" y="305" type="line"/>
      <point x="567" y="217" type="line"/>
      <point x="707" y="258" type="line"/>
      <point x="706" y="305" type="line"/>
    </contour>
    <contour>
      <point x="417" y="627" type="line"/>
      <point x="472" y="430" type="line"/>
      <point x="595" y="430" type="line"/>
      <point x="611" y="489"/>
      <point x="623" y="579"/>
      <point x="619" y="625" type="curve"/>
    </contour>
    <contour>
      <point x="358" y="0" type="move" name="bottom"/>
    </contour>
    <contour>
      <point x="358" y="650" type="move" name="top"/>
    </contour>
  </outline>
</glyph>
<glyph name="H" format="1">
  <advance width="855"/>
  <unicode hex="0048"/>
  <outline>
    <contour>
      <point x="168" y="587" type="line"/>
      <point x="171" y="666" type="line"/>
      <point x="31" y="666" type="line"/>
      <point x="30" y="611" type="line"/>
    </contour>
    <contour>
      <point x="107" y="666" type="line"/>
      <point x="107" y="0" type="line"/>
      <point x="317" y="0" type="line"/>
      <point x="317" y="666" type="line"/>
    </contour>
    <contour>
      <point x="302" y="666" type="line"/>
      <point x="303" y="575" type="line"/>
      <point x="341" y="593"/>
      <point x="374" y="612"/>
      <point x="402" y="634" type="curve"/>
      <point x="396" y="666" type="line"/>
    </contour>
    <contour>
      <point x="458" y="666" type="line"/>
      <point x="457" y="611" type="line"/>
      <point x="595" y="587" type="line"/>
      <point x="598" y="666" type="line"/>
    </contour>
    <contour>
      <point x="534" y="666" type="line"/>
      <point x="534" y="0" type="line"/>
      <point x="744" y="0" type="line"/>
      <point x="744" y="666" type="line"/>
    </contour>
    <contour>
      <point x="729" y="666" type="line"/>
      <point x="730" y="575" type="line"/>
      <point x="768" y="593"/>
      <point x="801" y="612"/>
      <point x="829" y="634" type="curve"/>
      <point x="823" y="666" type="line"/>
    </contour>
    <contour>
      <point x="258" y="383" type="line"/>
      <point x="258" y="281" type="line"/>
      <point x="602" y="281" type="line"/>
      <point x="602" y="383" type="line"/>
    </contour>
    <contour>
      <point x="83" y="73"/>
      <point x="50" y="54"/>
      <point x="22" y="32" type="curve"/>
      <point x="28" y="0" type="line"/>
      <point x="122" y="0" type="line"/>
      <point x="121" y="91" type="line"/>
    </contour>
    <contour>
      <point x="265" y="0" type="line"/>
      <point x="405" y="0" type="line"/>
      <point x="406" y="55" type="line"/>
      <point x="268" y="79" type="line"/>
    </contour>
    <contour>
      <point x="510" y="73"/>
      <point x="477" y="54"/>
      <point x="449" y="32" type="curve"/>
      <point x="455" y="0" type="line"/>
      <point x="549" y="0" type="line"/>
      <point x="548" y="91" type="line"/>
    </contour>
    <contour>
      <point x="692" y="0" type="line"/>
      <point x="832" y="0" type="line"/>
      <point x="833" y="55" type="line"/>
      <point x="695" y="79" type="line"/>
    </contour>
    <contour>
      <point x="428" y="325" type="move" name="center"/>
    </contour>
    <contour>
      <point x="428" y="650" type="move" name="top"/>
    </contour>
  </outline>
</glyph>
<glyph name="I" format="1">
  <advance width="428"/>
  <unicode hex="0049"/>
  <outline>
    <contour>
      <point x="317" y="0" type="line"/>
      <point x="317" y="666" type="line"/>
      <point x="107" y="666" type="line"/>
      <point x="107" y="0" type="line"/>
    </contour>
    <contour>
      <point x="122" y="0" type="line"/>
      <point x="121" y="91" type="line"/>
      <point x="83" y="73"/>
      <point x="50" y="54"/>
      <point x="22" y="32" type="curve"/>
      <point x="28" y="0" type="line"/>
    </contour>
    <contour>
      <point x="405" y="0" type="line"/>
      <point x="406" y="55" type="line"/>
      <point x="268" y="79" type="line"/>
      <point x="265" y="0" type="line"/>
    </contour>
    <contour>
      <point x="31" y="666" type="line"/>
      <point x="30" y="611" type="line"/>
      <point x="168" y="587" type="line"/>
      <point x="171" y="666" type="line"/>
    </contour>
    <contour>
      <point x="302" y="666" type="line"/>
      <point x="303" y="575" type="line"/>
      <point x="341" y="593"/>
      <point x="374" y="612"/>
      <point x="402" y="634" type="curve"/>
      <point x="396" y="666" type="line"/>
    </contour>
    <contour>
      <point x="350" y="0" type="move" name="ogonek"/>
    </contour>
    <contour>
      <point x="213" y="650" type="move" name="top"/>
    </contour>
  </outline>
</glyph>
<glyph name="J" format="1">
  <advance width="425"/>
  <unicode hex="004A"/>
  <outline>
    <contour>
      <point x="-31" y="-131" type="curve"/>
      <point x="3" y="-190" type="line"/>
      <point x="196" y="-132"/>
      <point x="321" y="-47"/>
      <point x="321" y="177" type="curve"/>
      <point x="321" y="666" type="line"/>
      <point x="112" y="666" type="line"/>
      <point x="112" y="152" type="line" smooth="yes"/>
      <point x="112" y="-16"/>
      <point x="53" y="-78"/>
    </contour>
    <contour>
      <point x="31" y="611" type="line"/>
      <point x="169" y="587" type="line"/>
      <point x="172" y="666" type="line"/>
      <point x="32" y="666" type="line"/>
    </contour>
    <contour>
      <point x="307" y="666" type="line"/>
      <point x="308" y="575" type="line"/>
      <point x="346" y="593"/>
      <point x="379" y="612"/>
      <point x="407" y="634" type="curve"/>
      <point x="401" y="666" type="line"/>
    </contour>
    <contour>
      <point x="221" y="650" type="move" name="top"/>
    </contour>
  </outline>
</glyph>
<glyph name="K" format="1">
  <advance width="787"/>
  <unicode hex="004B"/>
  <outline>
    <contour>
      <point x="575" y="666" type="line"/>
      <point x="246" y="313" type="line"/>
      <point x="268" y="194" type="line"/>
      <point x="667" y="613" type="line"/>
      <point x="675" y="666" type="line"/>
    </contour>
    <contour>
      <point x="83" y="73"/>
      <point x="50" y="54"/>
      <point x="22" y="32" type="curve"/>
      <point x="28" y="0" type="line"/>
      <point x="122" y="0" type="line"/>
      <point x="121" y="91" type="line"/>
    </contour>
    <contour>
      <point x="249" y="0" type="line"/>
      <point x="389" y="0" type="line"/>
      <point x="390" y="55" type="line"/>
      <point x="252" y="79" type="line"/>
    </contour>
    <contour>
      <point x="107" y="666" type="line"/>
      <point x="107" y="0" type="line"/>
      <point x="317" y="0" type="line"/>
      <point x="317" y="666" type="line"/>
    </contour>
    <contour>
      <point x="302" y="666" type="line"/>
      <point x="303" y="575" type="line"/>
      <point x="341" y="593"/>
      <point x="374" y="612"/>
      <point x="402" y="634" type="curve"/>
      <point x="396" y="666" type="line"/>
    </contour>
    <contour>
      <point x="452" y="666" type="line"/>
      <point x="451" y="611" type="line"/>
      <point x="589" y="587" type="line"/>
      <point x="592" y="666" type="line"/>
    </contour>
    <contour>
      <point x="614" y="666" type="line"/>
      <point x="615" y="575" type="line"/>
      <point x="653" y="591"/>
      <point x="710" y="612"/>
      <point x="738" y="634" type="curve"/>
      <point x="732" y="666" type="line"/>
    </contour>
    <contour>
      <point x="31" y="666" type="line"/>
      <point x="30" y="611" type="line"/>
      <point x="168" y="587" type="line"/>
      <point x="171" y="666" type="line"/>
    </contour>
    <contour>
      <point x="324" y="277" type="line"/>
      <point x="518" y="0" type="line"/>
      <point x="770" y="0" type="line"/>
      <point x="468" y="409" type="line"/>
    </contour>
    <contour>
      <point x="650" y="0" type="line"/>
      <point x="781" y="0" type="line"/>
      <point x="782" y="55" type="line"/>
      <point x="652" y="85" type="line"/>
    </contour>
    <contour>
      <point x="400" y="650" type="move" name="top"/>
    </contour>
    <contour>
      <point x="408" y="0" type="move" name="bottom"/>
    </contour>
  </outline>
</glyph>
<glyph name="L" format="1">
  <advance width="643"/>
  <unicode hex="004C"/>
  <outline>
    <contour>
      <point x="31" y="666" type="line"/>
      <point x="30" y="611" type="line"/>
      <point x="168" y="587" type="line"/>
      <point x="171" y="666" type="line"/>
    </contour>
    <contour>
      <point x="302" y="666" type="line"/>
      <point x="303" y="575" type="line"/>
      <point x="341" y="593"/>
      <point x="374" y="612"/>
      <point x="402" y="634" type="curve"/>
      <point x="396" y="666" type="line"/>
    </contour>
    <contour>
      <point x="83" y="73"/>
      <point x="50" y="54"/>
      <point x="22" y="32" type="curve"/>
      <point x="28" y="0" type="line"/>
      <point x="122" y="0" type="line"/>
      <point x="121" y="91" type="line"/>
    </contour>
    <contour>
      <point x="290" y="98" type="line"/>
      <point x="215" y="0" type="line"/>
      <point x="628" y="0" type="line"/>
      <point x="611" y="135" type="line"/>
    </contour>
    <contour>
      <point x="107" y="666" type="line"/>
      <point x="107" y="0" type="line"/>
      <point x="317" y="0" type="line"/>
      <point x="317" y="666" type="line"/>
    </contour>
    <contour>
      <point x="438" y="8" type="line"/>
      <point x="629" y="0" type="line"/>
      <point x="642" y="73"/>
      <point x="646" y="189"/>
      <point x="644" y="261" type="curve"/>
      <point x="525" y="272" type="line"/>
    </contour>
    <contour>
      <point x="230" y="650" type="move" name="top"/>
    </contour>
    <contour>
      <point x="332" y="0" type="move" name="bottom"/>
    </contour>
    <contour>
      <point x="625" y="650" type="move" name="topright"/>
    </contour>
  </outline>
</glyph>
<glyph name="M" format="1">
  <advance width="1008"/>
  <unicode hex="004D"/>
  <outline>
    <contour>
      <point x="181" y="605" type="line"/>
      <point x="402" y="-7" type="line"/>
      <point x="544" y="16" type="line"/>
      <point x="544" y="136" type="line"/>
      <point x="361" y="650" type="line"/>
    </contour>
    <contour>
      <point x="22" y="32" type="curve"/>
      <point x="28" y="0" type="line"/>
      <point x="122" y="0" type="line"/>
      <point x="121" y="91" type="line"/>
      <point x="83" y="73"/>
      <point x="50" y="54"/>
    </contour>
    <contour>
      <point x="199" y="87" type="line"/>
      <point x="196" y="0" type="line"/>
      <point x="336" y="0" type="line"/>
      <point x="337" y="47" type="line" smooth="yes"/>
    </contour>
    <contour>
      <point x="121" y="650" type="line"/>
      <point x="108" y="0" type="line"/>
      <point x="251" y="0" type="line"/>
      <point x="253" y="264" type="line"/>
      <point x="233" y="519" type="line"/>
      <point x="362" y="650" type="line"/>
    </contour>
    <contour>
      <point x="611" y="32" type="curve"/>
      <point x="617" y="0" type="line"/>
      <point x="711" y="0" type="line"/>
      <point x="710" y="91" type="line"/>
      <point x="672" y="73"/>
      <point x="639" y="54"/>
    </contour>
    <contour>
      <point x="34" y="603" type="line"/>
      <point x="172" y="563" type="line"/>
      <point x="175" y="650" type="line"/>
      <point x="35" y="650" type="line"/>
    </contour>
    <contour>
      <point x="457" y="36" type="line"/>
      <point x="544" y="16" type="line"/>
      <point x="773" y="613" type="line"/>
      <point x="689" y="650" type="line"/>
    </contour>
    <contour>
      <point x="848" y="87" type="line"/>
      <point x="845" y="0" type="line"/>
      <point x="985" y="0" type="line"/>
      <point x="986" y="47" type="line"/>
    </contour>
    <contour>
      <point x="695" y="264" type="line"/>
      <point x="696" y="0" type="line"/>
      <point x="897" y="0" type="line"/>
      <point x="887" y="650" type="line"/>
      <point x="689" y="650" type="line"/>
      <point x="715" y="523" type="line"/>
    </contour>
    <contour>
      <point x="878" y="650" type="line"/>
      <point x="879" y="559" type="line"/>
      <point x="917" y="577"/>
      <point x="950" y="596"/>
      <point x="978" y="618" type="curve"/>
      <point x="972" y="650" type="line"/>
    </contour>
  </outline>
</glyph>
<glyph name="N" format="1">
  <advance width="802"/>
  <unicode hex="004E"/>
  <outline>
    <contour>
      <point x="121" y="568" type="line"/>
      <point x="516" y="-14" type="line"/>
      <point x="646" y="13" type="line"/>
      <point x="672" y="99" type="line"/>
      <point x="298" y="666" type="line"/>
      <point x="122" y="666" type="line"/>
    </contour>
    <contour>
      <point x="22" y="32" type="curve"/>
      <point x="28" y="0" type="line"/>
      <point x="122" y="0" type="line"/>
      <point x="121" y="91" type="line"/>
      <point x="83" y="73"/>
      <point x="50" y="54"/>
    </contour>
    <contour>
      <point x="199" y="79" type="line"/>
      <point x="196" y="0" type="line"/>
      <point x="336" y="0" type="line"/>
      <point x="337" y="55" type="line"/>
    </contour>
    <contour>
      <point x="107" y="666" type="line"/>
      <point x="107" y="0" type="line"/>
      <point x="249" y="0" type="line"/>
      <point x="249" y="280" type="line"/>
      <point x="221" y="534" type="line"/>
      <point x="299" y="666" type="line"/>
    </contour>
    <contour>
      <point x="32" y="611" type="line"/>
      <point x="154" y="587" type="line"/>
      <point x="157" y="666" type="line"/>
      <point x="33" y="666" type="line"/>
    </contour>
    <contour>
      <point x="597" y="42" type="line"/>
      <point x="516" y="-14" type="line"/>
      <point x="695" y="0" type="line"/>
      <point x="703" y="666" type="line"/>
      <point x="561" y="666" type="line"/>
      <point x="561" y="370" type="line"/>
    </contour>
    <contour>
      <point x="463" y="611" type="line"/>
      <point x="601" y="587" type="line"/>
      <point x="604" y="666" type="line"/>
      <point x="464" y="666" type="line"/>
    </contour>
    <contour>
      <point x="680" y="666" type="line"/>
      <point x="681" y="575" type="line"/>
      <point x="719" y="593"/>
      <point x="752" y="612"/>
      <point x="780" y="634" type="curve"/>
      <point x="774" y="666" type="line"/>
    </contour>
    <contour>
      <point x="395" y="0" type="move" name="bottom"/>
    </contour>
    <contour>
      <point x="381" y="650" type="move" name="top"/>
    </contour>
  </outline>
</glyph>
<glyph name="O" format="1">
  <advance width="698"/>
  <unicode hex="004F"/>
  <outline>
    <contour>
      <point x="354" y="-20" type="curve"/>
      <point x="532" y="-20"/>
      <point x="690" y="94"/>
      <point x="690" y="323" type="curve"/>
      <point x="690" y="554"/>
      <point x="531" y="686"/>
      <point x="347" y="686" type="curve"/>
      <point x="159" y="686"/>
      <point x="8" y="548"/>
      <point x="8" y="328" type="curve"/>
      <point x="8" y="99"/>
      <point x="171" y="-20"/>
    </contour>
    <contour>
      <point x="372" y="85" type="curve"/>
      <point x="282" y="85"/>
      <point x="227" y="186"/>
      <point x="227" y="350" type="curve"/>
      <point x="227" y="460"/>
      <point x="252" y="536"/>
      <point x="283" y="568" type="curve"/>
      <point x="298" y="574"/>
      <point x="316" y="579"/>
      <point x="334" y="579" type="curve"/>
      <point x="429" y="579"/>
      <point x="471" y="453"/>
      <point x="471" y="321" type="curve"/>
      <point x="471" y="220"/>
      <point x="446" y="133"/>
      <point x="409" y="93" type="curve"/>
      <point x="399" y="89"/>
      <point x="389" y="85"/>
    </contour>
    <contour>
      <point x="350" y="650" type="move" name="top"/>
    </contour>
  </outline>
</glyph>
<glyph name="P" format="1">
  <advance width="680"/>
  <unicode hex="0050"/>
  <outline>
    <contour>
      <point x="285" y="349" type="curve"/>
      <point x="282" y="229" type="line"/>
      <point x="400" y="230" type="line" smooth="yes"/>
      <point x="558" y="231"/>
      <point x="671" y="321"/>
      <point x="671" y="446" type="curve"/>
      <point x="671" y="563"/>
      <point x="574" y="676"/>
      <point x="391" y="674" type="curve"/>
      <point x="24" y="666" type="line"/>
      <point x="299" y="561" type="line"/>
      <point x="416" y="577" type="line"/>
      <point x="445" y="556"/>
      <point x="460" y="494"/>
      <point x="460" y="448" type="curve"/>
      <point x="460" y="387"/>
      <point x="430" y="333"/>
      <point x="363" y="333" type="curve"/>
      <point x="343" y="333"/>
      <point x="314" y="337"/>
    </contour>
    <contour>
      <point x="22" y="32" type="curve"/>
      <point x="28" y="0" type="line"/>
      <point x="122" y="0" type="line"/>
      <point x="121" y="91" type="line"/>
      <point x="83" y="73"/>
      <point x="50" y="54"/>
    </contour>
    <contour>
      <point x="295" y="79" type="line"/>
      <point x="292" y="0" type="line"/>
      <point x="432" y="0" type="line"/>
      <point x="433" y="55" type="line"/>
    </contour>
    <contour>
      <point x="99" y="666" type="line"/>
      <point x="99" y="0" type="line"/>
      <point x="309" y="0" type="line"/>
      <point x="309" y="666" type="line"/>
    </contour>
    <contour>
      <point x="23" y="611" type="line"/>
      <point x="153" y="589" type="line"/>
      <point x="155" y="666" type="line"/>
      <point x="24" y="666" type="line"/>
    </contour>
  </outline>
</glyph>
<glyph name="Q" format="1">
  <advance width="735"/>
  <unicode hex="0051"/>
  <outline>
    <contour>
      <point x="336" y="-3" type="line"/>
      <point x="640" y="-202" type="line"/>
      <point x="735" y="-32" type="line"/>
      <point x="371" y="50" type="line"/>
    </contour>
    <component base="O"/>
  </outline>
</glyph>
<glyph name="S" format="1">
  <advance width="622"/>
  <unicode hex="0053"/>
  <outline>
    <contour>
      <point x="159" y="686"/>
      <point x="48" y="597"/>
      <point x="48" y="473" type="curve" smooth="yes"/>
      <point x="48" y="355"/>
      <point x="148" y="300"/>
      <point x="238" y="258" type="curve" smooth="yes"/>
      <point x="317" y="222"/>
      <point x="383" y="196"/>
      <point x="383" y="140" type="curve" smooth="yes"/>
      <point x="383" y="117"/>
      <point x="369" y="91"/>
      <point x="331" y="74" type="curve"/>
      <point x="249" y="81"/>
      <point x="164" y="112"/>
      <point x="101" y="177" type="curve"/>
      <point x="50" y="39" type="line"/>
      <point x="126" y="2"/>
      <point x="235" y="-19"/>
      <point x="315" y="-19" type="curve" smooth="yes"/>
      <point x="464" y="-19"/>
      <point x="589" y="55"/>
      <point x="589" y="190" type="curve" smooth="yes"/>
      <point x="589" y="315"/>
      <point x="494" y="369"/>
      <point x="404" y="411" type="curve" smooth="yes"/>
      <point x="320" y="450"/>
      <point x="243" y="475"/>
      <point x="243" y="526" type="curve" smooth="yes"/>
      <point x="243" y="548"/>
      <point x="256" y="578"/>
      <point x="287" y="596" type="curve"/>
      <point x="370" y="590"/>
      <point x="442" y="561"/>
      <point x="503" y="495" type="curve"/>
      <point x="559" y="645" type="line"/>
      <point x="501" y="668"/>
      <point x="405" y="686"/>
      <point x="329" y="686" type="curve" smooth="yes"/>
    </contour>
    <contour>
      <point x="535" y="447" type="line"/>
      <point x="550" y="506"/>
      <point x="556" y="583"/>
      <point x="559" y="645" type="curve"/>
      <point x="358" y="638" type="line"/>
      <point x="430" y="447" type="line"/>
    </contour>
    <contour>
      <point x="57" y="190"/>
      <point x="46" y="85"/>
      <point x="51" y="39" type="curve"/>
      <point x="276" y="28" type="line"/>
      <point x="161" y="241" type="line"/>
      <point x="71" y="241" type="line"/>
    </contour>
    <contour>
      <point x="323" y="650" type="move" name="top"/>
    </contour>
    <contour>
      <point x="312" y="0" type="move" name="bottom"/>
    </contour>
  </outline>
</glyph>
<glyph name="U" format="1">
  <advance width="773"/>
  <unicode hex="0055"/>
  <outline>
    <contour>
      <point x="540" y="666" type="line"/>
      <point x="540" y="295" type="line" smooth="yes"/>
      <point x="540" y="210"/>
      <point x="529" y="146"/>
      <point x="506" y="114" type="curve"/>
      <point x="486" y="97"/>
      <point x="460" y="87"/>
      <point x="427" y="87" type="curve" smooth="yes"/>
      <point x="353" y="87"/>
      <point x="293" y="134"/>
      <point x="293" y="257" type="curve" smooth="yes"/>
      <point x="293" y="666" type="line"/>
      <point x="83" y="666" type="line"/>
      <point x="83" y="307" type="line" smooth="yes"/>
      <point x="83" y="81"/>
      <point x="225" y="-20"/>
      <point x="404" y="-20" type="curve" smooth="yes"/>
      <point x="552" y="-20"/>
      <point x="682" y="51"/>
      <point x="682" y="289" type="curve" smooth="yes"/>
      <point x="682" y="666" type="line"/>
    </contour>
    <contour>
      <point x="7" y="666" type="line"/>
      <point x="6" y="611" type="line"/>
      <point x="144" y="587" type="line"/>
      <point x="147" y="666" type="line"/>
    </contour>
    <contour>
      <point x="278" y="666" type="line"/>
      <point x="279" y="575" type="line"/>
      <point x="317" y="593"/>
      <point x="350" y="612"/>
      <point x="378" y="634" type="curve"/>
      <point x="372" y="666" type="line"/>
    </contour>
    <contour>
      <point x="461" y="666" type="line"/>
      <point x="460" y="611" type="line"/>
      <point x="598" y="587" type="line"/>
      <point x="601" y="666" type="line"/>
    </contour>
    <contour>
      <point x="667" y="666" type="line"/>
      <point x="668" y="575" type="line"/>
      <point x="706" y="593"/>
      <point x="739" y="612"/>
      <point x="767" y="634" type="curve"/>
      <point x="761" y="666" type="line"/>
    </contour>
    <contour>
      <point x="551" y="0" type="move" name="ogonek"/>
    </contour>
    <contour>
      <point x="385" y="650" type="move" name="top"/>
    </contour>
  </outline>
</glyph>
<glyph name="W" format="1">
  <advance width="1049"/>
  <unicode hex="0057"/>
  <outline>
    <contour>
      <point x="5" y="666" type="line"/>
      <point x="4" y="611" type="line"/>
      <point x="142" y="587" type="line"/>
      <point x="145" y="666" type="line"/>
    </contour>
    <contour>
      <point x="258" y="666" type="line"/>
      <point x="263" y="575" type="line"/>
      <point x="301" y="593"/>
      <point x="334" y="612"/>
      <point x="362" y="634" type="curve"/>
      <point x="356" y="666" type="line"/>
    </contour>
    <contour>
      <point x="49" y="666" type="line"/>
      <point x="276" y="-18" type="line"/>
      <point x="343" y="-13"/>
      <point x="401" y="-7"/>
      <point x="451" y="2" type="curve"/>
      <point x="405" y="143" type="line"/>
      <point x="368" y="144" type="line"/>
      <point x="363" y="294" type="line"/>
      <point x="262" y="666" type="line"/>
    </contour>
    <contour>
      <point x="344" y="37" type="line"/>
      <point x="451" y="2" type="line"/>
      <point x="507" y="185" type="line"/>
      <point x="534" y="314" type="line"/>
      <point x="552" y="315" type="line"/>
      <point x="602" y="487" type="line"/>
      <point x="486" y="535" type="line"/>
    </contour>
    <contour>
      <point x="428" y="623" type="line"/>
      <point x="636" y="-18" type="line"/>
      <point x="703" y="-13"/>
      <point x="761" y="-7"/>
      <point x="811" y="2" type="curve"/>
      <point x="773" y="143" type="line"/>
      <point x="731" y="144" type="line"/>
      <point x="723" y="315" type="line"/>
      <point x="623" y="664" type="line"/>
    </contour>
    <contour>
      <point x="811" y="2" type="line"/>
      <point x="1003" y="666" type="line"/>
      <point x="873" y="666" type="line"/>
      <point x="703" y="37" type="line"/>
    </contour>
    <contour>
      <point x="762" y="666" type="line"/>
      <point x="761" y="611" type="line"/>
      <point x="899" y="587" type="line"/>
      <point x="902" y="666" type="line"/>
    </contour>
    <contour>
      <point x="949" y="666" type="line"/>
      <point x="954" y="575" type="line"/>
      <point x="992" y="593"/>
      <point x="1025" y="612"/>
      <point x="1053" y="634" type="curve"/>
      <point x="1047" y="666" type="line"/>
    </contour>
    <contour>
      <point x="526" y="650" type="move" name="top"/>
    </contour>
  </outline>
</glyph>
<glyph name="Y" format="1">
  <advance width="702"/>
  <unicode hex="0059"/>
  <outline>
    <contour>
      <point x="25" y="666" type="line"/>
      <point x="254" y="234" type="line"/>
      <point x="419" y="322" type="line"/>
      <point x="398" y="364" type="line"/>
      <point x="372" y="363" type="line"/>
      <point x="344" y="452" type="line"/>
      <point x="230" y="666" type="line"/>
    </contour>
    <contour>
      <point x="166" y="32" type="curve"/>
      <point x="172" y="0" type="line"/>
      <point x="266" y="0" type="line"/>
      <point x="265" y="91" type="line"/>
      <point x="227" y="73"/>
      <point x="194" y="54"/>
    </contour>
    <contour>
      <point x="399" y="79" type="line"/>
      <point x="396" y="0" type="line"/>
      <point x="536" y="0" type="line"/>
      <point x="537" y="55" type="line"/>
    </contour>
    <contour>
      <point x="250" y="334" type="line"/>
      <point x="250" y="0" type="line"/>
      <point x="452" y="0" type="line"/>
      <point x="452" y="334" type="line"/>
    </contour>
    <contour>
      <point x="-4" y="611" type="line"/>
      <point x="134" y="587" type="line"/>
      <point x="137" y="666" type="line"/>
      <point x="-3" y="666" type="line"/>
    </contour>
    <contour>
      <point x="207" y="666" type="line"/>
      <point x="212" y="575" type="line"/>
      <point x="250" y="593"/>
      <point x="283" y="612"/>
      <point x="311" y="634" type="curve"/>
      <point x="305" y="666" type="line"/>
    </contour>
    <contour>
      <point x="344" y="293" type="line"/>
      <point x="437" y="248" type="line"/>
      <point x="661" y="666" type="line"/>
      <point x="532" y="666" type="line"/>
    </contour>
    <contour>
      <point x="430" y="611" type="line"/>
      <point x="568" y="587" type="line"/>
      <point x="571" y="666" type="line"/>
      <point x="431" y="666" type="line"/>
    </contour>
    <contour>
      <point x="602" y="666" type="line"/>
      <point x="607" y="575" type="line"/>
      <point x="645" y="593"/>
      <point x="678" y="612"/>
      <point x="706" y="634" type="curve"/>
      <point x="700" y="666" type="line"/>
    </contour>
    <contour>
      <point x="370" y="650" type="move" name="top"/>
    </contour>
  </outline>
</glyph>
<glyph name="Z" format="1">
  <advance width="689"/>
  <unicode hex="005A"/>
  <outline>
    <contour>
      <point x="104" y="548" type="line"/>
      <point x="574" y="588" type="line"/>
      <point x="603" y="666" type="line"/>
      <point x="67" y="666" type="line"/>
    </contour>
    <contour>
      <point x="537" y="623" type="line"/>
      <point x="432" y="611" type="line"/>
      <point x="31" y="90" type="line"/>
      <point x="89" y="-1" type="line"/>
      <point x="147" y="39" type="line"/>
      <point x="241" y="47" type="line"/>
      <point x="648" y="578" type="line"/>
      <point x="603" y="666" type="line"/>
    </contour>
    <contour>
      <point x="154" y="97" type="line"/>
      <point x="89" y="-1" type="line"/>
      <point x="627" y="0" type="line"/>
      <point x="610" y="118" type="line"/>
    </contour>
    <contour>
      <point x="251" y="602" type="line"/>
      <point x="67" y="666" type="line"/>
      <point x="60" y="588"/>
      <point x="60" y="491"/>
      <point x="73" y="416" type="curve"/>
      <point x="187" y="416" type="line"/>
    </contour>
    <contour>
      <point x="432" y="17" type="line"/>
      <point x="627" y="0" type="line"/>
      <point x="641" y="86"/>
      <point x="650" y="151"/>
      <point x="653" y="235" type="curve"/>
      <point x="531" y="252" type="line"/>
    </contour>
  </outline>
</glyph>
<glyph name="bracketleft" format="1">
  <advance width="440"/>
  <unicode hex="005B"/>
  <outline>
    <contour>
      <point x="84" y="712" type="line"/>
      <point x="84" y="-122" type="line"/>
      <point x="408" y="-122" type="line"/>
      <point x="414" y="-58" type="line"/>
      <point x="284" y="-20" type="line"/>
      <point x="284" y="610" type="line"/>
      <point x="414" y="648" type="line"/>
      <point x="408" y="712" type="line"/>
    </contour>
  </outline>
</glyph>
<glyph name="backslash" format="1">
  <advance width="417"/>
  <unicode hex="005C"/>
  <outline>
    <contour>
      <point x="-39" y="681" type="line"/>
      <point x="267" y="-126" type="line"/>
      <point x="415" y="-70" type="line"/>
      <point x="107" y="739" type="line"/>
    </contour>
  </outline>
</glyph>
<glyph name="bracketright" format="1">
  <advance width="440"/>
  <unicode hex="005D"/>
  <outline>
    <contour>
      <point x="26" y="-58" type="line"/>
      <point x="32" y="-122" type="line"/>
      <point x="356" y="-122" type="line"/>
      <point x="356" y="712" type="line"/>
      <point x="32" y="712" type="line"/>
      <point x="26" y="648" type="line"/>
      <point x="156" y="610" type="line"/>
      <point x="156" y="-20" type="line"/>
    </contour>
  </outline>
</glyph>
<glyph name="underscore" format="1">
  <advance width="532"/>
  <unicode hex="005F"/>
  <outline>
    <contour>
      <point x="10" y="-124" type="line"/>
      <point x="10" y="-221" type="line"/>
      <point x="522" y="-221" type="line"/>
      <point x="522" y="-124" type="line"/>
    </contour>
  </outline>
</glyph>
<glyph name="b" format="1">
  <advance width="589"/>
  <unicode hex="0062"/>
  <outline>
    <contour>
      <point x="274" y="-18" type="curve"/>
      <point x="484" y="-18"/>
      <point x="576" y="125"/>
      <point x="576" y="266" type="curve"/>
      <point x="576" y="398"/>
      <point x="496" y="516"/>
      <point x="356" y="494" type="curve"/>
      <point x="178" y="360" type="line"/>
      <point x="187" y="328" type="line"/>
      <point x="222" y="349"/>
      <point x="251" y="363"/>
      <point x="278" y="363" type="curve"/>
      <point x="337" y="363"/>
      <point x="369" y="302"/>
      <point x="369" y="232" type="curve"/>
      <point x="369" y="177"/>
      <point x="350" y="119"/>
      <point x="316" y="84" type="curve"/>
      <point x="256" y="76"/>
      <point x="203" y="96"/>
      <point x="160" y="145" type="curve"/>
      <point x="52" y="19" type="line"/>
      <point x="125" y="-4"/>
      <point x="208" y="-18"/>
    </contour>
    <contour>
      <point x="53" y="679" type="line"/>
      <point x="53" y="19" type="line"/>
      <point x="254" y="40" type="line"/>
      <point x="254" y="683" type="line"/>
      <point x="195" y="737" type="line"/>
    </contour>
    <contour>
      <point x="-22" y="648" type="line"/>
      <point x="103" y="617" type="line"/>
      <point x="190" y="651" type="line"/>
      <point x="195" y="737" type="line"/>
      <point x="115" y="733"/>
      <point x="40" y="720"/>
      <point x="-24" y="698" type="curve"/>
    </contour>
  </outline>
</glyph>
<glyph name="d" format="1">
  <advance width="609"/>
  <unicode hex="0064"/>
  <outline>
    <contour>
      <point x="604" y="110" type="line"/>
      <point x="580" y="109"/>
      <point x="567" y="108"/>
      <point x="551" y="108" type="curve" smooth="yes"/>
      <point x="536" y="108"/>
      <point x="527" y="120"/>
      <point x="527" y="134" type="curve" smooth="yes"/>
      <point x="527" y="683" type="line"/>
      <point x="468" y="737" type="line"/>
      <point x="326" y="679" type="line"/>
      <point x="326" y="73" type="line"/>
      <point x="345" y="70" type="line"/>
      <point x="372" y="14"/>
      <point x="417" y="-17"/>
      <point x="463" y="-17" type="curve"/>
      <point x="607" y="65" type="line"/>
    </contour>
    <contour>
      <point x="415" y="168" type="line"/>
      <point x="372" y="137"/>
      <point x="330" y="124"/>
      <point x="303" y="124" type="curve" smooth="yes"/>
      <point x="245" y="124"/>
      <point x="217" y="184"/>
      <point x="217" y="254" type="curve" smooth="yes"/>
      <point x="217" y="310"/>
      <point x="235" y="369"/>
      <point x="268" y="401" type="curve"/>
      <point x="332" y="397"/>
      <point x="386" y="365"/>
      <point x="423" y="315" type="curve"/>
      <point x="445" y="456" type="line"/>
      <point x="388" y="485"/>
      <point x="335" y="499"/>
      <point x="279" y="499" type="curve" smooth="yes"/>
      <point x="94" y="499"/>
      <point x="8" y="367"/>
      <point x="8" y="234" type="curve" smooth="yes"/>
      <point x="8" y="102"/>
      <point x="89" y="-19"/>
      <point x="229" y="-17" type="curve"/>
      <point x="407" y="119" type="line"/>
    </contour>
    <contour>
      <point x="376" y="617" type="line"/>
      <point x="463" y="651" type="line"/>
      <point x="468" y="737" type="line"/>
      <point x="388" y="733"/>
      <point x="313" y="720"/>
      <point x="249" y="698" type="curve"/>
      <point x="251" y="648" type="line"/>
    </contour>
    <contour>
      <point x="54" y="47" type="move" name="center"/>
    </contour>
    <contour>
      <point x="104" y="130" type="move" name="topright"/>
    </contour>
  </outline>
</glyph>
<glyph name="f" format="1">
  <advance width="408"/>
  <unicode hex="0066"/>
  <outline>
    <contour>
      <point x="85" y="526" type="curve"/>
      <point x="85" y="0" type="line"/>
      <point x="287" y="0" type="line"/>
      <point x="287" y="437" type="line"/>
      <point x="288" y="467" type="line"/>
      <point x="211" y="634" type="line"/>
      <point x="270" y="603"/>
      <point x="319" y="568"/>
      <point x="361" y="527" type="curve"/>
      <point x="463" y="702" type="line"/>
      <point x="410" y="734"/>
      <point x="349" y="751"/>
      <point x="302" y="751" type="curve"/>
      <point x="182" y="751"/>
      <point x="85" y="651"/>
    </contour>
    <contour>
      <point x="19" y="35" type="curve"/>
      <point x="20" y="0" type="line"/>
      <point x="143" y="0" type="line"/>
      <point x="151" y="88" type="line"/>
      <point x="109" y="79"/>
      <point x="61" y="61"/>
    </contour>
    <contour>
      <point x="247" y="107" type="curve"/>
      <point x="214" y="0" type="line"/>
      <point x="377" y="0" type="line"/>
      <point x="378" y="49" type="line"/>
      <point x="336" y="76"/>
      <point x="291" y="94"/>
    </contour>
    <contour>
      <point x="6" y="406" type="curve"/>
      <point x="7" y="350" type="line"/>
      <point x="228" y="351" type="line"/>
      <point x="231" y="426" type="line"/>
      <point x="149" y="499" type="line"/>
      <point x="102" y="469"/>
      <point x="54" y="439"/>
    </contour>
    <contour>
      <point x="230" y="474" type="line"/>
      <point x="230" y="349" type="line"/>
      <point x="348" y="349" type="line"/>
      <point x="400" y="418" type="line"/>
      <point x="399" y="474" type="line"/>
    </contour>
  </outline>
</glyph>
<glyph name="h" format="1">
  <advance width="658"/>
  <unicode hex="0068"/>
  <outline>
    <contour>
      <point x="133" y="617" type="line"/>
      <point x="220" y="651" type="line"/>
      <point x="225" y="737" type="line"/>
      <point x="145" y="733"/>
      <point x="70" y="720"/>
      <point x="6" y="698" type="curve"/>
      <point x="8" y="648" type="line"/>
    </contour>
    <contour>
      <point x="83" y="0" type="line"/>
      <point x="284" y="0" type="line"/>
      <point x="284" y="683" type="line"/>
      <point x="225" y="737" type="line"/>
      <point x="83" y="679" type="line"/>
    </contour>
    <contour>
      <point x="132" y="0" type="line"/>
      <point x="140" y="88" type="line"/>
      <point x="98" y="79"/>
      <point x="50" y="61"/>
      <point x="8" y="35" type="curve"/>
      <point x="9" y="0" type="line"/>
    </contour>
    <contour>
      <point x="336" y="0" type="line"/>
      <point x="337" y="49" type="line"/>
      <point x="295" y="80"/>
      <point x="250" y="102"/>
      <point x="206" y="115" type="curve"/>
      <point x="173" y="0" type="line"/>
    </contour>
    <contour>
      <point x="645" y="0" type="line"/>
      <point x="646" y="49" type="line"/>
      <point x="604" y="80"/>
      <point x="559" y="102"/>
      <point x="515" y="115" type="curve"/>
      <point x="482" y="0" type="line"/>
    </contour>
    <contour>
      <point x="381" y="0" type="line"/>
      <point x="582" y="0" type="line"/>
      <point x="582" y="294" type="line" smooth="yes"/>
      <point x="582" y="383"/>
      <point x="580" y="408"/>
      <point x="570" y="425" type="curve" smooth="yes"/>
      <point x="529" y="489"/>
      <point x="455" y="500"/>
      <point x="416" y="498" type="curve"/>
      <point x="331" y="468"/>
      <point x="242" y="405"/>
      <point x="162" y="315" type="curve"/>
      <point x="163" y="294" type="line"/>
      <point x="211" y="330"/>
      <point x="264" y="366"/>
      <point x="311" y="369" type="curve" smooth="yes"/>
      <point x="357" y="372"/>
      <point x="381" y="336"/>
      <point x="381" y="281" type="curve" smooth="yes"/>
    </contour>
  </outline>
</glyph>
<glyph name="i" format="1">
  <advance width="367"/>
  <unicode hex="0069"/>
  <outline>
    <contour>
      <point x="83" y="445" type="line"/>
      <point x="83" y="0" type="line"/>
      <point x="284" y="0" type="line"/>
      <point x="284" y="450" type="line"/>
      <point x="225" y="503" type="line"/>
    </contour>
    <contour>
      <point x="7" y="35" type="curve"/>
      <point x="8" y="0" type="line"/>
      <point x="131" y="0" type="line"/>
      <point x="139" y="88" type="line"/>
      <point x="97" y="79"/>
      <point x="49" y="61"/>
    </contour>
    <contour>
      <point x="209" y="115" type="curve"/>
      <point x="176" y="0" type="line"/>
      <point x="355" y="0" type="line"/>
      <point x="356" y="49" type="line"/>
      <point x="314" y="80"/>
      <point x="253" y="102"/>
    </contour>
    <contour>
      <point x="8" y="415" type="line"/>
      <point x="133" y="383" type="line"/>
      <point x="220" y="417" type="line"/>
      <point x="225" y="503" type="line"/>
      <point x="145" y="500"/>
      <point x="70" y="487"/>
      <point x="6" y="464" type="curve"/>
    </contour>
    <contour>
      <point x="194" y="543" type="curve"/>
      <point x="237" y="574"/>
      <point x="273" y="616"/>
      <point x="298" y="664" type="curve"/>
      <point x="266" y="711"/>
      <point x="222" y="752"/>
      <point x="172" y="780" type="curve"/>
      <point x="126" y="745"/>
      <point x="89" y="699"/>
      <point x="61" y="645" type="curve"/>
      <point x="95" y="603"/>
      <point x="142" y="567"/>
    </contour>
    <contour>
      <point x="48" y="0" type="move" name="ogonek"/>
    </contour>
  </outline>
</glyph>
<glyph name="k" format="1">
  <advance width="645"/>
  <unicode hex="006B"/>
  <outline>
    <contour>
      <point x="84" y="679" type="line"/>
      <point x="84" y="0" type="line"/>
      <point x="285" y="0" type="line"/>
      <point x="285" y="683" type="line"/>
      <point x="226" y="737" type="line"/>
    </contour>
    <contour>
      <point x="8" y="35" type="curve"/>
      <point x="9" y="0" type="line"/>
      <point x="132" y="0" type="line"/>
      <point x="140" y="88" type="line"/>
      <point x="98" y="79"/>
      <point x="50" y="61"/>
    </contour>
    <contour>
      <point x="410" y="-3" type="curve"/>
      <point x="624" y="-3" type="line"/>
      <point x="628" y="45" type="line"/>
      <point x="610" y="55"/>
      <point x="595" y="66"/>
      <point x="582" y="76" type="curve"/>
      <point x="444" y="268" type="line"/>
      <point x="270" y="208" type="line"/>
      <point x="370" y="49" type="line" smooth="yes"/>
      <point x="384" y="28"/>
      <point x="395" y="11"/>
    </contour>
    <contour>
      <point x="251" y="225" type="line"/>
      <point x="387" y="166" type="line"/>
      <point x="597" y="430" type="line"/>
      <point x="546" y="503" type="line"/>
      <point x="412" y="444" type="line"/>
    </contour>
    <contour>
      <point x="8" y="648" type="line"/>
      <point x="133" y="617" type="line"/>
      <point x="220" y="651" type="line"/>
      <point x="225" y="737" type="line"/>
      <point x="145" y="733"/>
      <point x="70" y="720"/>
      <point x="6" y="698" type="curve"/>
    </contour>
    <contour>
      <point x="327" y="415" type="line"/>
      <point x="454" y="384" type="line"/>
      <point x="541" y="418" type="line"/>
      <point x="546" y="503" type="line"/>
      <point x="466" y="500"/>
      <point x="389" y="487"/>
      <point x="325" y="464" type="curve"/>
    </contour>
    <contour>
      <point x="329" y="0" type="move" name="bottom"/>
    </contour>
  </outline>
</glyph>
<glyph name="l" format="1">
  <advance width="371"/>
  <unicode hex="006C"/>
  <outline>
    <contour>
      <point x="83" y="679" type="line"/>
      <point x="83" y="0" type="line"/>
      <point x="284" y="0" type="line"/>
      <point x="284" y="683" type="line"/>
      <point x="225" y="737" type="line"/>
    </contour>
    <contour>
      <point x="7" y="35" type="curve"/>
      <point x="8" y="0" type="line"/>
      <point x="131" y="0" type="line"/>
      <point x="139" y="88" type="line"/>
      <point x="97" y="79"/>
      <point x="49" y="61"/>
    </contour>
    <contour>
      <point x="209" y="115" type="curve"/>
      <point x="176" y="0" type="line"/>
      <point x="355" y="0" type="line"/>
      <point x="356" y="49" type="line"/>
      <point x="314" y="80"/>
      <point x="253" y="102"/>
    </contour>
    <contour>
      <point x="8" y="648" type="line"/>
      <point x="133" y="617" type="line"/>
      <point x="220" y="651" type="line"/>
      <point x="225" y="737" type="line"/>
      <point x="145" y="733"/>
      <point x="70" y="720"/>
      <point x="6" y="698" type="curve"/>
    </contour>
    <contour>
      <point x="195" y="0" type="move" name="bottom"/>
    </contour>
    <contour>
      <point x="177" y="735" type="move" name="top"/>
    </contour>
    <contour>
      <point x="358" y="468" type="move" name="topright"/>
    </contour>
  </outline>
</glyph>
<glyph name="m" format="1">
  <advance width="968"/>
  <unicode hex="006D"/>
  <outline>
    <contour>
      <point x="133" y="383" type="line"/>
      <point x="220" y="417" type="line"/>
      <point x="225" y="503" type="line"/>
      <point x="145" y="500"/>
      <point x="70" y="487"/>
      <point x="6" y="464" type="curve"/>
      <point x="8" y="415" type="line"/>
    </contour>
    <contour>
      <point x="83" y="0" type="line"/>
      <point x="284" y="0" type="line"/>
      <point x="284" y="442" type="line"/>
      <point x="225" y="503" type="line"/>
      <point x="83" y="445" type="line"/>
    </contour>
    <contour>
      <point x="380" y="0" type="line"/>
      <point x="581" y="0" type="line"/>
      <point x="581" y="294" type="line" smooth="yes"/>
      <point x="581" y="383"/>
      <point x="579" y="408"/>
      <point x="569" y="425" type="curve" smooth="yes"/>
      <point x="528" y="489"/>
      <point x="454" y="500"/>
      <point x="415" y="498" type="curve"/>
      <point x="330" y="468"/>
      <point x="241" y="405"/>
      <point x="161" y="315" type="curve"/>
      <point x="162" y="294" type="line"/>
      <point x="210" y="330"/>
      <point x="263" y="366"/>
      <point x="310" y="369" type="curve" smooth="yes"/>
      <point x="356" y="372"/>
      <point x="380" y="336"/>
      <point x="380" y="281" type="curve" smooth="yes"/>
    </contour>
    <contour>
      <point x="677" y="0" type="line"/>
      <point x="878" y="0" type="line"/>
      <point x="878" y="294" type="line" smooth="yes"/>
      <point x="878" y="383"/>
      <point x="876" y="408"/>
      <point x="866" y="425" type="curve" smooth="yes"/>
      <point x="825" y="489"/>
      <point x="751" y="500"/>
      <point x="712" y="498" type="curve"/>
      <point x="627" y="468"/>
      <point x="538" y="405"/>
      <point x="458" y="315" type="curve"/>
      <point x="459" y="294" type="line"/>
      <point x="507" y="330"/>
      <point x="560" y="366"/>
      <point x="607" y="369" type="curve" smooth="yes"/>
      <point x="653" y="372"/>
      <point x="677" y="336"/>
      <point x="677" y="281" type="curve" smooth="yes"/>
    </contour>
    <contour>
      <point x="132" y="0" type="line"/>
      <point x="140" y="88" type="line"/>
      <point x="98" y="79"/>
      <point x="50" y="61"/>
      <point x="8" y="35" type="curve"/>
      <point x="9" y="0" type="line"/>
    </contour>
    <contour>
      <point x="338" y="0" type="line"/>
      <point x="339" y="49" type="line"/>
      <point x="297" y="80"/>
      <point x="252" y="102"/>
      <point x="208" y="115" type="curve"/>
      <point x="175" y="0" type="line"/>
    </contour>
    <contour>
      <point x="635" y="0" type="line"/>
      <point x="637" y="49" type="line"/>
      <point x="595" y="80"/>
      <point x="549" y="102"/>
      <point x="505" y="115" type="curve"/>
      <point x="472" y="0" type="line"/>
    </contour>
    <contour>
      <point x="955" y="0" type="line"/>
      <point x="957" y="49" type="line"/>
      <point x="915" y="80"/>
      <point x="853" y="102"/>
      <point x="809" y="115" type="curve"/>
      <point x="776" y="0" type="line"/>
    </contour>
  </outline>
</glyph>
<glyph name="p" format="1">
  <advance width="618"/>
  <unicode hex="0070"/>
  <outline>
    <contour>
      <point x="351" y="-1" type="curve"/>
      <point x="524" y="-1"/>
      <point x="605" y="132"/>
      <point x="605" y="265" type="curve"/>
      <point x="605" y="398"/>
      <point x="525" y="516"/>
      <point x="385" y="494" type="curve"/>
      <point x="207" y="359" type="line"/>
      <point x="216" y="327" type="line"/>
      <point x="251" y="349"/>
      <point x="281" y="363"/>
      <point x="307" y="363" type="curve"/>
      <point x="364" y="363"/>
      <point x="391" y="300"/>
      <point x="391" y="232" type="curve"/>
      <point x="391" y="176"/>
      <point x="373" y="119"/>
      <point x="345" y="87" type="curve"/>
      <point x="287" y="87"/>
      <point x="216" y="107"/>
      <point x="180" y="136" type="curve"/>
      <point x="102" y="65" type="line"/>
      <point x="177" y="25"/>
      <point x="276" y="-1"/>
    </contour>
    <contour>
      <point x="16" y="-165" type="curve"/>
      <point x="17" y="-201" type="line"/>
      <point x="140" y="-201" type="line"/>
      <point x="148" y="-113" type="line"/>
      <point x="106" y="-130"/>
      <point x="58" y="-148"/>
    </contour>
    <contour>
      <point x="251" y="-86" type="curve"/>
      <point x="218" y="-201" type="line"/>
      <point x="381" y="-201" type="line"/>
      <point x="382" y="-152" type="line"/>
      <point x="340" y="-129"/>
      <point x="295" y="-107"/>
    </contour>
    <contour>
      <point x="82" y="445" type="line"/>
      <point x="82" y="-201" type="line"/>
      <point x="283" y="-201" type="line"/>
      <point x="283" y="450" type="line"/>
      <point x="224" y="503" type="line"/>
    </contour>
    <contour>
      <point x="8" y="415" type="line"/>
      <point x="133" y="383" type="line"/>
      <point x="229" y="455" type="line"/>
      <point x="225" y="503" type="line"/>
      <point x="145" y="500"/>
      <point x="70" y="487"/>
      <point x="6" y="464" type="curve"/>
    </contour>
  </outline>
</glyph>
<glyph name="q" format="1">
  <advance width="593"/>
  <unicode hex="0071"/>
  <outline>
    <contour>
      <point x="229" y="-10" type="curve"/>
      <point x="407" y="126" type="line"/>
      <point x="415" y="174" type="line"/>
      <point x="372" y="143"/>
      <point x="330" y="130"/>
      <point x="303" y="130" type="curve"/>
      <point x="246" y="130"/>
      <point x="217" y="190"/>
      <point x="217" y="260" type="curve"/>
      <point x="217" y="316"/>
      <point x="235" y="376"/>
      <point x="268" y="407" type="curve"/>
      <point x="332" y="404"/>
      <point x="386" y="371"/>
      <point x="423" y="322" type="curve"/>
      <point x="528" y="462" type="line"/>
      <point x="464" y="486"/>
      <point x="373" y="504"/>
      <point x="302" y="504" type="curve"/>
      <point x="102" y="504"/>
      <point x="8" y="377"/>
      <point x="8" y="239" type="curve"/>
      <point x="8" y="110"/>
      <point x="89" y="-13"/>
    </contour>
    <contour>
      <point x="223" y="-165" type="curve"/>
      <point x="224" y="-201" type="line"/>
      <point x="350" y="-201" type="line"/>
      <point x="355" y="-113" type="line"/>
      <point x="313" y="-122"/>
      <point x="265" y="-140"/>
    </contour>
    <contour>
      <point x="450" y="-86" type="curve"/>
      <point x="417" y="-201" type="line"/>
      <point x="580" y="-201" type="line"/>
      <point x="581" y="-152" type="line"/>
      <point x="539" y="-121"/>
      <point x="494" y="-99"/>
    </contour>
    <contour>
      <point x="327" y="418" type="line"/>
      <point x="327" y="-201" type="line"/>
      <point x="528" y="-201" type="line"/>
      <point x="528" y="462" type="line"/>
      <point x="356" y="424" type="line"/>
    </contour>
  </outline>
</glyph>
<glyph name="r" format="1">
  <advance width="517"/>
  <unicode hex="0072"/>
  <outline>
    <contour>
      <point x="133" y="383" type="line"/>
      <point x="220" y="417" type="line"/>
      <point x="225" y="503" type="line"/>
      <point x="145" y="500"/>
      <point x="70" y="487"/>
      <point x="6" y="464" type="curve"/>
      <point x="8" y="415" type="line"/>
    </contour>
    <contour>
      <point x="83" y="0" type="line"/>
      <point x="284" y="0" type="line"/>
      <point x="284" y="414" type="line"/>
      <point x="225" y="503" type="line"/>
      <point x="83" y="445" type="line"/>
    </contour>
    <contour>
      <point x="132" y="0" type="line"/>
      <point x="140" y="88" type="line"/>
      <point x="98" y="79"/>
      <point x="50" y="61"/>
      <point x="8" y="35" type="curve"/>
      <point x="9" y="0" type="line"/>
    </contour>
    <contour>
      <point x="394" y="0" type="line"/>
      <point x="395" y="49" type="line"/>
      <point x="353" y="76"/>
      <point x="304" y="94"/>
      <point x="260" y="107" type="curve"/>
      <point x="227" y="0" type="line"/>
    </contour>
    <contour>
      <point x="195" y="311" type="line"/>
      <point x="159" y="246" type="line"/>
      <point x="281" y="336" type="line"/>
      <point x="327" y="329"/>
      <point x="369" y="293"/>
      <point x="404" y="263" type="curve"/>
      <point x="529" y="416" type="line"/>
      <point x="509" y="484"/>
      <point x="422" y="518"/>
      <point x="354" y="497" type="curve"/>
    </contour>
    <contour>
      <point x="277" y="468" type="move" name="top"/>
    </contour>
    <contour>
      <point x="197" y="0" type="move" name="bottom"/>
    </contour>
  </outline>
</glyph>
<glyph name="s" format="1">
  <advance width="472"/>
  <unicode hex="0073"/>
  <outline>
    <contour>
      <point x="15" y="34" type="line"/>
      <point x="89" y="-4"/>
      <point x="168" y="-20"/>
      <point x="234" y="-20" type="curve" smooth="yes"/>
      <point x="371" y="-20"/>
      <point x="450" y="49"/>
      <point x="450" y="138" type="curve" smooth="yes"/>
      <point x="450" y="291"/>
      <point x="211" y="309"/>
      <point x="211" y="384" type="curve" smooth="yes"/>
      <point x="211" y="398"/>
      <point x="218" y="414"/>
      <point x="254" y="421" type="curve"/>
      <point x="295" y="419"/>
      <point x="350" y="403"/>
      <point x="390" y="379" type="curve"/>
      <point x="427" y="470" type="line"/>
      <point x="380" y="494"/>
      <point x="316" y="504"/>
      <point x="263" y="504" type="curve" smooth="yes"/>
      <point x="124" y="504"/>
      <point x="32" y="436"/>
      <point x="32" y="342" type="curve" smooth="yes"/>
      <point x="32" y="192"/>
      <point x="267" y="174"/>
      <point x="267" y="103" type="curve" smooth="yes"/>
      <point x="267" y="93"/>
      <point x="262" y="80"/>
      <point x="252" y="72" type="curve"/>
      <point x="193" y="98"/>
      <point x="134" y="135"/>
      <point x="78" y="180" type="curve"/>
    </contour>
    <contour>
      <point x="412" y="326" type="line"/>
      <point x="427" y="373"/>
      <point x="432" y="422"/>
      <point x="427" y="470" type="curve"/>
      <point x="250" y="480" type="line"/>
      <point x="313" y="326" type="line"/>
    </contour>
  </outline>
</glyph>
<glyph name="t" format="1">
  <advance width="421"/>
  <unicode hex="0074"/>
  <outline>
    <contour>
      <point x="218" y="-17" type="curve"/>
      <point x="395" y="76" type="line"/>
      <point x="391" y="129" type="line"/>
      <point x="368" y="127"/>
      <point x="338" y="125"/>
      <point x="315" y="125" type="curve"/>
      <point x="289" y="125"/>
      <point x="276" y="134"/>
      <point x="276" y="164" type="curve"/>
      <point x="276" y="443" type="line"/>
      <point x="236" y="613" type="line"/>
      <point x="146" y="613" type="line"/>
      <point x="75" y="450" type="line"/>
      <point x="75" y="99" type="line" smooth="yes"/>
      <point x="75" y="35"/>
      <point x="144" y="-20"/>
    </contour>
    <contour>
      <point x="-4" y="406" type="curve"/>
      <point x="-3" y="350" type="line"/>
      <point x="218" y="351" type="line"/>
      <point x="222" y="426" type="line"/>
      <point x="194" y="540" type="line"/>
      <point x="112" y="496"/>
      <point x="46" y="452"/>
    </contour>
    <contour>
      <point x="232" y="474" type="line"/>
      <point x="232" y="349" type="line"/>
      <point x="354" y="349" type="line"/>
      <point x="405" y="417" type="line"/>
      <point x="405" y="474" type="line"/>
    </contour>
    <contour>
      <point x="199" y="0" type="move" name="bottom"/>
    </contour>
    <contour>
      <point x="219" y="234" type="move" name="center"/>
    </contour>
    <contour>
      <point x="417" y="468" type="move" name="topright"/>
    </contour>
  </outline>
</glyph>
<glyph name="v" format="1">
  <advance width="565"/>
  <unicode hex="0076"/>
  <outline>
    <contour>
      <point x="-31" y="426" type="line"/>
      <point x="160" y="296" type="line"/>
      <point x="213" y="482" type="line"/>
      <point x="-31" y="482" type="line"/>
    </contour>
    <contour>
      <point x="220" y="-12"/>
      <point x="311" y="-11"/>
      <point x="359" y="3" type="curve"/>
      <point x="430" y="158"/>
      <point x="492" y="326"/>
      <point x="561" y="482" type="curve"/>
      <point x="344" y="482" type="line"/>
      <point x="337" y="385"/>
      <point x="326" y="275"/>
      <point x="313" y="178" type="curve"/>
      <point x="302" y="178" type="line"/>
      <point x="288" y="244" type="line"/>
      <point x="214" y="482" type="line"/>
      <point x="8" y="451" type="line"/>
      <point x="179" y="-4" type="line"/>
    </contour>
    <contour>
      <point x="390" y="482" type="line"/>
      <point x="510" y="392" type="line"/>
      <point x="532" y="401"/>
      <point x="551" y="414"/>
      <point x="569" y="429" type="curve"/>
      <point x="568" y="482" type="line"/>
    </contour>
  </outline>
</glyph>
<glyph name="y" format="1">
  <advance width="584"/>
  <unicode hex="0079"/>
  <outline>
    <contour>
      <point x="-32" y="426" type="line"/>
      <point x="168" y="296" type="line"/>
      <point x="221" y="482" type="line"/>
      <point x="-32" y="482" type="line"/>
    </contour>
    <contour>
      <point x="315" y="-145"/>
      <point x="394" y="-47"/>
      <point x="449" y="92" type="curve" smooth="yes"/>
      <point x="498" y="220"/>
      <point x="530" y="361"/>
      <point x="565" y="482" type="curve"/>
      <point x="357" y="482" type="line"/>
      <point x="343" y="385"/>
      <point x="323" y="281"/>
      <point x="304" y="186" type="curve"/>
      <point x="288" y="186" type="line"/>
      <point x="283" y="254" type="line"/>
      <point x="222" y="482" type="line"/>
      <point x="22" y="449" type="line"/>
      <point x="168" y="50" type="line"/>
      <point x="207" y="40"/>
      <point x="241" y="31"/>
      <point x="281" y="22" type="curve"/>
      <point x="205" y="-8"/>
      <point x="126" y="-34"/>
      <point x="45" y="-56" type="curve"/>
      <point x="148" y="-234" type="line"/>
    </contour>
    <contour>
      <point x="400" y="482" type="line"/>
      <point x="520" y="392" type="line"/>
      <point x="542" y="401"/>
      <point x="569" y="414"/>
      <point x="587" y="429" type="curve"/>
      <point x="586" y="482" type="line"/>
    </contour>
    <contour>
      <point x="306" y="468" type="move" name="top"/>
    </contour>
  </outline>
</glyph>
<glyph name="z" format="1">
  <advance width="537"/>
  <unicode hex="007A"/>
  <outline>
    <contour>
      <point x="44" y="367" type="line"/>
      <point x="423" y="436" type="line"/>
      <point x="462" y="482" type="line"/>
      <point x="43" y="482" type="line"/>
    </contour>
    <contour>
      <point x="456" y="160" type="line"/>
      <point x="402" y="144" type="line"/>
      <point x="125" y="76" type="line"/>
      <point x="98" y="33" type="line"/>
      <point x="474" y="-21" type="line"/>
      <point x="488" y="45"/>
      <point x="501" y="109"/>
      <point x="514" y="177" type="curve"/>
    </contour>
    <contour>
      <point x="153" y="297" type="line"/>
      <point x="225" y="450" type="line"/>
      <point x="44" y="482" type="line"/>
      <point x="35" y="428"/>
      <point x="36" y="350"/>
      <point x="46" y="297" type="curve"/>
    </contour>
    <contour>
      <point x="463" y="503" type="line"/>
      <point x="403" y="465" type="line"/>
      <point x="323" y="473" type="line"/>
      <point x="10" y="37" type="line"/>
      <point x="76" y="-18" type="line"/>
      <point x="154" y="36" type="line"/>
      <point x="227" y="38" type="line"/>
      <point x="526" y="442" type="line"/>
    </contour>
    <contour>
      <point x="275" y="468" type="move" name="top"/>
    </contour>
  </outline>
</glyph>
<glyph name="braceleft" format="1">
  <advance width="565"/>
  <unicode hex="007B"/>
  <outline>
    <contour>
      <point x="481" y="-24" type="line"/>
      <point x="359" y="-12" type="line"/>
      <point x="375" y="149" type="line" smooth="yes"/>
      <point x="381" y="202"/>
      <point x="357" y="254"/>
      <point x="317" y="295" type="curve"/>
      <point x="317" y="304" type="line"/>
      <point x="357" y="344"/>
      <point x="381" y="397"/>
      <point x="375" y="449" type="curve" smooth="yes"/>
      <point x="359" y="608" type="line"/>
      <point x="484" y="608" type="line"/>
      <point x="478" y="729" type="line"/>
      <point x="253" y="715"/>
      <point x="161" y="616"/>
      <point x="161" y="537" type="curve" smooth="yes"/>
      <point x="161" y="443" type="line" smooth="yes"/>
      <point x="161" y="374"/>
      <point x="154" y="333"/>
      <point x="68" y="327" type="curve"/>
      <point x="62" y="268" type="line"/>
      <point x="156" y="262"/>
      <point x="161" y="223"/>
      <point x="161" y="142" type="curve" smooth="yes"/>
      <point x="161" y="34" type="line" smooth="yes"/>
      <point x="161" y="-36"/>
      <point x="267" y="-135"/>
      <point x="471" y="-145" type="curve"/>
    </contour>
  </outline>
</glyph>
<glyph name="bar" format="1">
  <advance width="333"/>
  <unicode hex="007C"/>
  <outline>
    <contour>
      <point x="93" y="735" type="line"/>
      <point x="93" y="-225" type="line"/>
      <point x="239" y="-225" type="line"/>
      <point x="238" y="735" type="line"/>
    </contour>
  </outline>
</glyph>
<glyph name="cent" format="1">
  <advance width="479"/>
  <unicode hex="00A2"/>
  <outline>
    <contour>
      <point x="218" y="597" type="line"/>
      <point x="218" y="469" type="line"/>
      <point x="328" y="469" type="line"/>
      <point x="328" y="597" type="line"/>
    </contour>
    <contour>
      <point x="218" y="11" type="line"/>
      <point x="218" y="-117" type="line"/>
      <point x="328" y="-117" type="line"/>
      <point x="328" y="11" type="line"/>
    </contour>
    <component base="c" yScale="0.945" yOffset="15"/>
  </outline>
</glyph>
<glyph name="sterling" format="1">
  <advance width="617"/>
  <unicode hex="00A3"/>
  <outline>
    <contour>
      <point x="56" y="0" type="curve"/>
      <point x="173" y="0" type="line"/>
      <point x="414" y="179"/>
      <point x="281" y="365"/>
      <point x="281" y="485" type="curve"/>
      <point x="281" y="518"/>
      <point x="290" y="546"/>
      <point x="325" y="565" type="curve"/>
      <point x="392" y="552"/>
      <point x="444" y="529"/>
      <point x="502" y="473" type="curve"/>
      <point x="565" y="615" type="line"/>
      <point x="508" y="647"/>
      <point x="422" y="670"/>
      <point x="344" y="670" type="curve"/>
      <point x="167" y="670"/>
      <point x="67" y="555"/>
      <point x="67" y="449" type="curve"/>
      <point x="67" y="317"/>
      <point x="221" y="211"/>
    </contour>
    <contour>
      <point x="18" y="32" type="curve"/>
      <point x="24" y="0" type="line"/>
      <point x="118" y="0" type="line"/>
      <point x="117" y="91" type="line"/>
      <point x="79" y="73"/>
      <point x="46" y="54"/>
    </contour>
    <contour>
      <point x="259" y="106" type="line"/>
      <point x="139" y="0" type="line"/>
      <point x="584" y="0" type="line"/>
      <point x="567" y="127" type="line"/>
    </contour>
    <contour>
      <point x="12" y="276" type="line"/>
      <point x="18" y="239" type="line"/>
      <point x="224" y="239" type="line"/>
      <point x="262" y="257" type="line"/>
      <point x="398" y="257" type="line"/>
      <point x="441" y="298" type="line"/>
      <point x="435" y="335" type="line"/>
      <point x="280" y="335" type="line"/>
      <point x="243" y="317" type="line"/>
      <point x="55" y="317" type="line"/>
    </contour>
    <contour>
      <point x="366" y="8" type="line"/>
      <point x="583" y="0" type="line"/>
      <point x="589" y="48"/>
      <point x="585" y="189"/>
      <point x="573" y="241" type="curve"/>
      <point x="482" y="249" type="line"/>
    </contour>
    <contour>
      <point x="341" y="617" type="line"/>
      <point x="453" y="415" type="line"/>
      <point x="552" y="415" type="line"/>
      <point x="566" y="466"/>
      <point x="570" y="569"/>
      <point x="566" y="615" type="curve"/>
    </contour>
  </outline>
</glyph>
<glyph name="brokenbar" format="1">
  <advance width="332"/>
  <unicode hex="00A6"/>
  <outline>
    <contour>
      <point x="93" y="616" type="line"/>
      <point x="93" y="358" type="line"/>
      <point x="238" y="358" type="line"/>
      <point x="238" y="616" type="line"/>
    </contour>
    <contour>
      <point x="93" y="182" type="line"/>
      <point x="93" y="-76" type="line"/>
      <point x="238" y="-76" type="line"/>
      <point x="238" y="182" type="line"/>
    </contour>
  </outline>
</glyph>
<glyph name="section" format="1">
  <advance width="523"/>
  <unicode hex="00A7"/>
  <outline>
    <contour>
      <point x="307" y="159" type="curve"/>
      <point x="365" y="116" type="line"/>
      <point x="445" y="146"/>
      <point x="490" y="198"/>
      <point x="490" y="265" type="curve"/>
      <point x="490" y="356"/>
      <point x="407" y="403"/>
      <point x="327" y="443" type="curve"/>
      <point x="263" y="475"/>
      <point x="221" y="493"/>
      <point x="221" y="532" type="curve"/>
      <point x="221" y="557"/>
      <point x="240" y="580"/>
      <point x="268" y="588" type="curve"/>
      <point x="322" y="585"/>
      <point x="382" y="563"/>
      <point x="418" y="535" type="curve"/>
      <point x="459" y="636" type="line"/>
      <point x="408" y="660"/>
      <point x="340" y="671"/>
      <point x="288" y="671" type="curve"/>
      <point x="154" y="671"/>
      <point x="58" y="602"/>
      <point x="58" y="502" type="curve"/>
      <point x="58" y="431"/>
      <point x="108" y="379"/>
      <point x="206" y="331" type="curve"/>
      <point x="265" y="302"/>
      <point x="347" y="274"/>
      <point x="347" y="217" type="curve"/>
      <point x="347" y="197"/>
      <point x="336" y="179"/>
    </contour>
    <contour>
      <point x="262" y="-150" type="curve"/>
      <point x="379" y="-150"/>
      <point x="464" y="-83"/>
      <point x="464" y="9" type="curve"/>
      <point x="464" y="84"/>
      <point x="408" y="138"/>
      <point x="339" y="171" type="curve"/>
      <point x="276" y="201"/>
      <point x="191" y="221"/>
      <point x="191" y="277" type="curve"/>
      <point x="191" y="307"/>
      <point x="215" y="329"/>
      <point x="249" y="350" type="curve"/>
      <point x="223" y="408" type="line"/>
      <point x="112" y="380"/>
      <point x="49" y="321"/>
      <point x="49" y="243" type="curve"/>
      <point x="49" y="157"/>
      <point x="127" y="113"/>
      <point x="222" y="65" type="curve"/>
      <point x="274" y="40"/>
      <point x="319" y="24"/>
      <point x="319" y="-11" type="curve"/>
      <point x="319" y="-28"/>
      <point x="307" y="-46"/>
      <point x="288" y="-56" type="curve"/>
      <point x="231" y="-28"/>
      <point x="178" y="0"/>
      <point x="127" y="48" type="curve"/>
      <point x="48" y="-89" type="line"/>
      <point x="120" y="-132"/>
      <point x="201" y="-150"/>
    </contour>
    <contour>
      <point x="282" y="638" type="line"/>
      <point x="346" y="484" type="line"/>
      <point x="445" y="484" type="line"/>
      <point x="459" y="535"/>
      <point x="463" y="590"/>
      <point x="459" y="636" type="curve"/>
    </contour>
  </outline>
</glyph>
<glyph name="guillemetleft" format="1">
  <advance width="657"/>
  <unicode hex="00AB"/>
  <outline>
    <contour>
      <point x="52" y="207" type="line"/>
      <point x="228" y="29" type="line"/>
      <point x="327" y="99" type="line"/>
      <point x="233" y="253" type="line"/>
      <point x="320" y="415" type="line"/>
      <point x="228" y="480" type="line"/>
      <point x="52" y="299" type="line"/>
    </contour>
    <contour>
      <point x="330" y="207" type="line"/>
      <point x="506" y="29" type="line"/>
      <point x="605" y="99" type="line"/>
      <point x="511" y="253" type="line"/>
      <point x="598" y="415" type="line"/>
      <point x="506" y="480" type="line"/>
      <point x="330" y="299" type="line"/>
    </contour>
  </outline>
</glyph>
<glyph name="logicalnot" format="1">
  <advance width="592"/>
  <unicode hex="00AC"/>
  <outline>
    <contour>
      <point x="52" y="282" type="line"/>
      <point x="52" y="172" type="line"/>
      <point x="540" y="172" type="line"/>
      <point x="540" y="282" type="line"/>
    </contour>
    <contour>
      <point x="423" y="282" type="line"/>
      <point x="423" y="0" type="line"/>
      <point x="540" y="0" type="line"/>
      <point x="540" y="282" type="line"/>
    </contour>
  </outline>
</glyph>
<glyph name="degree" format="1">
  <advance width="374"/>
  <unicode hex="00B0"/>
  <outline>
    <contour>
      <point x="174" y="380" type="curve"/>
      <point x="256" y="380"/>
      <point x="314" y="435"/>
      <point x="314" y="521" type="curve"/>
      <point x="314" y="601"/>
      <point x="252" y="663"/>
      <point x="170" y="663" type="curve"/>
      <point x="91" y="663"/>
      <point x="30" y="601"/>
      <point x="30" y="521" type="curve"/>
      <point x="30" y="436"/>
      <point x="97" y="380"/>
    </contour>
    <contour>
      <point x="177" y="466" type="curve"/>
      <point x="142" y="466"/>
      <point x="126" y="496"/>
      <point x="126" y="525" type="curve"/>
      <point x="126" y="541"/>
      <point x="131" y="557"/>
      <point x="139" y="569" type="curve"/>
      <point x="148" y="573"/>
      <point x="157" y="575"/>
      <point x="165" y="575" type="curve"/>
      <point x="198" y="575"/>
      <point x="215" y="544"/>
      <point x="215" y="514" type="curve"/>
      <point x="215" y="497"/>
      <point x="210" y="481"/>
      <point x="200" y="469" type="curve"/>
      <point x="192" y="467"/>
      <point x="184" y="466"/>
    </contour>
  </outline>
</glyph>
<glyph name="plusminus" format="1">
  <advance width="561"/>
  <unicode hex="00B1"/>
  <outline>
    <contour>
      <point x="339" y="451" type="line"/>
      <point x="339" y="626" type="line"/>
      <point x="222" y="626" type="line"/>
      <point x="222" y="451" type="line"/>
      <point x="52" y="451" type="line"/>
      <point x="52" y="342" type="line"/>
      <point x="222" y="342" type="line"/>
      <point x="222" y="167" type="line"/>
      <point x="339" y="167" type="line"/>
      <point x="339" y="342" type="line"/>
      <point x="509" y="342" type="line"/>
      <point x="509" y="451" type="line"/>
    </contour>
    <contour>
      <point x="53" y="109" type="line"/>
      <point x="53" y="0" type="line"/>
      <point x="506" y="0" type="line"/>
      <point x="506" y="109" type="line"/>
    </contour>
  </outline>
</glyph>
<glyph name="twosuperior" format="1">
  <advance width="336"/>
  <unicode hex="00B2"/>
  <outline>
    <contour>
      <point x="110" y="593" type="line"/>
      <point x="149" y="706" type="line"/>
      <point x="33" y="707" type="line"/>
      <point x="30" y="682"/>
      <point x="38" y="617"/>
      <point x="45" y="593" type="curve"/>
    </contour>
    <contour>
      <point x="50" y="415" type="line"/>
      <point x="291" y="415" type="line"/>
      <point x="309" y="524" type="line"/>
      <point x="177" y="489" type="line"/>
      <point x="173" y="496" type="line"/>
      <point x="254" y="544"/>
      <point x="297" y="595"/>
      <point x="297" y="645" type="curve" smooth="yes"/>
      <point x="297" y="703"/>
      <point x="244" y="751"/>
      <point x="166" y="751" type="curve" smooth="yes"/>
      <point x="124" y="751"/>
      <point x="74" y="737"/>
      <point x="33" y="707" type="curve"/>
      <point x="92" y="687" type="line"/>
      <point x="105" y="695"/>
      <point x="120" y="699"/>
      <point x="131" y="699" type="curve" smooth="yes"/>
      <point x="160" y="699"/>
      <point x="180" y="673"/>
      <point x="180" y="644" type="curve" smooth="yes"/>
      <point x="180" y="614"/>
      <point x="157" y="579"/>
      <point x="98" y="527" type="curve" smooth="yes"/>
      <point x="30" y="468" type="line"/>
    </contour>
  </outline>
</glyph>
<glyph name="threesuperior" format="1">
  <advance width="345"/>
  <unicode hex="00B3"/>
  <outline>
    <contour>
      <point x="163" y="725" type="line"/>
      <point x="42" y="717" type="line"/>
      <point x="40" y="694"/>
      <point x="43" y="638"/>
      <point x="50" y="614" type="curve"/>
      <point x="105" y="614" type="line"/>
    </contour>
    <contour>
      <point x="114" y="592" type="line"/>
      <point x="118" y="540" type="line"/>
      <point x="254" y="581" type="line"/>
      <point x="254" y="585" type="line"/>
      <point x="286" y="600"/>
      <point x="301" y="627"/>
      <point x="301" y="654" type="curve" smooth="yes"/>
      <point x="301" y="703"/>
      <point x="251" y="751"/>
      <point x="172" y="751" type="curve" smooth="yes"/>
      <point x="126" y="751"/>
      <point x="70" y="735"/>
      <point x="42" y="717" type="curve"/>
      <point x="61" y="678" type="line"/>
      <point x="81" y="692"/>
      <point x="113" y="696"/>
      <point x="129" y="696" type="curve" smooth="yes"/>
      <point x="167" y="696"/>
      <point x="189" y="671"/>
      <point x="189" y="643" type="curve" smooth="yes"/>
      <point x="189" y="619"/>
      <point x="171" y="592"/>
      <point x="126" y="592" type="curve" smooth="yes"/>
    </contour>
    <contour>
      <point x="30" y="432" type="line"/>
      <point x="71" y="413"/>
      <point x="124" y="405"/>
      <point x="165" y="405" type="curve" smooth="yes"/>
      <point x="241" y="405"/>
      <point x="316" y="435"/>
      <point x="316" y="503" type="curve" smooth="yes"/>
      <point x="316" y="557"/>
      <point x="267" y="593"/>
      <point x="213" y="584" type="curve"/>
      <point x="215" y="594" type="line"/>
      <point x="114" y="592" type="line"/>
      <point x="107" y="592" type="line"/>
      <point x="110" y="538" type="line"/>
      <point x="143" y="538" type="line" smooth="yes"/>
      <point x="177" y="538"/>
      <point x="195" y="517"/>
      <point x="195" y="495" type="curve" smooth="yes"/>
      <point x="195" y="481"/>
      <point x="187" y="466"/>
      <point x="169" y="458" type="curve"/>
      <point x="136" y="475"/>
      <point x="93" y="508"/>
      <point x="56" y="541" type="curve"/>
    </contour>
  </outline>
</glyph>
<glyph name="micro" format="1">
  <advance width="623"/>
  <unicode hex="00B5"/>
  <outline>
    <contour>
      <point x="594" y="109"/>
      <point x="581" y="108"/>
      <point x="565" y="108" type="curve" smooth="yes"/>
      <point x="549" y="108"/>
      <point x="541" y="120"/>
      <point x="541" y="134" type="curve"/>
      <point x="541" y="494" type="line"/>
      <point x="472" y="496"/>
      <point x="379" y="483"/>
      <point x="340" y="474" type="curve"/>
      <point x="340" y="77" type="line"/>
      <point x="359" y="74" type="line"/>
      <point x="386" y="18"/>
      <point x="431" y="-17"/>
      <point x="477" y="-17" type="curve"/>
      <point x="621" y="65" type="line"/>
      <point x="618" y="110" type="line"/>
    </contour>
    <contour>
      <point x="45" y="-227" type="line"/>
      <point x="119" y="-249"/>
      <point x="227" y="-212"/>
      <point x="248" y="-183" type="curve"/>
      <point x="148" y="28" type="line"/>
      <point x="172" y="1"/>
      <point x="193" y="-12"/>
      <point x="218" y="-13" type="curve"/>
      <point x="295" y="17"/>
      <point x="386" y="76"/>
      <point x="467" y="167" type="curve"/>
      <point x="466" y="188" type="line"/>
      <point x="415" y="151"/>
      <point x="364" y="119"/>
      <point x="317" y="116" type="curve" smooth="yes"/>
      <point x="269" y="113"/>
      <point x="245" y="140"/>
      <point x="245" y="194" type="curve" smooth="yes"/>
      <point x="245" y="494" type="line"/>
      <point x="176" y="496"/>
      <point x="83" y="483"/>
      <point x="44" y="474" type="curve"/>
    </contour>
    <contour>
      <point x="124" y="17" type="line"/>
      <point x="184" y="17" type="line"/>
      <point x="184" y="49" type="line"/>
      <point x="124" y="49" type="line"/>
    </contour>
  </outline>
</glyph>
<glyph name="paragraph" format="1">
  <advance width="721"/>
  <unicode hex="00B6"/>
  <outline>
    <contour>
      <point x="337" y="692" type="line"/>
      <point x="98" y="706"/>
      <point x="0" y="585"/>
      <point x="0" y="470" type="curve" smooth="yes"/>
      <point x="0" y="372"/>
      <point x="72" y="273"/>
      <point x="188" y="241" type="curve"/>
      <point x="226" y="278" type="line"/>
      <point x="206" y="318"/>
      <point x="193" y="358"/>
      <point x="193" y="403" type="curve" smooth="yes"/>
      <point x="193" y="518"/>
      <point x="278" y="594"/>
      <point x="384" y="588" type="curve" smooth="yes"/>
      <point x="696" y="573" type="line"/>
      <point x="703" y="646" type="line"/>
    </contour>
    <contour>
      <point x="318" y="-165" type="line"/>
      <point x="318" y="-82" type="line"/>
      <point x="318" y="-82"/>
      <point x="236" y="-99"/>
      <point x="188" y="-121" type="curve"/>
      <point x="194" y="-165" type="line"/>
    </contour>
    <contour>
      <point x="692" y="-165" type="line"/>
      <point x="693" y="-112" type="line"/>
      <point x="555" y="-96" type="line"/>
      <point x="552" y="-165" type="line"/>
    </contour>
    <contour>
      <point x="295" y="-166" type="line"/>
      <point x="419" y="-166" type="line"/>
      <point x="419" y="609" type="line"/>
      <point x="295" y="609" type="line"/>
    </contour>
    <contour>
      <point x="490" y="-166" type="line"/>
      <point x="614" y="-166" type="line"/>
      <point x="614" y="609" type="line"/>
      <point x="490" y="609" type="line"/>
    </contour>
  </outline>
</glyph>
<glyph name="periodcentered" format="1">
  <advance width="309"/>
  <unicode hex="00B7"/>
  <outline>
    <contour>
      <point x="192" y="205"/>
      <point x="232" y="257"/>
      <point x="249" y="301" type="curve"/>
      <point x="225" y="333"/>
      <point x="174" y="379"/>
      <point x="130" y="397" type="curve"/>
      <point x="92" y="375"/>
      <point x="54" y="323"/>
      <point x="30" y="275" type="curve"/>
      <point x="56" y="239"/>
      <point x="115" y="195"/>
      <point x="154" y="179" type="curve"/>
    </contour>
  </outline>
</glyph>
<glyph name="onesuperior" format="1">
  <advance width="286"/>
  <unicode hex="00B9"/>
  <outline>
    <contour>
      <point x="94" y="700" type="line"/>
      <point x="94" y="415" type="line"/>
      <point x="215" y="415" type="line"/>
      <point x="215" y="711" type="line"/>
    </contour>
    <contour>
      <point x="28" y="430" type="curve"/>
      <point x="31" y="415" type="line"/>
      <point x="102" y="415" type="line"/>
      <point x="101" y="466" type="line"/>
      <point x="77" y="461"/>
      <point x="42" y="443"/>
    </contour>
    <contour>
      <point x="204" y="466" type="line"/>
      <point x="202" y="415" type="line"/>
      <point x="271" y="415" type="line"/>
      <point x="271" y="444" type="line"/>
    </contour>
    <contour>
      <point x="16" y="662" type="line"/>
      <point x="36" y="620" type="line"/>
      <point x="169" y="670" type="line"/>
      <point x="176" y="719" type="line"/>
      <point x="165" y="743" type="line"/>
    </contour>
    <contour>
      <point x="164" y="743" type="line"/>
      <point x="161" y="702" type="line"/>
      <point x="215" y="711" type="line"/>
    </contour>
  </outline>
</glyph>
<glyph name="AE" format="1">
  <advance width="982"/>
  <unicode hex="00C6"/>
  <outline>
    <contour>
      <point x="366" y="655" type="line"/>
      <point x="30" y="0" type="line"/>
      <point x="160" y="0" type="line"/>
      <point x="474" y="630" type="line"/>
    </contour>
    <contour>
      <point x="-20" y="33" type="curve"/>
      <point x="-14" y="0" type="line"/>
      <point x="80" y="0" type="line"/>
      <point x="79" y="92" type="line"/>
      <point x="48" y="76"/>
      <point x="7" y="55"/>
    </contour>
    <contour>
      <point x="136" y="79" type="line"/>
      <point x="133" y="0" type="line"/>
      <point x="273" y="0" type="line"/>
      <point x="274" y="55" type="line"/>
    </contour>
    <contour>
      <point x="333" y="33" type="curve"/>
      <point x="339" y="0" type="line"/>
      <point x="433" y="0" type="line"/>
      <point x="432" y="92" type="line"/>
      <point x="401" y="76"/>
      <point x="360" y="55"/>
    </contour>
    <contour>
      <point x="193" y="254" type="line"/>
      <point x="193" y="162" type="line"/>
      <point x="526" y="162" type="line"/>
      <point x="526" y="254" type="line"/>
    </contour>
    <contour>
      <point x="593" y="106" type="line"/>
      <point x="518" y="0" type="line"/>
      <point x="903" y="0" type="line"/>
      <point x="914" y="127" type="line"/>
    </contour>
    <contour>
      <point x="418" y="666" type="line"/>
      <point x="418" y="0" type="line"/>
      <point x="620" y="0" type="line"/>
      <point x="620" y="666" type="line"/>
    </contour>
    <contour>
      <point x="741" y="8" type="line"/>
      <point x="920" y="0" type="line"/>
      <point x="928" y="64"/>
      <point x="934" y="159"/>
      <point x="932" y="218" type="curve"/>
      <point x="817" y="227" type="line"/>
    </contour>
    <contour>
      <point x="260" y="611" type="line"/>
      <point x="390" y="589" type="line"/>
      <point x="452" y="666" type="line"/>
      <point x="261" y="666" type="line"/>
    </contour>
    <contour>
      <point x="591" y="288" type="line"/>
      <point x="831" y="278" type="line"/>
      <point x="831" y="393" type="line"/>
      <point x="591" y="373" type="line"/>
    </contour>
    <contour>
      <point x="586" y="568" type="line"/>
      <point x="915" y="547" type="line"/>
      <point x="928" y="666" type="line"/>
      <point x="511" y="666" type="line"/>
    </contour>
    <contour>
      <point x="753" y="657" type="line"/>
      <point x="792" y="451" type="line"/>
      <point x="907" y="451" type="line"/>
      <point x="922" y="520"/>
      <point x="930" y="620"/>
      <point x="928" y="666" type="curve"/>
    </contour>
    <contour>
      <point x="526" y="650" type="move" name="top"/>
    </contour>
  </outline>
</glyph>
<glyph name="multiply" format="1">
  <advance width="553"/>
  <unicode hex="00D7"/>
  <outline>
    <contour>
      <point x="275" y="160" type="line"/>
      <point x="416" y="17" type="line"/>
      <point x="498" y="99" type="line"/>
      <point x="356" y="241" type="line"/>
      <point x="497" y="383" type="line"/>
      <point x="417" y="461" type="line"/>
      <point x="279" y="319" type="line"/>
      <point x="137" y="463" type="line"/>
      <point x="55" y="382" type="line"/>
      <point x="197" y="238" type="line"/>
      <point x="57" y="96" type="line"/>
      <point x="136" y="18" type="line"/>
    </contour>
  </outline>
</glyph>
<glyph name="Thorn" format="1">
  <advance width="654"/>
  <unicode hex="00DE"/>
  <outline>
    <contour>
      <point x="285" y="251" type="curve"/>
      <point x="282" y="139" type="line"/>
      <point x="404" y="140" type="line" smooth="yes"/>
      <point x="565" y="141"/>
      <point x="645" y="234"/>
      <point x="645" y="329" type="curve"/>
      <point x="645" y="427"/>
      <point x="559" y="526"/>
      <point x="392" y="526" type="curve"/>
      <point x="182" y="526" type="line"/>
      <point x="301" y="411" type="line"/>
      <point x="392" y="422" type="line"/>
      <point x="426" y="394"/>
      <point x="442" y="358"/>
      <point x="442" y="324" type="curve"/>
      <point x="442" y="273"/>
      <point x="408" y="231"/>
      <point x="353" y="231" type="curve"/>
      <point x="330" y="231"/>
      <point x="308" y="238"/>
    </contour>
    <contour>
      <point x="22" y="33" type="curve"/>
      <point x="28" y="0" type="line"/>
      <point x="122" y="0" type="line"/>
      <point x="121" y="92" type="line"/>
      <point x="90" y="76"/>
      <point x="49" y="55"/>
    </contour>
    <contour>
      <point x="269" y="79" type="line"/>
      <point x="266" y="0" type="line"/>
      <point x="406" y="0" type="line"/>
      <point x="407" y="55" type="line"/>
    </contour>
    <contour>
      <point x="108" y="650" type="line"/>
      <point x="108" y="0" type="line"/>
      <point x="318" y="0" type="line"/>
      <point x="318" y="650" type="line"/>
    </contour>
    <contour>
      <point x="30" y="595" type="line"/>
      <point x="168" y="571" type="line"/>
      <point x="171" y="650" type="line"/>
      <point x="31" y="650" type="line"/>
    </contour>
    <contour>
      <point x="296" y="650" type="line"/>
      <point x="297" y="558" type="line"/>
      <point x="328" y="574"/>
      <point x="369" y="595"/>
      <point x="396" y="617" type="curve"/>
      <point x="390" y="650" type="line"/>
    </contour>
  </outline>
</glyph>
<glyph name="germandbls" format="1">
  <advance width="692"/>
  <unicode hex="00DF"/>
  <outline>
    <contour>
      <point x="476" y="-19" type="curve"/>
      <point x="591" y="-19"/>
      <point x="679" y="40"/>
      <point x="679" y="142" type="curve"/>
      <point x="679" y="277"/>
      <point x="523" y="315"/>
      <point x="509" y="381" type="curve"/>
      <point x="558" y="422"/>
      <point x="580" y="462"/>
      <point x="580" y="506" type="curve"/>
      <point x="580" y="600"/>
      <point x="482" y="687"/>
      <point x="346" y="687" type="curve"/>
      <point x="271" y="687"/>
      <point x="93" y="645"/>
      <point x="93" y="477" type="curve"/>
      <point x="93" y="0" type="line"/>
      <point x="294" y="0" type="line"/>
      <point x="294" y="437" type="line"/>
      <point x="290" y="561" type="line"/>
      <point x="311" y="573"/>
      <point x="345" y="576"/>
      <point x="365" y="573" type="curve"/>
      <point x="422" y="511"/>
      <point x="386" y="411"/>
      <point x="335" y="343" type="curve"/>
      <point x="351" y="219"/>
      <point x="489" y="212"/>
      <point x="489" y="139" type="curve"/>
      <point x="489" y="126"/>
      <point x="484" y="115"/>
      <point x="473" y="102" type="curve"/>
      <point x="437" y="112"/>
      <point x="399" y="138"/>
      <point x="370" y="167" type="curve"/>
      <point x="328" y="4" type="line"/>
      <point x="375" y="-10"/>
      <point x="431" y="-19"/>
    </contour>
    <contour>
      <point x="19" y="35" type="curve"/>
      <point x="20" y="0" type="line"/>
      <point x="143" y="0" type="line"/>
      <point x="151" y="88" type="line"/>
      <point x="109" y="79"/>
      <point x="61" y="61"/>
    </contour>
    <contour>
      <point x="6" y="398" type="curve"/>
      <point x="7" y="342" type="line"/>
      <point x="228" y="343" type="line"/>
      <point x="231" y="418" type="line"/>
      <point x="149" y="491" type="line"/>
      <point x="94" y="469"/>
      <point x="46" y="439"/>
    </contour>
  </outline>
</glyph>
<glyph name="eth" format="1">
  <advance width="549"/>
  <unicode hex="00F0"/>
  <outline>
    <contour>
      <point x="285" y="-28" type="curve"/>
      <point x="427" y="-28"/>
      <point x="544" y="76"/>
      <point x="544" y="255" type="curve"/>
      <point x="544" y="420"/>
      <point x="444" y="636"/>
      <point x="324" y="779" type="curve"/>
      <point x="186" y="711" type="line"/>
      <point x="260" y="597"/>
      <point x="296" y="503"/>
      <point x="322" y="428" type="curve"/>
      <point x="368" y="422" type="line"/>
      <point x="330" y="456"/>
      <point x="280" y="475"/>
      <point x="228" y="475" type="curve"/>
      <point x="118" y="475"/>
      <point x="8" y="394"/>
      <point x="8" y="240" type="curve"/>
      <point x="8" y="63"/>
      <point x="151" y="-28"/>
    </contour>
    <contour>
      <point x="312" y="74" type="curve"/>
      <point x="245" y="75"/>
      <point x="215" y="150"/>
      <point x="215" y="225" type="curve"/>
      <point x="215" y="285"/>
      <point x="234" y="348"/>
      <point x="263" y="376" type="curve"/>
      <point x="315" y="365"/>
      <point x="340" y="342"/>
      <point x="390" y="294" type="curve"/>
      <point x="324" y="396" type="line"/>
      <point x="372" y="301"/>
      <point x="361" y="133"/>
    </contour>
    <contour>
      <point x="146" y="564" type="line"/>
      <point x="222" y="513" type="line"/>
      <point x="515" y="627" type="line"/>
      <point x="458" y="741" type="line"/>
      <point x="140" y="609" type="line"/>
    </contour>
  </outline>
</glyph>
<glyph name="oslash" format="1">
  <advance width="551"/>
  <unicode hex="00F8"/>
  <outline>
    <contour>
      <point x="114" y="102" type="line"/>
      <point x="23" y="-28" type="line"/>
      <point x="128" y="-97" type="line"/>
      <point x="218" y="33" type="line"/>
    </contour>
    <contour>
      <point x="444" y="376" type="line"/>
      <point x="524" y="498" type="line"/>
      <point x="417" y="566" type="line"/>
      <point x="337" y="446" type="line"/>
    </contour>
    <contour>
      <point x="8" y="76"/>
      <point x="137" y="-20"/>
      <point x="272" y="-20" type="curve" smooth="yes"/>
      <point x="407" y="-20"/>
      <point x="526" y="74"/>
      <point x="526" y="241" type="curve" smooth="yes"/>
      <point x="526" y="413"/>
      <point x="399" y="504"/>
      <point x="267" y="504" type="curve" smooth="yes"/>
      <point x="133" y="504"/>
      <point x="8" y="412"/>
      <point x="8" y="245" type="curve" smooth="yes"/>
    </contour>
    <contour>
      <point x="288" y="79"/>
      <point x="282" y="78"/>
      <point x="275" y="78" type="curve" smooth="yes"/>
      <point x="227" y="78"/>
      <point x="210" y="148"/>
      <point x="210" y="239" type="curve" smooth="yes"/>
      <point x="210" y="309"/>
      <point x="219" y="366"/>
      <point x="234" y="389" type="curve"/>
      <point x="241" y="394"/>
      <point x="251" y="396"/>
      <point x="261" y="396" type="curve" smooth="yes"/>
      <point x="307" y="396"/>
      <point x="324" y="322"/>
      <point x="324" y="229" type="curve" smooth="yes"/>
      <point x="324" y="158"/>
      <point x="316" y="99"/>
      <point x="296" y="82" type="curve"/>
    </contour>
    <contour>
      <point x="267" y="468" type="move" name="top"/>
    </contour>
  </outline>
</glyph>
<glyph name="thorn" format="1">
  <advance width="605"/>
  <unicode hex="00FE"/>
  <outline>
    <contour>
      <point x="-22" y="646" type="line"/>
      <point x="118" y="598" type="line"/>
      <point x="204" y="651" type="line"/>
      <point x="210" y="737" type="line"/>
      <point x="124" y="732"/>
      <point x="45" y="719"/>
      <point x="-24" y="695" type="curve"/>
    </contour>
    <contour>
      <point x="210" y="737" type="line"/>
      <point x="67" y="679" type="line"/>
      <point x="67" y="11" type="line"/>
      <point x="269" y="40" type="line"/>
      <point x="269" y="683" type="line"/>
    </contour>
    <contour>
      <point x="66" y="-201" type="line"/>
      <point x="267" y="-201" type="line"/>
      <point x="267" y="442" type="line"/>
      <point x="208" y="495" type="line"/>
      <point x="66" y="437" type="line"/>
    </contour>
    <contour>
      <point x="124" y="-201" type="line"/>
      <point x="132" y="-113" type="line"/>
      <point x="90" y="-130"/>
      <point x="42" y="-148"/>
      <point x="0" y="-165" type="curve"/>
      <point x="1" y="-201" type="line"/>
    </contour>
    <contour>
      <point x="364" y="-201" type="line"/>
      <point x="365" y="-152" type="line"/>
      <point x="323" y="-129"/>
      <point x="278" y="-107"/>
      <point x="234" y="-86" type="curve"/>
      <point x="201" y="-201" type="line"/>
    </contour>
    <contour>
      <point x="203" y="328" type="line"/>
      <point x="238" y="349"/>
      <point x="267" y="363"/>
      <point x="294" y="363" type="curve" smooth="yes"/>
      <point x="353" y="363"/>
      <point x="385" y="302"/>
      <point x="385" y="232" type="curve" smooth="yes"/>
      <point x="385" y="177"/>
      <point x="366" y="119"/>
      <point x="332" y="84" type="curve"/>
      <point x="272" y="76"/>
      <point x="219" y="96"/>
      <point x="176" y="145" type="curve"/>
      <point x="68" y="19" type="line"/>
      <point x="141" y="-4"/>
      <point x="224" y="-18"/>
      <point x="290" y="-18" type="curve" smooth="yes"/>
      <point x="500" y="-18"/>
      <point x="592" y="125"/>
      <point x="592" y="266" type="curve" smooth="yes"/>
      <point x="592" y="398"/>
      <point x="512" y="516"/>
      <point x="372" y="494" type="curve"/>
      <point x="194" y="360" type="line"/>
    </contour>
  </outline>
</glyph>
<glyph name="Dcroat" format="1">
  <advance width="757"/>
  <unicode hex="0110"/>
  <outline>
    <contour>
      <point x="12" y="299" type="line"/>
      <point x="18" y="262" type="line"/>
      <point x="400" y="262" type="line"/>
      <point x="443" y="305" type="line"/>
      <point x="437" y="342" type="line"/>
      <point x="55" y="342" type="line"/>
    </contour>
    <component base="D"/>
  </outline>
</glyph>
<glyph name="Imacron" format="1">
  <advance width="434"/>
  <unicode hex="012A"/>
  <outline>
    <contour>
      <point x="31" y="821" type="curve"/>
      <point x="37" y="737" type="line"/>
      <point x="365" y="737" type="line"/>
      <point x="412" y="787" type="line"/>
      <point x="407" y="846" type="line"/>
      <point x="144" y="846" type="line"/>
      <point x="113" y="846"/>
      <point x="70" y="841"/>
    </contour>
    <component base="I"/>
  </outline>
</glyph>
<glyph name="imacron" format="1">
  <advance width="359"/>
  <unicode hex="012B"/>
  <outline>
    <contour>
      <point x="8" y="648" type="curve"/>
      <point x="14" y="564" type="line"/>
      <point x="301" y="564" type="line"/>
      <point x="348" y="614" type="line"/>
      <point x="343" y="673" type="line"/>
      <point x="121" y="673" type="line"/>
      <point x="90" y="673"/>
      <point x="47" y="667"/>
    </contour>
    <component base="dotlessi"/>
  </outline>
</glyph>
<glyph name="dotlessi" format="1">
  <advance width="350"/>
  <unicode hex="0131"/>
  <outline>
    <contour>
      <point x="83" y="437" type="line"/>
      <point x="83" y="0" type="line"/>
      <point x="284" y="0" type="line"/>
      <point x="284" y="442" type="line"/>
      <point x="225" y="495" type="line"/>
    </contour>
    <contour>
      <point x="8" y="35" type="curve"/>
      <point x="9" y="0" type="line"/>
      <point x="132" y="0" type="line"/>
      <point x="140" y="88" type="line"/>
      <point x="98" y="79"/>
      <point x="50" y="61"/>
    </contour>
    <contour>
      <point x="208" y="115" type="curve"/>
      <point x="175" y="0" type="line"/>
      <point x="338" y="0" type="line"/>
      <point x="339" y="49" type="line"/>
      <point x="297" y="80"/>
      <point x="252" y="102"/>
    </contour>
    <contour>
      <point x="8" y="407" type="line"/>
      <point x="133" y="375" type="line"/>
      <point x="220" y="409" type="line"/>
      <point x="225" y="495" type="line"/>
      <point x="145" y="492"/>
      <point x="70" y="479"/>
      <point x="6" y="456" type="curve"/>
    </contour>
    <contour>
      <point x="340" y="10" type="move" name="ogonek"/>
    </contour>
    <contour>
      <point x="171" y="468" type="move" name="top"/>
    </contour>
  </outline>
</glyph>
<glyph name="Lslash" format="1">
  <advance width="658"/>
  <unicode hex="0141"/>
  <outline>
    <contour>
      <point x="22" y="283" type="line"/>
      <point x="49" y="221" type="line"/>
      <point x="432" y="388" type="line"/>
      <point x="449" y="439" type="line"/>
      <point x="433" y="464" type="line"/>
    </contour>
    <component base="L" xOffset="15"/>
  </outline>
</glyph>
<glyph name="lslash" format="1">
  <advance width="459"/>
  <unicode hex="0142"/>
  <outline>
    <contour>
      <point x="6" y="327" type="line"/>
      <point x="42" y="255" type="line"/>
      <point x="397" y="429" type="line"/>
      <point x="397" y="490" type="line"/>
      <point x="370" y="506" type="line"/>
    </contour>
    <component base="l" xOffset="27"/>
  </outline>
</glyph>
<glyph name="OE" format="1">
  <advance width="1014"/>
  <unicode hex="0152"/>
  <outline>
    <contour>
      <point x="365" y="-18" type="curve"/>
      <point x="426" y="-18"/>
      <point x="489" y="-6"/>
      <point x="542" y="25" type="curve"/>
      <point x="493" y="150" type="line"/>
      <point x="476" y="112"/>
      <point x="419" y="87"/>
      <point x="371" y="87" type="curve"/>
      <point x="264" y="87"/>
      <point x="215" y="209"/>
      <point x="215" y="340" type="curve"/>
      <point x="215" y="436"/>
      <point x="241" y="526"/>
      <point x="287" y="566" type="curve"/>
      <point x="308" y="573"/>
      <point x="329" y="575"/>
      <point x="351" y="575" type="curve"/>
      <point x="395" y="575"/>
      <point x="452" y="564"/>
      <point x="475" y="520" type="curve"/>
      <point x="531" y="645" type="line"/>
      <point x="482" y="671"/>
      <point x="427" y="685"/>
      <point x="366" y="685" type="curve"/>
      <point x="178" y="685"/>
      <point x="8" y="554"/>
      <point x="8" y="330" type="curve"/>
      <point x="8" y="91"/>
      <point x="194" y="-18"/>
    </contour>
    <contour>
      <point x="610" y="106" type="line"/>
      <point x="534" y="0" type="line"/>
      <point x="952" y="0" type="line"/>
      <point x="939" y="127" type="line"/>
    </contour>
    <contour>
      <point x="436" y="666" type="line"/>
      <point x="436" y="0" type="line"/>
      <point x="646" y="0" type="line"/>
      <point x="646" y="666" type="line"/>
    </contour>
    <contour>
      <point x="773" y="8" type="line"/>
      <point x="952" y="0" type="line"/>
      <point x="960" y="64"/>
      <point x="966" y="159"/>
      <point x="964" y="218" type="curve"/>
      <point x="849" y="227" type="line"/>
    </contour>
    <contour>
      <point x="608" y="288" type="line"/>
      <point x="848" y="278" type="line"/>
      <point x="848" y="393" type="line"/>
      <point x="608" y="373" type="line"/>
    </contour>
    <contour>
      <point x="603" y="568" type="line"/>
      <point x="932" y="547" type="line"/>
      <point x="960" y="666" type="line"/>
      <point x="528" y="666" type="line"/>
    </contour>
    <contour>
      <point x="785" y="657" type="line"/>
      <point x="824" y="451" type="line"/>
      <point x="939" y="451" type="line"/>
      <point x="954" y="520"/>
      <point x="962" y="620"/>
      <point x="960" y="666" type="curve"/>
    </contour>
  </outline>
</glyph>
<glyph name="oe" format="1">
  <advance width="839"/>
  <unicode hex="0153"/>
  <outline>
    <contour>
      <point x="288" y="79"/>
      <point x="282" y="78"/>
      <point x="275" y="78" type="curve" smooth="yes"/>
      <point x="227" y="78"/>
      <point x="210" y="148"/>
      <point x="210" y="238" type="curve" smooth="yes"/>
      <point x="210" y="309"/>
      <point x="219" y="366"/>
      <point x="234" y="389" type="curve"/>
      <point x="241" y="394"/>
      <point x="251" y="396"/>
      <point x="260" y="396" type="curve" smooth="yes"/>
      <point x="307" y="396"/>
      <point x="324" y="323"/>
      <point x="324" y="229" type="curve" smooth="yes"/>
      <point x="324" y="158"/>
      <point x="316" y="99"/>
      <point x="296" y="82" type="curve"/>
    </contour>
    <contour>
      <point x="458" y="423" type="line"/>
      <point x="409" y="477"/>
      <point x="339" y="504"/>
      <point x="267" y="504" type="curve" smooth="yes"/>
      <point x="133" y="504"/>
      <point x="8" y="412"/>
      <point x="8" y="245" type="curve" smooth="yes"/>
      <point x="8" y="76"/>
      <point x="137" y="-20"/>
      <point x="272" y="-20" type="curve" smooth="yes"/>
      <point x="343" y="-20"/>
      <point x="411" y="7"/>
      <point x="458" y="58" type="curve"/>
    </contour>
    <contour>
      <point x="378" y="95" type="line"/>
      <point x="437" y="14"/>
      <point x="543" y="-32"/>
      <point x="655" y="-11" type="curve"/>
      <point x="812" y="85" type="line"/>
      <point x="784" y="147" type="line"/>
      <point x="736" y="121"/>
      <point x="701" y="108"/>
      <point x="655" y="108" type="curve" smooth="yes"/>
      <point x="568" y="108"/>
      <point x="511" y="158"/>
      <point x="511" y="253" type="curve" smooth="yes"/>
      <point x="511" y="314"/>
      <point x="534" y="385"/>
      <point x="575" y="413" type="curve"/>
      <point x="626" y="407"/>
      <point x="656" y="331"/>
      <point x="646" y="271" type="curve"/>
      <point x="826" y="278" type="line"/>
      <point x="827" y="448"/>
      <point x="693" y="504"/>
      <point x="595" y="504" type="curve" smooth="yes"/>
      <point x="510" y="504"/>
      <point x="428" y="462"/>
      <point x="378" y="390" type="curve"/>
    </contour>
    <contour>
      <point x="457" y="220" type="line"/>
      <point x="767" y="219" type="line"/>
      <point x="826" y="278" type="line"/>
      <point x="718" y="318" type="line"/>
      <point x="441" y="299" type="line"/>
    </contour>
    <contour>
      <point x="814" y="18" type="move" name="ogonek"/>
    </contour>
    <contour>
      <point x="604" y="0" type="move" name="bottom"/>
    </contour>
    <contour>
      <point x="600" y="468" type="move" name="top"/>
    </contour>
  </outline>
</glyph>
<glyph name="acutecomb" format="1">
  <advance width="0"/>
  <unicode hex="0301"/>
  <outline>
    <contour>
      <point x="50" y="589"/>
      <point x="113" y="654"/>
      <point x="173" y="702" type="curve"/>
      <point x="53" y="808" type="line"/>
      <point x="-104" y="611" type="line"/>
      <point x="-6" y="535" type="line"/>
    </contour>
    <contour>
      <point x="0" y="474" type="move" name="_top"/>
    </contour>
  </outline>
</glyph>
<glyph name="circumflexcomb" format="1">
  <advance width="0"/>
  <unicode hex="0302"/>
  <outline>
    <contour>
      <point x="-194" y="581" type="line"/>
      <point x="-123" y="527" type="line"/>
      <point x="1" y="642" type="line"/>
      <point x="142" y="532" type="line"/>
      <point x="202" y="589" type="line"/>
      <point x="69" y="751" type="line"/>
      <point x="-58" y="751" type="line"/>
    </contour>
    <contour>
      <point x="0" y="474" type="move" name="_top"/>
    </contour>
  </outline>
</glyph>
<glyph name="tildecomb" format="1">
  <advance width="0"/>
  <unicode hex="0303"/>
  <outline>
    <contour>
      <point x="-161" y="548" type="line"/>
      <point x="-121" y="599"/>
      <point x="-97" y="628"/>
      <point x="-74" y="628" type="curve" smooth="yes"/>
      <point x="-35" y="628"/>
      <point x="45" y="544"/>
      <point x="100" y="544" type="curve" smooth="yes"/>
      <point x="145" y="544"/>
      <point x="197" y="600"/>
      <point x="249" y="705" type="curve"/>
      <point x="188" y="749" type="line"/>
      <point x="104" y="663" type="line"/>
      <point x="53" y="701"/>
      <point x="-35" y="755"/>
      <point x="-68" y="755" type="curve"/>
      <point x="-122" y="755"/>
      <point x="-154" y="720"/>
      <point x="-225" y="597" type="curve"/>
    </contour>
    <contour>
      <point x="0" y="474" type="move" name="_top"/>
    </contour>
  </outline>
</glyph>
<glyph name="macroncomb" format="1">
  <advance width="0"/>
  <unicode hex="0304"/>
  <outline>
    <contour>
      <point x="-86" y="677"/>
      <point x="-129" y="671"/>
      <point x="-168" y="652" type="curve"/>
      <point x="-162" y="568" type="line"/>
      <point x="152" y="568" type="line"/>
      <point x="199" y="618" type="line"/>
      <point x="194" y="677" type="line"/>
      <point x="-55" y="677" type="line"/>
    </contour>
    <contour>
      <point x="1" y="474" type="move" name="_top"/>
    </contour>
  </outline>
</glyph>
<glyph name="brevecomb" format="1">
  <advance width="0"/>
  <unicode hex="0306"/>
  <outline>
    <contour>
      <point x="3" y="549" type="curve"/>
      <point x="92" y="549"/>
      <point x="176" y="606"/>
      <point x="178" y="719" type="curve"/>
      <point x="55" y="721" type="line"/>
      <point x="55" y="675"/>
      <point x="27" y="651"/>
      <point x="-4" y="651" type="curve"/>
      <point x="-34" y="651"/>
      <point x="-64" y="673"/>
      <point x="-67" y="721" type="curve"/>
      <point x="-176" y="719" type="line"/>
      <point x="-170" y="604"/>
      <point x="-83" y="549"/>
    </contour>
    <contour>
      <point x="0" y="474" type="move" name="_top"/>
    </contour>
  </outline>
</glyph>
<glyph name="ringcomb" format="1">
  <advance width="0"/>
  <unicode hex="030A"/>
  <outline>
    <contour>
      <point x="4" y="709" type="curve"/>
      <point x="77" y="709"/>
      <point x="128" y="760"/>
      <point x="128" y="833" type="curve"/>
      <point x="128" y="910"/>
      <point x="72" y="965"/>
      <point x="0" y="965" type="curve"/>
      <point x="-73" y="965"/>
      <point x="-127" y="909"/>
      <point x="-127" y="836" type="curve"/>
      <point x="-127" y="759"/>
      <point x="-68" y="709"/>
    </contour>
    <contour>
      <point x="2" y="760" type="curve"/>
      <point x="-30" y="760"/>
      <point x="-58" y="782"/>
      <point x="-58" y="818" type="curve"/>
      <point x="-58" y="851"/>
      <point x="-33" y="876"/>
      <point x="0" y="876" type="curve"/>
      <point x="33" y="876"/>
      <point x="59" y="852"/>
      <point x="59" y="817" type="curve"/>
      <point x="59" y="783"/>
      <point x="35" y="760"/>
    </contour>
    <contour>
      <point x="0" y="650" type="move" name="_top"/>
    </contour>
  </outline>
</glyph>
<glyph name="hungarumlautcomb" format="1">
  <advance width="0"/>
  <unicode hex="030B"/>
  <outline>
    <contour>
      <point x="25" y="599" type="line"/>
      <point x="111" y="535" type="line"/>
      <point x="164" y="586"/>
      <point x="224" y="648"/>
      <point x="281" y="696" type="curve"/>
      <point x="171" y="784" type="line"/>
    </contour>
    <contour>
      <point x="-195" y="599" type="line"/>
      <point x="-109" y="535" type="line"/>
      <point x="-56" y="586"/>
      <point x="4" y="648"/>
      <point x="61" y="696" type="curve"/>
      <point x="-49" y="784" type="line"/>
    </contour>
    <contour>
      <point x="0" y="474" type="move" name="_top"/>
    </contour>
  </outline>
</glyph>
<glyph name="caroncomb" format="1">
  <advance width="0"/>
  <unicode hex="030C"/>
  <outline>
    <contour>
      <point x="-217" y="698" type="line"/>
      <point x="-67" y="541" type="line"/>
      <point x="72" y="543" type="line"/>
      <point x="209" y="715" type="line"/>
      <point x="128" y="785" type="line"/>
      <point x="5" y="642" type="line"/>
      <point x="-121" y="784" type="line"/>
    </contour>
    <contour>
      <point x="0" y="474" type="move" name="_top"/>
    </contour>
  </outline>
</glyph>
<glyph name="ogonekcomb" format="1">
  <advance width="0"/>
  <unicode hex="0328"/>
  <outline>
    <contour>
      <point x="-6" y="59" type="line"/>
      <point x="-174" y="12"/>
      <point x="-257" y="-67"/>
      <point x="-257" y="-144" type="curve" smooth="yes"/>
      <point x="-257" y="-212"/>
      <point x="-192" y="-271"/>
      <point x="-96" y="-259" type="curve"/>
      <point x="33" y="-189" type="line"/>
      <point x="8" y="-134" type="line"/>
      <point x="-67" y="-179"/>
      <point x="-123" y="-161"/>
      <point x="-123" y="-108" type="curve" smooth="yes"/>
      <point x="-123" y="-55"/>
      <point x="-66" y="-14"/>
      <point x="13" y="36" type="curve" smooth="yes"/>
    </contour>
    <contour>
      <point x="0" y="9" type="move" name="_ogonek"/>
    </contour>
  </outline>
</glyph>
<glyph name="macronbelowcomb" format="1">
  <advance width="0"/>
  <unicode hex="0331"/>
  <outline>
    <contour>
      <point x="-112" y="-128"/>
      <point x="-155" y="-135"/>
      <point x="-194" y="-153" type="curve"/>
      <point x="-188" y="-237" type="line"/>
      <point x="153" y="-237" type="line"/>
      <point x="200" y="-187" type="line"/>
      <point x="195" y="-128" type="line"/>
      <point x="-81" y="-128" type="line"/>
    </contour>
    <contour>
      <point x="0" y="0" type="move" name="_bottom"/>
    </contour>
  </outline>
</glyph>
<glyph name="numeralsign" format="1">
  <advance width="265"/>
  <unicode hex="0374"/>
  <outline>
    <contour>
      <point x="33" y="542" type="line"/>
      <point x="120" y="512" type="line"/>
      <point x="232" y="723" type="line"/>
      <point x="228" y="761" type="line"/>
      <point x="200" y="786"/>
      <point x="133" y="812"/>
      <point x="83" y="803" type="curve"/>
    </contour>
  </outline>
</glyph>
<glyph name="Delta" format="1">
  <advance width="696"/>
  <unicode hex="0394"/>
  <outline>
    <contour>
      <point x="17" y="87" type="line"/>
      <point x="56" y="0" type="line"/>
      <point x="632" y="0" type="line"/>
      <point x="676" y="104" type="line"/>
      <point x="417" y="690" type="line"/>
      <point x="235" y="645" type="line"/>
      <point x="474" y="65" type="line"/>
      <point x="597" y="133" type="line"/>
      <point x="80" y="124" type="line"/>
      <point x="156" y="82" type="line"/>
      <point x="380" y="629" type="line"/>
      <point x="272" y="646" type="line"/>
    </contour>
  </outline>
</glyph>
<glyph name="Epsilon" format="1">
  <advance width="670"/>
  <unicode hex="0395"/>
  <outline>
    <component base="E"/>
    <contour>
      <point x="5" y="343" type="move" name="left"/>
    </contour>
  </outline>
</glyph>
<glyph name="Theta" format="1">
  <advance width="698"/>
  <unicode hex="0398"/>
  <outline>
    <contour>
      <point x="258" y="264" type="line"/>
      <point x="439" y="253" type="line"/>
      <point x="439" y="412" type="line"/>
      <point x="258" y="396" type="line"/>
    </contour>
    <component base="O"/>
  </outline>
</glyph>
<glyph name="Lamda" format="1">
  <advance width="741"/>
  <unicode hex="039B"/>
  <outline>
    <contour>
      <point x="254" y="645" type="line"/>
      <point x="492" y="0" type="line"/>
      <point x="713" y="0" type="line"/>
      <point x="436" y="690" type="line"/>
    </contour>
    <contour>
      <point x="-20" y="32" type="curve"/>
      <point x="-14" y="0" type="line"/>
      <point x="80" y="0" type="line"/>
      <point x="79" y="91" type="line"/>
      <point x="41" y="73"/>
      <point x="8" y="54"/>
    </contour>
    <contour>
      <point x="136" y="79" type="line"/>
      <point x="133" y="0" type="line"/>
      <point x="273" y="0" type="line"/>
      <point x="274" y="55" type="line"/>
    </contour>
    <contour>
      <point x="388" y="32" type="curve"/>
      <point x="394" y="0" type="line"/>
      <point x="498" y="0" type="line"/>
      <point x="487" y="91" type="line"/>
      <point x="449" y="73"/>
      <point x="416" y="54"/>
    </contour>
    <contour>
      <point x="291" y="646" type="line"/>
      <point x="30" y="0" type="line"/>
      <point x="168" y="0" type="line"/>
      <point x="400" y="628" type="line"/>
    </contour>
    <contour>
      <point x="619" y="79" type="line"/>
      <point x="616" y="0" type="line"/>
      <point x="756" y="0" type="line"/>
      <point x="757" y="55" type="line"/>
    </contour>
  </outline>
</glyph>
<glyph name="Omicron" format="1">
  <advance width="698"/>
  <unicode hex="039F"/>
  <outline>
    <component base="O"/>
    <contour>
      <point x="25" y="343" type="move" name="left"/>
    </contour>
  </outline>
</glyph>
<glyph name="Sigma" format="1">
  <advance width="668"/>
  <unicode hex="03A3"/>
  <outline>
    <contour>
      <point x="23" y="86" type="line"/>
      <point x="56" y="0" type="line"/>
      <point x="600" y="0" type="line"/>
      <point x="483" y="123" type="line"/>
      <point x="143" y="116" type="line"/>
      <point x="178" y="60" type="line"/>
      <point x="438" y="351" type="line"/>
      <point x="241" y="613" type="line"/>
      <point x="151" y="579" type="line"/>
      <point x="579" y="544" type="line"/>
      <point x="609" y="666" type="line"/>
      <point x="71" y="666" type="line"/>
      <point x="24" y="580" type="line"/>
      <point x="266" y="272" type="line"/>
      <point x="243" y="335" type="line"/>
    </contour>
    <contour>
      <point x="421" y="8" type="line"/>
      <point x="600" y="0" type="line"/>
      <point x="611" y="61"/>
      <point x="620" y="186"/>
      <point x="618" y="245" type="curve"/>
      <point x="503" y="254" type="line"/>
    </contour>
    <contour>
      <point x="434" y="657" type="line"/>
      <point x="473" y="451" type="line"/>
      <point x="588" y="451" type="line"/>
      <point x="603" y="520"/>
      <point x="611" y="620"/>
      <point x="609" y="666" type="curve"/>
    </contour>
  </outline>
</glyph>
<glyph name="Upsilon" format="1">
  <advance width="719"/>
  <unicode hex="03A5"/>
  <outline>
    <contour>
      <point x="245" y="168" type="curve"/>
      <point x="455" y="196" type="line"/>
      <point x="455" y="398"/>
      <point x="546" y="566"/>
      <point x="637" y="579" type="curve"/>
      <point x="626" y="577" type="line"/>
      <point x="713" y="577" type="line"/>
      <point x="728" y="627" type="line"/>
      <point x="697" y="655"/>
      <point x="643" y="676"/>
      <point x="601" y="676" type="curve"/>
      <point x="496" y="676"/>
      <point x="396" y="560"/>
      <point x="370" y="299" type="curve"/>
      <point x="383" y="322" type="line"/>
      <point x="375" y="491" type="line"/>
      <point x="330" y="621"/>
      <point x="265" y="676"/>
      <point x="170" y="676" type="curve"/>
      <point x="110" y="676"/>
      <point x="47" y="651"/>
      <point x="-4" y="614" type="curve"/>
      <point x="11" y="564" type="line"/>
      <point x="104" y="572" type="line"/>
      <point x="78" y="575" type="line"/>
      <point x="168" y="562"/>
      <point x="245" y="362"/>
    </contour>
    <contour>
      <point x="157" y="32" type="curve"/>
      <point x="163" y="0" type="line"/>
      <point x="257" y="0" type="line"/>
      <point x="256" y="91" type="line"/>
      <point x="218" y="73"/>
      <point x="185" y="54"/>
    </contour>
    <contour>
      <point x="245" y="294" type="line"/>
      <point x="245" y="0" type="line"/>
      <point x="455" y="0" type="line"/>
      <point x="455" y="294" type="line"/>
    </contour>
    <contour>
      <point x="406" y="79" type="line"/>
      <point x="403" y="0" type="line"/>
      <point x="543" y="0" type="line"/>
      <point x="544" y="55" type="line"/>
    </contour>
    <contour>
      <point x="369" y="382" type="line"/>
      <point x="367" y="312" type="line"/>
      <point x="403" y="312" type="line"/>
      <point x="403" y="382" type="line"/>
    </contour>
    <contour>
      <point x="-34" y="343" type="move" name="left"/>
    </contour>
    <contour>
      <point x="369" y="650" type="move" name="top"/>
    </contour>
  </outline>
</glyph>
<glyph name="Phi" format="1">
  <advance width="802"/>
  <unicode hex="03A6"/>
  <outline>
    <contour>
      <point x="470" y="163" type="curve"/>
      <point x="458" y="87" type="line"/>
      <point x="670" y="87"/>
      <point x="794" y="181"/>
      <point x="794" y="340" type="curve"/>
      <point x="794" y="492"/>
      <point x="672" y="584"/>
      <point x="471" y="584" type="curve"/>
      <point x="451" y="508" type="line"/>
      <point x="545" y="508"/>
      <point x="594" y="448"/>
      <point x="594" y="332" type="curve"/>
      <point x="594" y="268"/>
      <point x="571" y="206"/>
      <point x="536" y="175" type="curve"/>
      <point x="514" y="167"/>
      <point x="490" y="163"/>
    </contour>
    <contour>
      <point x="218" y="12" type="curve"/>
      <point x="224" y="-20" type="line"/>
      <point x="318" y="-20" type="line"/>
      <point x="317" y="71" type="line"/>
      <point x="276" y="52"/>
      <point x="244" y="33"/>
    </contour>
    <contour>
      <point x="331" y="87" type="curve"/>
      <point x="351" y="163" type="line"/>
      <point x="257" y="163"/>
      <point x="208" y="223"/>
      <point x="208" y="339" type="curve"/>
      <point x="208" y="403"/>
      <point x="231" y="465"/>
      <point x="266" y="496" type="curve"/>
      <point x="287" y="503"/>
      <point x="312" y="508"/>
      <point x="332" y="508" type="curve"/>
      <point x="344" y="584" type="line"/>
      <point x="132" y="584"/>
      <point x="8" y="490"/>
      <point x="8" y="331" type="curve"/>
      <point x="8" y="179"/>
      <point x="130" y="87"/>
    </contour>
    <contour>
      <point x="450" y="59" type="line"/>
      <point x="447" y="-20" type="line"/>
      <point x="587" y="-20" type="line"/>
      <point x="588" y="35" type="line"/>
    </contour>
    <contour>
      <point x="308" y="686" type="line"/>
      <point x="308" y="-20" type="line"/>
      <point x="494" y="-20" type="line"/>
      <point x="494" y="686" type="line"/>
    </contour>
    <contour>
      <point x="226" y="631" type="line"/>
      <point x="364" y="607" type="line"/>
      <point x="367" y="686" type="line"/>
      <point x="227" y="686" type="line"/>
    </contour>
    <contour>
      <point x="484" y="686" type="line"/>
      <point x="485" y="595" type="line"/>
      <point x="526" y="614"/>
      <point x="558" y="633"/>
      <point x="584" y="654" type="curve"/>
      <point x="578" y="686" type="line"/>
    </contour>
  </outline>
</glyph>
<glyph name="Psi" format="1">
  <advance width="995"/>
  <unicode hex="03A8"/>
  <outline>
    <contour>
      <point x="444" y="194" type="curve"/>
      <point x="552" y="194" type="line"/>
      <point x="739" y="203"/>
      <point x="844" y="276"/>
      <point x="876" y="420" type="curve"/>
      <point x="913" y="587" type="line"/>
      <point x="872" y="573" type="line"/>
      <point x="994" y="573" type="line"/>
      <point x="1005" y="625" type="line"/>
      <point x="959" y="658"/>
      <point x="904" y="677"/>
      <point x="855" y="677" type="curve"/>
      <point x="785" y="677"/>
      <point x="740" y="643"/>
      <point x="725" y="577" type="curve"/>
      <point x="701" y="474" type="line" smooth="yes"/>
      <point x="683" y="396"/>
      <point x="658" y="314"/>
      <point x="641" y="297" type="curve"/>
      <point x="619" y="283"/>
      <point x="600" y="278"/>
      <point x="556" y="276" type="curve"/>
      <point x="455" y="276" type="line"/>
      <point x="366" y="284"/>
      <point x="336" y="331"/>
      <point x="304" y="474" type="curve"/>
      <point x="281" y="577" type="line" smooth="yes"/>
      <point x="266" y="642"/>
      <point x="218" y="677"/>
      <point x="145" y="677" type="curve"/>
      <point x="96" y="677"/>
      <point x="41" y="658"/>
      <point x="-5" y="625" type="curve"/>
      <point x="6" y="573" type="line"/>
      <point x="128" y="573" type="line"/>
      <point x="87" y="587" type="line"/>
      <point x="124" y="420" type="line" smooth="yes"/>
      <point x="156" y="275"/>
      <point x="260" y="202"/>
    </contour>
    <contour>
      <point x="307" y="32" type="curve"/>
      <point x="313" y="0" type="line"/>
      <point x="407" y="0" type="line"/>
      <point x="406" y="91" type="line"/>
      <point x="365" y="72"/>
      <point x="333" y="53"/>
    </contour>
    <contour>
      <point x="556" y="79" type="line"/>
      <point x="553" y="0" type="line"/>
      <point x="693" y="0" type="line"/>
      <point x="694" y="55" type="line"/>
    </contour>
    <contour>
      <point x="395" y="666" type="line"/>
      <point x="395" y="0" type="line"/>
      <point x="605" y="0" type="line"/>
      <point x="605" y="666" type="line"/>
    </contour>
    <contour>
      <point x="318" y="611" type="line"/>
      <point x="456" y="587" type="line"/>
      <point x="459" y="666" type="line"/>
      <point x="319" y="666" type="line"/>
    </contour>
    <contour>
      <point x="590" y="666" type="line"/>
      <point x="591" y="575" type="line"/>
      <point x="632" y="594"/>
      <point x="664" y="613"/>
      <point x="690" y="634" type="curve"/>
      <point x="684" y="666" type="line"/>
    </contour>
  </outline>
</glyph>
<glyph name="Omega" format="1">
  <advance width="821"/>
  <unicode hex="03A9"/>
  <outline>
    <contour>
      <point x="24" y="127" type="line"/>
      <point x="23" y="0" type="line"/>
      <point x="369" y="0" type="line"/>
      <point x="394" y="76" type="line"/>
      <point x="323" y="165"/>
      <point x="290" y="269"/>
      <point x="290" y="383" type="curve"/>
      <point x="290" y="470"/>
      <point x="312" y="530"/>
      <point x="343" y="568" type="curve"/>
      <point x="359" y="575"/>
      <point x="377" y="579"/>
      <point x="394" y="579" type="curve"/>
      <point x="477" y="579"/>
      <point x="533" y="492"/>
      <point x="533" y="367" type="curve"/>
      <point x="533" y="252"/>
      <point x="497" y="158"/>
      <point x="430" y="76" type="curve"/>
      <point x="455" y="0" type="line"/>
      <point x="801" y="0" type="line"/>
      <point x="800" y="127" type="line"/>
      <point x="518" y="98" type="line"/>
      <point x="555" y="90" type="line"/>
      <point x="675" y="164"/>
      <point x="754" y="274"/>
      <point x="754" y="392" type="curve"/>
      <point x="754" y="560"/>
      <point x="607" y="686"/>
      <point x="410" y="686" type="curve"/>
      <point x="210" y="686"/>
      <point x="69" y="559"/>
      <point x="69" y="379" type="curve"/>
      <point x="69" y="256"/>
      <point x="154" y="141"/>
      <point x="281" y="91" type="curve"/>
      <point x="318" y="98" type="line"/>
    </contour>
    <contour>
      <point x="22" y="0" type="curve"/>
      <point x="171" y="8" type="line"/>
      <point x="95" y="227" type="line"/>
      <point x="10" y="218" type="line"/>
      <point x="8" y="163"/>
      <point x="13" y="70"/>
    </contour>
    <contour>
      <point x="653" y="8" type="line"/>
      <point x="802" y="0" type="line"/>
      <point x="811" y="70"/>
      <point x="816" y="163"/>
      <point x="814" y="218" type="curve"/>
      <point x="729" y="227" type="line"/>
    </contour>
    <contour>
      <point x="407" y="0" type="move" name="bottom"/>
    </contour>
    <contour>
      <point x="76" y="343" type="move" name="left"/>
    </contour>
  </outline>
</glyph>
<glyph name="beta" format="1">
  <advance width="541"/>
  <unicode hex="03B2"/>
  <outline>
    <contour>
      <point x="22" y="-195" type="line"/>
      <point x="56" y="-223" type="line"/>
      <point x="117" y="-221"/>
      <point x="191" y="-203"/>
      <point x="229" y="-182" type="curve"/>
      <point x="111" y="138" type="line"/>
      <point x="141" y="169" type="line"/>
      <point x="138" y="189"/>
      <point x="137" y="206"/>
      <point x="137" y="232" type="curve"/>
      <point x="137" y="365" type="line" smooth="yes"/>
      <point x="137" y="479"/>
      <point x="191" y="535"/>
      <point x="302" y="535" type="curve"/>
      <point x="336" y="535"/>
      <point x="364" y="529"/>
      <point x="383" y="519" type="curve"/>
      <point x="387" y="514"/>
      <point x="390" y="505"/>
      <point x="390" y="496" type="curve"/>
      <point x="390" y="443"/>
      <point x="323" y="405"/>
      <point x="245" y="414" type="curve"/>
      <point x="287" y="358" type="line"/>
      <point x="412" y="357"/>
      <point x="492" y="411"/>
      <point x="492" y="497" type="curve"/>
      <point x="492" y="633"/>
      <point x="396" y="735"/>
      <point x="267" y="735" type="curve"/>
      <point x="122" y="735"/>
      <point x="31" y="621"/>
      <point x="31" y="438" type="curve"/>
      <point x="31" y="238" type="line" smooth="yes"/>
      <point x="31" y="144"/>
      <point x="31" y="79"/>
      <point x="28" y="10" type="curve"/>
    </contour>
    <contour>
      <point x="320" y="-20" type="curve"/>
      <point x="434" y="-20"/>
      <point x="526" y="79"/>
      <point x="526" y="202" type="curve"/>
      <point x="526" y="305"/>
      <point x="462" y="370"/>
      <point x="339" y="393" type="curve"/>
      <point x="254" y="299" type="line"/>
      <point x="345" y="293"/>
      <point x="414" y="268"/>
      <point x="428" y="235" type="curve"/>
      <point x="420" y="203"/>
      <point x="355" y="183"/>
      <point x="257" y="183" type="curve"/>
      <point x="211" y="183"/>
      <point x="158" y="188"/>
      <point x="130" y="198" type="curve"/>
      <point x="106" y="139" type="line"/>
      <point x="144" y="43"/>
      <point x="229" y="-20"/>
    </contour>
    <contour>
      <point x="196" y="299" type="curve"/>
      <point x="232" y="273" type="line"/>
      <point x="379" y="314" type="line"/>
      <point x="362" y="414" type="line"/>
      <point x="188" y="426" type="line"/>
      <point x="182" y="388"/>
      <point x="185" y="337"/>
    </contour>
  </outline>
</glyph>
<glyph name="epsilon" format="1">
  <advance width="494"/>
  <unicode hex="03B5"/>
  <outline>
    <contour>
      <point x="261" y="-14" type="curve"/>
      <point x="356" y="-14"/>
      <point x="451" y="28"/>
      <point x="496" y="91" type="curve"/>
      <point x="461" y="156" type="line"/>
      <point x="393" y="137"/>
      <point x="354" y="132"/>
      <point x="261" y="132" type="curve"/>
      <point x="197" y="132"/>
      <point x="135" y="144"/>
      <point x="115" y="160" type="curve"/>
      <point x="129" y="177"/>
      <point x="179" y="198"/>
      <point x="213" y="201" type="curve"/>
      <point x="361" y="173" type="line"/>
      <point x="371" y="197"/>
      <point x="375" y="254"/>
      <point x="370" y="290" type="curve"/>
      <point x="348" y="312" type="line"/>
      <point x="193" y="267" type="line"/>
      <point x="178" y="260" type="line"/>
      <point x="86" y="251"/>
      <point x="20" y="202"/>
      <point x="20" y="142" type="curve"/>
      <point x="20" y="49"/>
      <point x="118" y="-14"/>
    </contour>
    <contour>
      <point x="173" y="241" type="curve"/>
      <point x="241" y="228" type="line"/>
      <point x="253" y="265" type="line"/>
      <point x="206" y="265"/>
      <point x="146" y="287"/>
      <point x="129" y="310" type="curve"/>
      <point x="153" y="336"/>
      <point x="204" y="350"/>
      <point x="275" y="350" type="curve"/>
      <point x="349" y="350"/>
      <point x="383" y="344"/>
      <point x="445" y="318" type="curve"/>
      <point x="479" y="336" type="line"/>
      <point x="484" y="390"/>
      <point x="480" y="437"/>
      <point x="467" y="476" type="curve"/>
      <point x="431" y="494"/>
      <point x="364" y="505"/>
      <point x="284" y="505" type="curve"/>
      <point x="133" y="505"/>
      <point x="29" y="443"/>
      <point x="29" y="353" type="curve"/>
      <point x="29" y="291"/>
      <point x="89" y="244"/>
    </contour>
    <contour>
      <point x="290" y="474" type="move" name="top"/>
    </contour>
  </outline>
</glyph>
<glyph name="zeta" format="1">
  <advance width="428"/>
  <unicode hex="03B6"/>
  <outline>
    <contour>
      <point x="215" y="-136" type="line"/>
      <point x="285" y="-191" type="line"/>
      <point x="393" y="-105"/>
      <point x="435" y="-43"/>
      <point x="435" y="30" type="curve"/>
      <point x="435" y="80"/>
      <point x="416" y="113"/>
      <point x="371" y="140" type="curve"/>
      <point x="344" y="156"/>
      <point x="307" y="168"/>
      <point x="216" y="191" type="curve"/>
      <point x="146" y="209"/>
      <point x="120" y="218"/>
      <point x="99" y="233" type="curve"/>
      <point x="144" y="352"/>
      <point x="299" y="471"/>
      <point x="446" y="499" type="curve"/>
      <point x="473" y="548" type="line"/>
      <point x="461" y="592"/>
      <point x="406" y="665"/>
      <point x="366" y="689" type="curve"/>
      <point x="182" y="620"/>
      <point x="20" y="410"/>
      <point x="20" y="240" type="curve"/>
      <point x="20" y="191"/>
      <point x="28" y="156"/>
      <point x="47" y="114" type="curve"/>
      <point x="75" y="59"/>
      <point x="122" y="24"/>
      <point x="199" y="2" type="curve"/>
      <point x="292" y="-24"/>
      <point x="311" y="-30"/>
      <point x="344" y="-43" type="curve"/>
      <point x="319" y="-13" type="line"/>
    </contour>
    <contour>
      <point x="152" y="551" type="curve"/>
      <point x="166" y="531" type="line"/>
      <point x="292" y="621" type="line"/>
      <point x="213" y="621"/>
      <point x="173" y="627"/>
      <point x="145" y="641" type="curve"/>
      <point x="78" y="737" type="line"/>
      <point x="2" y="717" type="line"/>
      <point x="-28" y="574"/>
      <point x="18" y="523"/>
    </contour>
  </outline>
</glyph>
<glyph name="eta" format="1">
  <advance width="567"/>
  <unicode hex="03B7"/>
  <outline>
    <contour>
      <point x="489" y="-222" type="curve"/>
      <point x="539" y="-195" type="line"/>
      <point x="542" y="211" type="line" smooth="yes"/>
      <point x="543" y="406"/>
      <point x="490" y="505"/>
      <point x="386" y="505" type="curve"/>
      <point x="310" y="505"/>
      <point x="256" y="449"/>
      <point x="225" y="338" type="curve"/>
      <point x="210" y="173" type="line"/>
      <point x="236" y="102" type="line"/>
      <point x="249" y="201"/>
      <point x="338" y="316"/>
      <point x="414" y="316" type="curve"/>
      <point x="422" y="316"/>
      <point x="432" y="315"/>
      <point x="439" y="312" type="curve"/>
      <point x="441" y="309"/>
      <point x="443" y="300"/>
      <point x="443" y="291" type="curve"/>
      <point x="443" y="259"/>
      <point x="431" y="207"/>
      <point x="329" y="-192" type="curve"/>
      <point x="369" y="-212"/>
      <point x="423" y="-222"/>
    </contour>
    <contour>
      <point x="80" y="7" type="line"/>
      <point x="92" y="-5" type="line"/>
      <point x="154" y="-11"/>
      <point x="238" y="-9"/>
      <point x="270" y="0" type="curve"/>
      <point x="234" y="172" type="line"/>
      <point x="227" y="344" type="line"/>
      <point x="227" y="400"/>
      <point x="219" y="438"/>
      <point x="200" y="465" type="curve"/>
      <point x="183" y="491"/>
      <point x="160" y="505"/>
      <point x="132" y="505" type="curve"/>
      <point x="84" y="505"/>
      <point x="29" y="456"/>
      <point x="1" y="388" type="curve"/>
      <point x="20" y="337" type="line"/>
      <point x="204" y="353" type="line"/>
      <point x="151" y="423" type="line"/>
    </contour>
    <contour>
      <point x="164" y="0" type="move" name="bottom"/>
    </contour>
    <contour>
      <point x="338" y="474" type="move" name="top"/>
    </contour>
  </outline>
</glyph>
<glyph name="mu" format="1">
  <advance width="619"/>
  <unicode hex="03BC"/>
  <outline>
    <contour>
      <point x="28" y="-195" type="line"/>
      <point x="78" y="-222" type="line"/>
      <point x="147" y="-222"/>
      <point x="213" y="-211"/>
      <point x="239" y="-195" type="curve"/>
      <point x="154" y="85" type="line"/>
      <point x="157" y="165" type="line"/>
      <point x="198" y="244" type="line"/>
      <point x="251" y="460" type="line"/>
      <point x="204" y="502" type="line"/>
      <point x="134" y="502"/>
      <point x="52" y="485"/>
      <point x="15" y="463" type="curve"/>
      <point x="99" y="16" type="line"/>
      <point x="74" y="202" type="line"/>
    </contour>
    <contour>
      <point x="279" y="-20" type="curve"/>
      <point x="322" y="-20"/>
      <point x="368" y="29"/>
      <point x="398" y="108" type="curve"/>
      <point x="380" y="207" type="line"/>
      <point x="359" y="185"/>
      <point x="317" y="171"/>
      <point x="272" y="171" type="curve"/>
      <point x="222" y="171"/>
      <point x="172" y="185"/>
      <point x="146" y="207" type="curve"/>
      <point x="140" y="83" type="line"/>
      <point x="174" y="22"/>
      <point x="231" y="-20"/>
    </contour>
    <contour>
      <point x="500" y="-14" type="curve"/>
      <point x="545" y="-14"/>
      <point x="592" y="35"/>
      <point x="619" y="110" type="curve"/>
      <point x="598" y="158" type="line"/>
      <point x="422" y="139" type="line"/>
      <point x="455" y="119" type="line"/>
      <point x="568" y="460" type="line"/>
      <point x="521" y="502" type="line"/>
      <point x="451" y="502"/>
      <point x="369" y="485"/>
      <point x="332" y="463" type="curve"/>
      <point x="367" y="172" type="line"/>
      <point x="369" y="149" type="line"/>
      <point x="388" y="50"/>
      <point x="440" y="-14"/>
    </contour>
  </outline>
</glyph>
<glyph name="rho" format="1">
  <advance width="525"/>
  <unicode hex="03C1"/>
  <outline>
    <contour>
      <point x="22" y="-195" type="line"/>
      <point x="56" y="-223" type="line"/>
      <point x="120" y="-221"/>
      <point x="194" y="-203"/>
      <point x="229" y="-182" type="curve"/>
      <point x="111" y="138" type="line"/>
      <point x="140" y="161" type="line"/>
      <point x="137" y="181"/>
      <point x="136" y="196"/>
      <point x="136" y="215" type="curve"/>
      <point x="136" y="269"/>
      <point x="201" y="301"/>
      <point x="311" y="301" type="curve"/>
      <point x="351" y="301"/>
      <point x="383" y="297"/>
      <point x="407" y="289" type="curve"/>
      <point x="414" y="283"/>
      <point x="418" y="272"/>
      <point x="418" y="260" type="curve"/>
      <point x="418" y="212"/>
      <point x="355" y="183"/>
      <point x="234" y="183" type="curve"/>
      <point x="199" y="183"/>
      <point x="168" y="187"/>
      <point x="130" y="196" type="curve"/>
      <point x="106" y="139" type="line"/>
      <point x="145" y="45"/>
      <point x="215" y="-20"/>
      <point x="287" y="-20" type="curve"/>
      <point x="403" y="-20"/>
      <point x="510" y="104"/>
      <point x="510" y="250" type="curve"/>
      <point x="510" y="400"/>
      <point x="413" y="505"/>
      <point x="272" y="505" type="curve"/>
      <point x="129" y="505"/>
      <point x="31" y="392"/>
      <point x="31" y="227" type="curve"/>
      <point x="31" y="170"/>
      <point x="30" y="126"/>
      <point x="28" y="10" type="curve"/>
    </contour>
    <contour>
      <point x="289" y="474" type="move" name="top"/>
    </contour>
  </outline>
</glyph>
<glyph name="tau" format="1">
  <advance width="597"/>
  <unicode hex="03C4"/>
  <outline>
    <contour>
      <point x="-5" y="319" type="curve"/>
      <point x="27" y="277" type="line"/>
      <point x="121" y="305" type="line"/>
      <point x="552" y="301" type="line"/>
      <point x="590" y="336" type="line"/>
      <point x="596" y="383"/>
      <point x="579" y="468"/>
      <point x="556" y="508" type="curve"/>
      <point x="357" y="482" type="line"/>
      <point x="143" y="482" type="line"/>
      <point x="76" y="468"/>
      <point x="21" y="407"/>
    </contour>
    <contour>
      <point x="350" y="-14" type="curve"/>
      <point x="412" y="-14"/>
      <point x="481" y="42"/>
      <point x="503" y="112" type="curve"/>
      <point x="482" y="160" type="line"/>
      <point x="274" y="139" type="line"/>
      <point x="320" y="111" type="line"/>
      <point x="387" y="372" type="line"/>
      <point x="218" y="372" type="line"/>
      <point x="218" y="207" type="line" smooth="yes"/>
      <point x="218" y="76"/>
      <point x="272" y="-14"/>
    </contour>
  </outline>
</glyph>
<glyph name="upsilon" format="1">
  <advance width="562"/>
  <unicode hex="03C5"/>
  <outline>
    <contour>
      <point x="303" y="-20" type="curve"/>
      <point x="446" y="-20"/>
      <point x="547" y="101"/>
      <point x="547" y="247" type="curve"/>
      <point x="547" y="310"/>
      <point x="527" y="382"/>
      <point x="490" y="451" type="curve"/>
      <point x="462" y="473"/>
      <point x="412" y="493"/>
      <point x="371" y="498" type="curve"/>
      <point x="340" y="457" type="line"/>
      <point x="367" y="396"/>
      <point x="380" y="338"/>
      <point x="380" y="291" type="curve"/>
      <point x="380" y="213"/>
      <point x="346" y="177"/>
      <point x="259" y="177" type="curve"/>
      <point x="226" y="177"/>
      <point x="202" y="182"/>
      <point x="181" y="192" type="curve"/>
      <point x="260" y="241" type="line"/>
      <point x="272" y="276"/>
      <point x="282" y="316"/>
      <point x="282" y="350" type="curve"/>
      <point x="282" y="440"/>
      <point x="213" y="499"/>
      <point x="149" y="499" type="curve"/>
      <point x="94" y="499"/>
      <point x="29" y="457"/>
      <point x="-5" y="395" type="curve"/>
      <point x="17" y="330" type="line"/>
      <point x="156" y="347" type="line"/>
      <point x="163" y="449" type="line"/>
      <point x="94" y="300"/>
      <point x="78" y="252"/>
      <point x="78" y="198" type="curve"/>
      <point x="78" y="78"/>
      <point x="167" y="-20"/>
    </contour>
    <contour>
      <point x="301" y="474" type="move" name="top"/>
    </contour>
  </outline>
</glyph>
<glyph name="phi" format="1">
  <advance width="719"/>
  <unicode hex="03C6"/>
  <outline>
    <contour>
      <point x="253" y="-193" type="line"/>
      <point x="299" y="-222" type="line"/>
      <point x="354" y="-222"/>
      <point x="427" y="-211"/>
      <point x="471" y="-196" type="curve"/>
      <point x="402" y="2" type="line"/>
      <point x="402" y="72" type="line"/>
      <point x="402" y="196" type="line" smooth="yes"/>
      <point x="402" y="266"/>
      <point x="443" y="302"/>
      <point x="523" y="302" type="curve"/>
      <point x="562" y="302"/>
      <point x="586" y="298"/>
      <point x="601" y="288" type="curve"/>
      <point x="608" y="280"/>
      <point x="612" y="270"/>
      <point x="612" y="259" type="curve"/>
      <point x="612" y="206"/>
      <point x="525" y="177"/>
      <point x="366" y="177" type="curve"/>
      <point x="326" y="177" type="line"/>
      <point x="239" y="177"/>
      <point x="167" y="185"/>
      <point x="118" y="200" type="curve"/>
      <point x="111" y="207"/>
      <point x="107" y="217"/>
      <point x="107" y="229" type="curve"/>
      <point x="107" y="266"/>
      <point x="156" y="289"/>
      <point x="253" y="296" type="curve"/>
      <point x="278" y="333" type="line"/>
      <point x="276" y="393"/>
      <point x="255" y="467"/>
      <point x="229" y="505" type="curve"/>
      <point x="103" y="486"/>
      <point x="15" y="377"/>
      <point x="15" y="239" type="curve"/>
      <point x="15" y="85"/>
      <point x="150" y="-20"/>
      <point x="347" y="-20" type="curve"/>
      <point x="565" y="-20"/>
      <point x="704" y="86"/>
      <point x="704" y="253" type="curve"/>
      <point x="704" y="392"/>
      <point x="598" y="505"/>
      <point x="468" y="505" type="curve"/>
      <point x="357" y="505"/>
      <point x="299" y="419"/>
      <point x="299" y="255" type="curve"/>
      <point x="299" y="89" type="line"/>
      <point x="299" y="8" type="line"/>
    </contour>
  </outline>
</glyph>
<glyph name="chi" format="1">
  <advance width="595"/>
  <unicode hex="03C7"/>
  <outline>
    <contour>
      <point x="500" y="-223" type="curve"/>
      <point x="545" y="-223"/>
      <point x="587" y="-178"/>
      <point x="615" y="-99" type="curve"/>
      <point x="593" y="-51" type="line"/>
      <point x="433" y="-66" type="line"/>
      <point x="485" y="-106" type="line"/>
      <point x="383" y="168" type="line"/>
      <point x="300" y="191" type="line"/>
      <point x="305" y="318" type="line"/>
      <point x="275" y="426"/>
      <point x="192" y="501"/>
      <point x="103" y="501" type="curve"/>
      <point x="70" y="501"/>
      <point x="37" y="493"/>
      <point x="-5" y="475" type="curve"/>
      <point x="-1" y="430"/>
      <point x="18" y="375"/>
      <point x="49" y="320" type="curve"/>
      <point x="89" y="309" type="line"/>
      <point x="193" y="366" type="line"/>
      <point x="132" y="361" type="line"/>
      <point x="156" y="326"/>
      <point x="168" y="306"/>
      <point x="190" y="268" type="curve"/>
      <point x="223" y="209"/>
      <point x="239" y="180"/>
      <point x="263" y="136" type="curve"/>
      <point x="292" y="79" type="line"/>
      <point x="399" y="-134" type="line" smooth="yes"/>
      <point x="430" y="-195"/>
      <point x="462" y="-223"/>
    </contour>
    <contour>
      <point x="161" y="-226" type="curve"/>
      <point x="201" y="-201" type="line"/>
      <point x="329" y="91" type="line"/>
      <point x="258" y="179" type="line"/>
      <point x="36" y="-120" type="line"/>
      <point x="45" y="-162"/>
      <point x="110" y="-217"/>
    </contour>
    <contour>
      <point x="289" y="172" type="line"/>
      <point x="326" y="149" type="line"/>
      <point x="354" y="201" type="line"/>
      <point x="287" y="224" type="line"/>
    </contour>
    <contour>
      <point x="296" y="185" type="line"/>
      <point x="383" y="129" type="line"/>
      <point x="598" y="397" type="line"/>
      <point x="581" y="438"/>
      <point x="514" y="494"/>
      <point x="467" y="507" type="curve"/>
      <point x="430" y="489" type="line"/>
    </contour>
  </outline>
</glyph>
<glyph name="psi" format="1">
  <advance width="756"/>
  <unicode hex="03C8"/>
  <outline>
    <contour>
      <point x="406" y="-20" type="curve"/>
      <point x="617" y="-20"/>
      <point x="741" y="83"/>
      <point x="741" y="258" type="curve"/>
      <point x="741" y="322"/>
      <point x="721" y="389"/>
      <point x="684" y="451" type="curve"/>
      <point x="656" y="473"/>
      <point x="606" y="493"/>
      <point x="565" y="498" type="curve"/>
      <point x="534" y="457" type="line"/>
      <point x="559" y="405"/>
      <point x="574" y="355"/>
      <point x="574" y="307" type="curve"/>
      <point x="574" y="217"/>
      <point x="521" y="177"/>
      <point x="425" y="177" type="curve"/>
      <point x="385" y="177" type="line"/>
      <point x="294" y="177"/>
      <point x="232" y="186"/>
      <point x="183" y="208" type="curve"/>
      <point x="262" y="251" type="line"/>
      <point x="275" y="289"/>
      <point x="282" y="323"/>
      <point x="282" y="350" type="curve"/>
      <point x="282" y="431"/>
      <point x="221" y="499"/>
      <point x="149" y="499" type="curve"/>
      <point x="93" y="499"/>
      <point x="28" y="455"/>
      <point x="-5" y="395" type="curve"/>
      <point x="17" y="330" type="line"/>
      <point x="156" y="347" type="line"/>
      <point x="163" y="449" type="line"/>
      <point x="93" y="305"/>
      <point x="78" y="264"/>
      <point x="78" y="213" type="curve"/>
      <point x="78" y="70"/>
      <point x="205" y="-20"/>
    </contour>
    <contour>
      <point x="291" y="-193" type="line"/>
      <point x="332" y="-222" type="line"/>
      <point x="387" y="-222"/>
      <point x="465" y="-217"/>
      <point x="509" y="-202" type="curve"/>
      <point x="452" y="6" type="line"/>
      <point x="445" y="107" type="line"/>
      <point x="514" y="686" type="line"/>
      <point x="457" y="712" type="line"/>
      <point x="405" y="711"/>
      <point x="358" y="702"/>
      <point x="297" y="680" type="curve"/>
      <point x="346" y="119" type="line"/>
      <point x="339" y="8" type="line"/>
    </contour>
  </outline>
</glyph>
<glyph name="omega" format="1">
  <advance width="718"/>
  <unicode hex="03C9"/>
  <outline>
    <contour>
      <point x="202" y="-20" type="curve"/>
      <point x="291" y="-20"/>
      <point x="361" y="50"/>
      <point x="391" y="168" type="curve"/>
      <point x="336" y="229" type="line"/>
      <point x="325" y="193"/>
      <point x="274" y="174"/>
      <point x="190" y="174" type="curve"/>
      <point x="160" y="174"/>
      <point x="136" y="178"/>
      <point x="118" y="186" type="curve"/>
      <point x="111" y="192"/>
      <point x="107" y="202"/>
      <point x="107" y="214" type="curve"/>
      <point x="107" y="245"/>
      <point x="150" y="270"/>
      <point x="229" y="286" type="curve"/>
      <point x="255" y="334" type="line"/>
      <point x="251" y="386"/>
      <point x="210" y="470"/>
      <point x="173" y="499" type="curve"/>
      <point x="78" y="446"/>
      <point x="15" y="334"/>
      <point x="15" y="218" type="curve"/>
      <point x="15" y="78"/>
      <point x="92" y="-20"/>
    </contour>
    <contour>
      <point x="275" y="372" type="curve"/>
      <point x="315" y="146" type="line"/>
      <point x="400" y="151" type="line"/>
      <point x="453" y="346" type="line"/>
      <point x="426" y="388" type="line"/>
      <point x="377" y="394"/>
      <point x="316" y="388"/>
    </contour>
    <contour>
      <point x="523" y="-20" type="curve"/>
      <point x="627" y="-20"/>
      <point x="703" y="78"/>
      <point x="703" y="210" type="curve"/>
      <point x="703" y="279"/>
      <point x="663" y="379"/>
      <point x="610" y="443" type="curve"/>
      <point x="574" y="468"/>
      <point x="536" y="485"/>
      <point x="492" y="496" type="curve"/>
      <point x="473" y="451" type="line"/>
      <point x="514" y="380"/>
      <point x="533" y="318"/>
      <point x="533" y="259" type="curve"/>
      <point x="533" y="206"/>
      <point x="513" y="178"/>
      <point x="473" y="178" type="curve"/>
      <point x="435" y="178"/>
      <point x="390" y="200"/>
      <point x="372" y="227" type="curve"/>
      <point x="333" y="139" type="line"/>
      <point x="357" y="41"/>
      <point x="429" y="-20"/>
    </contour>
    <contour>
      <point x="359" y="0" type="move" name="bottom"/>
    </contour>
    <contour>
      <point x="382" y="474" type="move" name="top"/>
    </contour>
  </outline>
</glyph>
<glyph name="dvCandrabinduInverted" format="1">
  <advance width="0"/>
  <unicode hex="0900"/>
  <outline>
    <contour>
      <point x="-368" y="825" type="line"/>
      <point x="-355" y="903"/>
      <point x="-298" y="946"/>
      <point x="-235" y="946" type="curve" smooth="yes"/>
      <point x="-179" y="946"/>
      <point x="-120" y="912"/>
      <point x="-79" y="827" type="curve"/>
      <point x="4" y="893" type="line"/>
      <point x="-50" y="1031"/>
      <point x="-173" y="1100"/>
      <point x="-279" y="1100" type="curve" smooth="yes"/>
      <point x="-399" y="1100"/>
      <point x="-488" y="1011"/>
      <point x="-507" y="899" type="curve"/>
    </contour>
    <contour>
      <point x="-254" y="882"/>
      <point x="-307" y="842"/>
      <point x="-331" y="809" type="curve"/>
      <point x="-309" y="766"/>
      <point x="-274" y="719"/>
      <point x="-240" y="699" type="curve"/>
      <point x="-200" y="715"/>
      <point x="-154" y="757"/>
      <point x="-132" y="786" type="curve"/>
      <point x="-147" y="826"/>
      <point x="-184" y="873"/>
      <point x="-218" y="896" type="curve"/>
    </contour>
    <contour>
      <point x="-240" y="670" type="move" name="_abvmCANDRABINDU"/>
    </contour>
  </outline>
</glyph>
<glyph name="dvCandrabindu" format="1">
  <advance width="0"/>
  <unicode hex="0901"/>
  <outline>
    <contour>
      <point x="-204" y="699" type="curve"/>
      <point x="-84" y="699"/>
      <point x="5" y="788"/>
      <point x="24" y="900" type="curve"/>
      <point x="-115" y="974" type="line"/>
      <point x="-128" y="896"/>
      <point x="-185" y="853"/>
      <point x="-248" y="853" type="curve"/>
      <point x="-304" y="853"/>
      <point x="-363" y="887"/>
      <point x="-404" y="972" type="curve"/>
      <point x="-487" y="906" type="line"/>
      <point x="-433" y="768"/>
      <point x="-310" y="699"/>
    </contour>
    <contour>
      <point x="-238" y="883" type="curve"/>
      <point x="-204" y="906"/>
      <point x="-167" y="953"/>
      <point x="-152" y="993" type="curve"/>
      <point x="-174" y="1022"/>
      <point x="-220" y="1064"/>
      <point x="-260" y="1080" type="curve"/>
      <point x="-294" y="1060"/>
      <point x="-329" y="1013"/>
      <point x="-351" y="970" type="curve"/>
      <point x="-327" y="937"/>
      <point x="-274" y="897"/>
    </contour>
    <contour>
      <point x="-204" y="670" type="move" name="_abvmCANDRABINDU"/>
    </contour>
  </outline>
</glyph>
<glyph name="dvAnusvara" format="1">
  <advance width="0"/>
  <unicode hex="0902"/>
  <outline>
    <contour>
      <point x="37" y="755"/>
      <point x="78" y="807"/>
      <point x="95" y="851" type="curve"/>
      <point x="71" y="882"/>
      <point x="20" y="929"/>
      <point x="-24" y="946" type="curve"/>
      <point x="-61" y="924"/>
      <point x="-100" y="873"/>
      <point x="-124" y="825" type="curve"/>
      <point x="-98" y="789"/>
      <point x="-39" y="745"/>
      <point x="0" y="730" type="curve"/>
    </contour>
    <contour>
      <point x="0" y="670" type="move" name="_abvmBINDU"/>
    </contour>
  </outline>
</glyph>
<glyph name="dvVisarga" format="1">
  <advance width="366"/>
  <unicode hex="0903"/>
  <outline>
    <contour>
      <point x="220" y="317"/>
      <point x="259" y="366"/>
      <point x="275" y="408" type="curve"/>
      <point x="252" y="438"/>
      <point x="203" y="483"/>
      <point x="161" y="499" type="curve"/>
      <point x="126" y="478"/>
      <point x="89" y="429"/>
      <point x="66" y="384" type="curve"/>
      <point x="91" y="349"/>
      <point x="147" y="307"/>
      <point x="184" y="293" type="curve"/>
    </contour>
    <contour>
      <point x="227" y="40"/>
      <point x="266" y="89"/>
      <point x="282" y="131" type="curve"/>
      <point x="259" y="161"/>
      <point x="210" y="206"/>
      <point x="168" y="222" type="curve"/>
      <point x="133" y="201"/>
      <point x="96" y="152"/>
      <point x="73" y="107" type="curve"/>
      <point x="98" y="72"/>
      <point x="154" y="30"/>
      <point x="191" y="16" type="curve"/>
    </contour>
  </outline>
</glyph>
<glyph name="dvShortA" format="1">
  <advance width="898"/>
  <unicode hex="0904"/>
  <outline>
    <component base="dvA"/>
    <component base="dvMatraShortE" xOffset="882"/>
    <contour>
      <point x="888" y="670" type="move" name="abvmBINDU"/>
    </contour>
  </outline>
</glyph>
<glyph name="dvA" format="1">
  <advance width="898"/>
  <unicode hex="0905"/>
  <outline>
    <contour>
      <point x="15" y="277" type="line"/>
      <point x="126" y="29"/>
      <point x="266" y="-19"/>
      <point x="360" y="-19" type="curve" smooth="yes"/>
      <point x="491" y="-19"/>
      <point x="550" y="75"/>
      <point x="550" y="163" type="curve" smooth="yes"/>
      <point x="550" y="234"/>
      <point x="512" y="328"/>
      <point x="386" y="388" type="curve"/>
      <point x="337" y="433" type="line"/>
      <point x="283" y="442"/>
      <point x="205" y="413"/>
      <point x="162" y="374" type="curve"/>
      <point x="267" y="220" type="line"/>
      <point x="406" y="308" type="line"/>
      <point x="314" y="288" type="line"/>
      <point x="379" y="297"/>
      <point x="405" y="251"/>
      <point x="405" y="218" type="curve" smooth="yes"/>
      <point x="405" y="183"/>
      <point x="374" y="140"/>
      <point x="309" y="140" type="curve" smooth="yes"/>
      <point x="225" y="140"/>
      <point x="163" y="214"/>
      <point x="106" y="336" type="curve"/>
    </contour>
    <contour>
      <point x="189" y="456" type="line"/>
      <point x="248" y="514"/>
      <point x="319" y="555"/>
      <point x="373" y="550" type="curve"/>
      <point x="374" y="546"/>
      <point x="374" y="542"/>
      <point x="374" y="537" type="curve" smooth="yes"/>
      <point x="374" y="488"/>
      <point x="319" y="430"/>
      <point x="235" y="403" type="curve"/>
      <point x="418" y="325" type="line"/>
      <point x="480" y="366"/>
      <point x="514" y="434"/>
      <point x="514" y="485" type="curve" smooth="yes"/>
      <point x="514" y="569"/>
      <point x="420" y="685"/>
      <point x="297" y="685" type="curve" smooth="yes"/>
      <point x="218" y="685"/>
      <point x="143" y="637"/>
      <point x="92" y="582" type="curve"/>
    </contour>
    <contour>
      <point x="417" y="302" type="line"/>
      <point x="519" y="203"/>
      <point x="601" y="180"/>
      <point x="649" y="204" type="curve"/>
      <point x="659" y="399" type="line"/>
      <point x="636" y="338"/>
      <point x="504" y="303"/>
      <point x="426" y="394" type="curve"/>
    </contour>
    <contour>
      <point x="938" y="538" type="line"/>
      <point x="963" y="587" type="line"/>
      <point x="898" y="670" type="line"/>
      <point x="530" y="670" type="line"/>
      <point x="505" y="621" type="line"/>
      <point x="570" y="538" type="line"/>
    </contour>
    <contour>
      <point x="642" y="23" type="line"/>
      <point x="774" y="-46" type="line"/>
      <point x="828" y="-19" type="line"/>
      <point x="828" y="486" type="line"/>
      <point x="708" y="568" type="line"/>
      <point x="642" y="599" type="line"/>
    </contour>
    <contour>
      <point x="728" y="670" type="move" name="abvmBINDU"/>
    </contour>
    <contour>
      <point x="708" y="670" type="move" name="abvmCANDRABINDU"/>
    </contour>
  </outline>
</glyph>
<glyph name="dvAa" format="1">
  <advance width="1214"/>
  <unicode hex="0906"/>
  <outline>
    <component base="dvA"/>
    <component base="dvMatraAa" xOffset="898"/>
    <contour>
      <point x="885" y="670" type="move" name="abvmBINDU"/>
    </contour>
    <contour>
      <point x="875" y="670" type="move" name="abvmCANDRABINDU"/>
    </contour>
  </outline>
</glyph>
<glyph name="dvI" format="1">
  <advance width="600"/>
  <unicode hex="0907"/>
  <outline>
    <contour>
      <point x="153" y="14" type="line"/>
      <point x="340" y="-277" type="line"/>
      <point x="475" y="-180" type="line"/>
      <point x="236" y="12" type="line"/>
    </contour>
    <contour>
      <point x="640" y="538" type="line"/>
      <point x="665" y="587" type="line"/>
      <point x="600" y="670" type="line"/>
      <point x="-40" y="670" type="line"/>
      <point x="-65" y="621" type="line"/>
      <point x="0" y="538" type="line"/>
    </contour>
    <contour>
      <point x="342" y="361" type="line"/>
      <point x="508" y="343" type="line"/>
      <point x="508" y="486" type="line"/>
      <point x="388" y="568" type="line"/>
      <point x="342" y="599" type="line"/>
    </contour>
    <contour>
      <point x="59" y="1" type="line"/>
      <point x="136" y="-54"/>
      <point x="206" y="-87"/>
      <point x="289" y="-87" type="curve" smooth="yes"/>
      <point x="370" y="-87"/>
      <point x="571" y="-56"/>
      <point x="571" y="104" type="curve" smooth="yes"/>
      <point x="571" y="187"/>
      <point x="517" y="271"/>
      <point x="398" y="314" type="curve"/>
      <point x="194" y="276" type="line"/>
      <point x="187" y="283"/>
      <point x="183" y="292"/>
      <point x="183" y="301" type="curve" smooth="yes"/>
      <point x="183" y="322"/>
      <point x="204" y="343"/>
      <point x="240" y="343" type="curve"/>
      <point x="508" y="343" type="line"/>
      <point x="411" y="486" type="line"/>
      <point x="220" y="486" type="line" smooth="yes"/>
      <point x="91" y="486"/>
      <point x="27" y="423"/>
      <point x="27" y="349" type="curve" smooth="yes"/>
      <point x="27" y="260"/>
      <point x="123" y="168"/>
      <point x="285" y="116" type="curve"/>
      <point x="443" y="158" type="line"/>
      <point x="423" y="90"/>
      <point x="287" y="24"/>
      <point x="195" y="73" type="curve"/>
      <point x="252" y="42" type="line"/>
      <point x="181" y="142" type="line"/>
      <point x="97" y="144" type="line"/>
    </contour>
    <contour>
      <point x="390" y="670" type="move" name="abvmBINDU"/>
    </contour>
    <contour>
      <point x="360" y="670" type="move" name="abvmCANDRABINDU"/>
    </contour>
  </outline>
</glyph>
<glyph name="dvU" format="1">
  <advance width="600"/>
  <unicode hex="0909"/>
  <outline>
    <contour>
      <point x="250" y="565" type="line"/>
      <point x="303" y="536"/>
      <point x="326" y="511"/>
      <point x="326" y="479" type="curve" smooth="yes"/>
      <point x="326" y="438"/>
      <point x="288" y="410"/>
      <point x="228" y="393" type="curve"/>
      <point x="418" y="305" type="line"/>
      <point x="470" y="338"/>
      <point x="491" y="391"/>
      <point x="491" y="434" type="curve" smooth="yes"/>
      <point x="491" y="503"/>
      <point x="436" y="556"/>
      <point x="345" y="604" type="curve"/>
    </contour>
    <contour>
      <point x="640" y="538" type="line"/>
      <point x="665" y="587" type="line"/>
      <point x="600" y="670" type="line"/>
      <point x="-40" y="670" type="line"/>
      <point x="-65" y="621" type="line"/>
      <point x="0" y="538" type="line"/>
    </contour>
    <contour>
      <point x="-9" y="260" type="line"/>
      <point x="102" y="11"/>
      <point x="229" y="-52"/>
      <point x="341" y="-52" type="curve" smooth="yes"/>
      <point x="479" y="-52"/>
      <point x="560" y="45"/>
      <point x="560" y="151" type="curve" smooth="yes"/>
      <point x="560" y="240"/>
      <point x="502" y="335"/>
      <point x="381" y="377" type="curve"/>
      <point x="329" y="424" type="line"/>
      <point x="273" y="434"/>
      <point x="191" y="403"/>
      <point x="146" y="362" type="curve"/>
      <point x="256" y="200" type="line"/>
      <point x="402" y="293" type="line"/>
      <point x="305" y="272" type="line"/>
      <point x="363" y="280"/>
      <point x="394" y="237"/>
      <point x="394" y="198" type="curve" smooth="yes"/>
      <point x="394" y="155"/>
      <point x="359" y="107"/>
      <point x="292" y="107" type="curve" smooth="yes"/>
      <point x="203" y="107"/>
      <point x="144" y="191"/>
      <point x="87" y="312" type="curve"/>
    </contour>
    <contour>
      <point x="330" y="670" type="move" name="abvmBINDU"/>
    </contour>
    <contour>
      <point x="310" y="670" type="move" name="abvmCANDRABINDU"/>
    </contour>
  </outline>
</glyph>
<glyph name="dvUu" format="1">
  <advance width="895"/>
  <unicode hex="090A"/>
  <outline>
    <contour>
      <point x="935" y="538" type="line"/>
      <point x="960" y="587" type="line"/>
      <point x="895" y="670" type="line"/>
      <point x="450" y="670" type="line"/>
      <point x="425" y="621" type="line"/>
      <point x="490" y="538" type="line"/>
    </contour>
    <contour>
      <point x="724" y="-20" type="line"/>
      <point x="819" y="44"/>
      <point x="874" y="120"/>
      <point x="874" y="202" type="curve" smooth="yes"/>
      <point x="874" y="309"/>
      <point x="781" y="428"/>
      <point x="660" y="428" type="curve" smooth="yes"/>
      <point x="584" y="428"/>
      <point x="514" y="381"/>
      <point x="442" y="287" type="curve"/>
      <point x="534" y="146" type="line"/>
      <point x="605" y="231"/>
      <point x="670" y="281"/>
      <point x="707" y="281" type="curve" smooth="yes"/>
      <point x="723" y="281"/>
      <point x="732" y="272"/>
      <point x="732" y="259" type="curve" smooth="yes"/>
      <point x="732" y="222"/>
      <point x="661" y="165"/>
      <point x="600" y="115" type="curve"/>
    </contour>
    <component base="dvU"/>
    <contour>
      <point x="395" y="670" type="move" name="abvmBINDU"/>
    </contour>
    <contour>
      <point x="415" y="670" type="move" name="abvmCANDRABINDU"/>
    </contour>
  </outline>
</glyph>
<glyph name="dvVocalicR" format="1">
  <advance width="973"/>
  <unicode hex="090B"/>
  <outline>
    <contour>
      <point x="702" y="41" type="line"/>
      <point x="799" y="-58" type="line"/>
      <point x="925" y="-36"/>
      <point x="975" y="45"/>
      <point x="975" y="115" type="curve" smooth="yes"/>
      <point x="975" y="196"/>
      <point x="908" y="280"/>
      <point x="815" y="368" type="curve"/>
      <point x="758" y="294" type="line"/>
      <point x="794" y="258"/>
      <point x="819" y="221"/>
      <point x="819" y="187" type="curve" smooth="yes"/>
      <point x="819" y="150"/>
      <point x="790" y="116"/>
      <point x="712" y="93" type="curve"/>
    </contour>
    <contour>
      <point x="516" y="161" type="line"/>
      <point x="547" y="148"/>
      <point x="580" y="142"/>
      <point x="611" y="142" type="curve" smooth="yes"/>
      <point x="721" y="142"/>
      <point x="831" y="216"/>
      <point x="848" y="296" type="curve"/>
      <point x="787" y="442" type="line"/>
      <point x="778" y="360"/>
      <point x="709" y="308"/>
      <point x="630" y="308" type="curve" smooth="yes"/>
      <point x="592" y="308"/>
      <point x="553" y="320"/>
      <point x="516" y="345" type="curve"/>
    </contour>
    <contour>
      <point x="774" y="345" type="line"/>
      <point x="853" y="301" type="line"/>
      <point x="896" y="348"/>
      <point x="892" y="434"/>
      <point x="861" y="488" type="curve"/>
      <point x="695" y="492" type="line"/>
      <point x="665" y="435" type="line"/>
      <point x="785" y="249" type="line"/>
    </contour>
    <contour>
      <point x="1013" y="538" type="line"/>
      <point x="1038" y="587" type="line"/>
      <point x="973" y="670" type="line"/>
      <point x="290" y="670" type="line"/>
      <point x="265" y="621" type="line"/>
      <point x="330" y="538" type="line"/>
    </contour>
    <component base="dvTRa"/>
    <contour>
      <point x="525" y="670" type="move" name="abvmCANDRABINDU"/>
    </contour>
    <contour>
      <point x="515" y="670" type="move" name="abvmBINDU"/>
    </contour>
    <contour>
      <point x="507" y="475" type="move" name="abvmTOP"/>
    </contour>
    <contour>
      <point x="386" y="0" type="move" name="blwmBOTTOM"/>
    </contour>
  </outline>
</glyph>
<glyph name="dvVocalicL" format="1">
  <advance width="840"/>
  <unicode hex="090C"/>
  <outline>
    <contour>
      <point x="418" y="338" type="line"/>
      <point x="254" y="472" type="line"/>
      <point x="236" y="479"/>
      <point x="215" y="482"/>
      <point x="195" y="482" type="curve" smooth="yes"/>
      <point x="109" y="482"/>
      <point x="12" y="423"/>
      <point x="12" y="300" type="curve" smooth="yes"/>
      <point x="12" y="178"/>
      <point x="106" y="58"/>
      <point x="321" y="-55" type="curve"/>
      <point x="392" y="40" type="line"/>
      <point x="272" y="111"/>
      <point x="207" y="161"/>
      <point x="207" y="232" type="curve" smooth="yes"/>
      <point x="207" y="287"/>
      <point x="245" y="318"/>
      <point x="288" y="318" type="curve" smooth="yes"/>
      <point x="311" y="318"/>
      <point x="337" y="309"/>
      <point x="358" y="292" type="curve"/>
      <point x="384" y="261" type="line"/>
    </contour>
    <contour>
      <point x="880" y="538" type="line"/>
      <point x="905" y="587" type="line"/>
      <point x="840" y="670" type="line"/>
      <point x="-40" y="670" type="line"/>
      <point x="-65" y="621" type="line"/>
      <point x="0" y="538" type="line"/>
    </contour>
    <contour>
      <point x="454" y="393" type="line"/>
      <point x="633" y="351" type="line"/>
      <point x="633" y="486" type="line"/>
      <point x="513" y="568" type="line"/>
      <point x="454" y="599" type="line"/>
    </contour>
    <contour>
      <point x="736" y="67" type="line"/>
      <point x="709" y="10"/>
      <point x="664" y="-60"/>
      <point x="625" y="-60" type="curve"/>
      <point x="613" y="-60"/>
      <point x="603" y="-52"/>
      <point x="603" y="-37" type="curve"/>
      <point x="603" y="5"/>
      <point x="766" y="121"/>
      <point x="766" y="260" type="curve" smooth="yes"/>
      <point x="766" y="373"/>
      <point x="659" y="479"/>
      <point x="527" y="479" type="curve" smooth="yes"/>
      <point x="399" y="479"/>
      <point x="278" y="379"/>
      <point x="285" y="204" type="curve"/>
      <point x="423" y="121" type="line"/>
      <point x="466" y="151" type="line"/>
      <point x="466" y="252"/>
      <point x="508" y="347"/>
      <point x="552" y="347" type="curve"/>
      <point x="583" y="347"/>
      <point x="593" y="325"/>
      <point x="593" y="300" type="curve" smooth="yes"/>
      <point x="593" y="206"/>
      <point x="451" y="136"/>
      <point x="451" y="20" type="curve" smooth="yes"/>
      <point x="451" y="-82"/>
      <point x="560" y="-193"/>
      <point x="678" y="-193" type="curve" smooth="yes"/>
      <point x="763" y="-193"/>
      <point x="822" y="-135"/>
      <point x="863" y="-46" type="curve"/>
    </contour>
    <contour>
      <point x="490" y="670" type="move" name="abvmCANDRABINDU"/>
    </contour>
    <contour>
      <point x="550" y="670" type="move" name="abvmBINDU"/>
    </contour>
    <contour>
      <point x="515" y="475" type="move" name="abvmTOP"/>
    </contour>
    <contour>
      <point x="370" y="0" type="move" name="blwmBOTTOM"/>
    </contour>
  </outline>
</glyph>
<glyph name="dvShortE" format="1">
  <advance width="620"/>
  <unicode hex="090E"/>
  <outline>
    <component base="dvE"/>
    <component base="dvMatraShortE" xOffset="620"/>
    <contour>
      <point x="620" y="670" type="move" name="abvmBINDU"/>
    </contour>
  </outline>
</glyph>
<glyph name="dvE" format="1">
  <advance width="620"/>
  <unicode hex="090F"/>
  <outline>
    <contour>
      <point x="382" y="283" type="line"/>
      <point x="324" y="232" type="line"/>
      <point x="416" y="109" type="line"/>
      <point x="507" y="153"/>
      <point x="568" y="197"/>
      <point x="568" y="331" type="curve" smooth="yes"/>
      <point x="568" y="486" type="line"/>
      <point x="448" y="568" type="line"/>
      <point x="382" y="599" type="line"/>
    </contour>
    <contour>
      <point x="660" y="538" type="line"/>
      <point x="685" y="587" type="line"/>
      <point x="620" y="670" type="line"/>
      <point x="-40" y="670" type="line"/>
      <point x="-65" y="621" type="line"/>
      <point x="0" y="538" type="line"/>
    </contour>
    <contour>
      <point x="594" y="-250" type="line"/>
      <point x="631" y="-215"/>
      <point x="649" y="-168"/>
      <point x="649" y="-127" type="curve" smooth="yes"/>
      <point x="649" y="-47"/>
      <point x="582" y="5"/>
      <point x="411" y="87" type="curve" smooth="yes"/>
      <point x="228" y="175" type="line"/>
      <point x="228" y="486" type="line"/>
      <point x="108" y="568" type="line"/>
      <point x="40" y="598" type="line"/>
      <point x="40" y="299" type="line" smooth="yes"/>
      <point x="40" y="182"/>
      <point x="110" y="100"/>
      <point x="207" y="53" type="curve" smooth="yes"/>
      <point x="405" y="-44" type="line" smooth="yes"/>
      <point x="468" y="-75"/>
      <point x="480" y="-109"/>
      <point x="427" y="-177" type="curve"/>
    </contour>
    <contour>
      <point x="305" y="670" type="move" name="abvmBINDU"/>
    </contour>
    <contour>
      <point x="320" y="670" type="move" name="abvmCANDRABINDU"/>
    </contour>
  </outline>
</glyph>
<glyph name="dvAi" format="1">
  <advance width="620"/>
  <unicode hex="0910"/>
  <outline>
    <component base="dvE"/>
    <component base="dvMatraE" xOffset="623"/>
    <contour>
      <point x="570" y="670" type="move" name="abvmBINDU"/>
    </contour>
  </outline>
</glyph>
<glyph name="dvShortO" format="1">
  <advance width="1214"/>
  <unicode hex="0912"/>
  <outline>
    <component base="dvA"/>
    <component base="dvMatraShortO" xOffset="898"/>
    <contour>
      <point x="1028" y="465" type="move" name="abvmTOP"/>
    </contour>
    <contour>
      <point x="1204" y="670" type="move" name="abvmBINDU"/>
    </contour>
  </outline>
</glyph>
<glyph name="dvO" format="1">
  <advance width="1214"/>
  <unicode hex="0913"/>
  <outline>
    <component base="dvA"/>
    <component base="dvMatraO" xOffset="898"/>
    <contour>
      <point x="1152" y="670" type="move" name="abvmBINDU"/>
    </contour>
  </outline>
</glyph>
<glyph name="dvAu" format="1">
  <advance width="1214"/>
  <unicode hex="0914"/>
  <outline>
    <component base="dvA"/>
    <component base="dvMatraAu" xOffset="898"/>
    <contour>
      <point x="1204" y="670" type="move" name="abvmBINDU"/>
    </contour>
  </outline>
</glyph>
<glyph name="dvKa" format="1">
  <advance width="845"/>
  <unicode hex="0915"/>
  <outline>
    <contour>
      <point x="249" y="480" type="line"/>
      <point x="96" y="503"/>
      <point x="19" y="405"/>
      <point x="19" y="306" type="curve" smooth="yes"/>
      <point x="19" y="161"/>
      <point x="187" y="82"/>
      <point x="297" y="82" type="curve" smooth="yes"/>
      <point x="364" y="82"/>
      <point x="404" y="111"/>
      <point x="445" y="154" type="curve"/>
      <point x="357" y="322" type="line"/>
      <point x="324" y="251"/>
      <point x="261" y="217"/>
      <point x="216" y="208" type="curve"/>
      <point x="178" y="252"/>
      <point x="212" y="347"/>
      <point x="295" y="347" type="curve" smooth="yes"/>
      <point x="331" y="347"/>
      <point x="371" y="329"/>
      <point x="420" y="294" type="curve"/>
      <point x="444" y="375" type="line"/>
    </contour>
    <contour>
      <point x="885" y="538" type="line"/>
      <point x="910" y="587" type="line"/>
      <point x="845" y="670" type="line"/>
      <point x="-40" y="670" type="line"/>
      <point x="-65" y="621" type="line"/>
      <point x="0" y="538" type="line"/>
    </contour>
    <contour>
      <point x="332" y="23" type="line"/>
      <point x="464" y="-46" type="line"/>
      <point x="518" y="-19" type="line"/>
      <point x="518" y="486" type="line"/>
      <point x="398" y="568" type="line"/>
      <point x="332" y="599" type="line"/>
    </contour>
    <contour>
      <point x="466" y="128" type="line"/>
      <point x="518" y="210"/>
      <point x="604" y="289"/>
      <point x="649" y="289" type="curve" smooth="yes"/>
      <point x="665" y="289"/>
      <point x="672" y="280"/>
      <point x="672" y="265" type="curve" smooth="yes"/>
      <point x="672" y="220"/>
      <point x="610" y="171"/>
      <point x="531" y="110" type="curve"/>
      <point x="660" y="-22" type="line"/>
      <point x="767" y="48"/>
      <point x="832" y="134"/>
      <point x="832" y="231" type="curve" smooth="yes"/>
      <point x="832" y="349"/>
      <point x="736" y="459"/>
      <point x="620" y="459" type="curve" smooth="yes"/>
      <point x="513" y="459"/>
      <point x="441" y="366"/>
      <point x="388" y="267" type="curve"/>
    </contour>
    <contour>
      <point x="415" y="670" type="move" name="abvmBINDU"/>
    </contour>
    <contour>
      <point x="450" y="475" type="move" name="abvmTOP"/>
    </contour>
    <contour>
      <point x="465" y="670" type="move" name="abvmCANDRABINDU"/>
    </contour>
    <contour>
      <point x="775" y="670" type="move" name="abvmCANDRABINDU2"/>
    </contour>
    <contour>
      <point x="308" y="0" type="move" name="blwmBOTTOM"/>
    </contour>
  </outline>
</glyph>
